{
.appVersion = "1306";
classes = (
{
automatic = 1;
code = "A Adieresis B C D E F G H I J K L M N O Odieresis P Q R S T U Udieresis V W X Y Z";
name = Uppercase;
}
);
copyright = "Copyright 2012 by Jens Kutilek";
customParameters = (
{
name = vendorID;
value = JENS;
},
{
name = license;
value = "SIL Open Font License";
},
{
name = licenseURL;
value = "https://scripts.sil.org/OFL";
}
);
date = "2012-03-18 19:20:00 +0000";
designer = "Hermann Zapf, Digital version by Jens Kutilek";
designerURL = "https://www.kutilek.de/";
familyName = "Mergenthaler Antiqua";
featurePrefixes = (
{
code = "languagesystem DFLT dflt; languagesystem latn dflt; ";
name = Languagesystems;
}
);
features = (
{
automatic = 1;
code = "feature case;\012";
name = aalt;
},
{
automatic = 1;
code = "lookup ccmp_Other_1 {\012	@CombiningTopAccents = [dieresiscomb];\012	sub [i]' @CombiningTopAccents by [idotless];\012	@Markscomb = [dieresiscomb];\012	@MarkscombCase = [dieresiscomb.case];\012	sub @Markscomb @Markscomb' by @MarkscombCase;\012	sub @Uppercase @Markscomb' by @MarkscombCase;\012} ccmp_Other_1;\012\012lookup ccmp_Other_2 {\012	sub @Markscomb' @MarkscombCase by @MarkscombCase;\012	sub @MarkscombCase @Markscomb' by @MarkscombCase;\012} ccmp_Other_2;\012";
name = ccmp;
},
{
automatic = 1;
code = "sub dieresiscomb by dieresiscomb.case;\012";
name = case;
},
{
code = "  sub c h by c_h;\012  sub c k by c_k;";
disabled = 1;
name = dlig;
},
{
automatic = 1;
code = "lookupflag IgnoreMarks;\012sub f f by f_f;\012sub f i by f_i;\012sub f l by f_l;\012";
name = liga;
},
{
code = "  sub g by g.pt09;\012  sub j by j.pt09;\012  sub p by p.pt09;\012  sub q by q.pt09;\012  sub y by y.pt09;";
disabled = 1;
name = ss01;
},
{
automatic = 1;
code = "pos @Uppercase <5 0 10 0>;\012";
name = cpsp;
}
);
fontMaster = (
{
ascender = 1350;
capHeight = 1210;
customParameters = (
{
name = typoAscender;
value = 1350;
},
{
name = typoDescender;
value = -450;
},
{
name = typoLineGap;
value = 0;
},
{
name = hheaAscender;

glyphs = (
{
glyphname = A;
lastChange = "2019-05-17 22:27:47 +0000";
layers = (
{
anchors = (
{
name = top;
position = "{650, 1200}";
}
);
layerId = "CA4EC710-46DE-40B5-AF89-3BCF48EEB297";
paths = (
{
closed = 1;
nodes = (
"88 8 OFFCURVE",
"172 16 OFFCURVE",
"229 16 CURVE SMOOTH",
"279 16 OFFCURVE",
"420 8 OFFCURVE",
"461 8 CURVE",
"471 18 LINE",
"471 56 LINE",
"461 66 LINE",
"404 69 OFFCURVE",
"354 85 OFFCURVE",
"332 111 CURVE SMOOTH",
"305 143 OFFCURVE",
"310 200 OFFCURVE",
"329 253 CURVE SMOOTH",
"635 1068 LINE",
"610 1068 LINE",
"905 229 LINE SMOOTH",
"924 176 OFFCURVE",
"938 115 OFFCURVE",
"900 92 CURVE",
"875 74 OFFCURVE",
"835 70 OFFCURVE",
"779 66 CURVE",
"769 56 LINE",
"769 18 LINE",
"779 8 LINE",
"826 8 OFFCURVE",
"1002 16 OFFCURVE",
"1050 16 CURVE SMOOTH",
"1094 16 OFFCURVE",
"1196 8 OFFCURVE",
"1263 8 CURVE",
"1273 18 LINE",
"1273 56 LINE",
"1263 66 LINE",
"1183 70 OFFCURVE",
"1141 86 OFFCURVE",
"1123 108 CURVE SMOOTH",
"1104 133 OFFCURVE",
"1082 193 OFFCURVE",
"1064 244 CURVE SMOOTH",
"825 920 LINE SMOOTH",
"791 1016 OFFCURVE",
"760 1111 OFFCURVE",
"731 1207 CURVE",
"719 1218 LINE",
"616 1218 LINE",
"605 1209 LINE",
"586 1146 OFFCURVE",
"571 1100 OFFCURVE",
"550 1044 CURVE SMOOTH",
"256 264 LINE SMOOTH",
"229 193 OFFCURVE",
"201 148 OFFCURVE",
"175 122 CURVE SMOOTH",
"143 90 OFFCURVE",
"101 72 OFFCURVE",
"47 66 CURVE",
"37 56 LINE",
"37 18 LINE",
"47 8 LINE"
);
},
{
closed = 1;
nodes = (
"942 409 LINE",
"942 469 LINE",
"361 469 LINE",
"361 409 LINE"
);
}
);
width = 1300;
},
{
anchors = (
{
name = top;
position = "{650, 1200}";
}
);
layerId = "25879A17-30FE-49F5-8BDD-4D78448C8558";
paths = (
{
closed = 1;
nodes = (
"100 -2 OFFCURVE",
"161 6 OFFCURVE",
"229 6 CURVE SMOOTH",
"311 6 OFFCURVE",
"407 -2 OFFCURVE",
"465 -2 CURVE",
"481 14 LINE",
"481 60 LINE",
"465 76 LINE",
"408 79 OFFCURVE",
"359 93 OFFCURVE",
"340 117 CURVE SMOOTH",
"325 136 OFFCURVE",
"312 179 OFFCURVE",
"338 249 CURVE SMOOTH",
"645 1068 LINE",
"600 1068 LINE",
"896 226 LINE SMOOTH",
"915 172 OFFCURVE",
"925 120 OFFCURVE",
"895 100 CURVE SMOOTH",
"871 84 OFFCURVE",
"830 80 OFFCURVE",
"775 76 CURVE",
"759 60 LINE",
"759 14 LINE",
"775 -2 LINE",
"868 -2 OFFCURVE",
"957 6 OFFCURVE",
"1050 6 CURVE SMOOTH",
"1112 6 OFFCURVE",
"1181 -2 OFFCURVE",
"1267 -2 CURVE",
"1283 14 LINE",
"1283 60 LINE",
"1267 76 LINE",
"1188 80 OFFCURVE",
"1147 94 OFFCURVE",
"1131 114 CURVE SMOOTH",
"1111 138 OFFCURVE",
"1091 196 OFFCURVE",
"1073 247 CURVE SMOOTH",
"834 923 LINE SMOOTH",
"800 1020 OFFCURVE",
"769 1116 OFFCURVE",
"740 1213 CURVE",
"722 1228 LINE",
"612 1228 LINE",
"595 1213 LINE",
"578 1158 OFFCURVE",
"562 1103 OFFCURVE",
"541 1048 CURVE SMOOTH",
"247 268 LINE SMOOTH",
"220 196 OFFCURVE",
"194 155 OFFCURVE",
"168 129 CURVE SMOOTH",
"137 98 OFFCURVE",
"95 82 OFFCURVE",
"43 76 CURVE",
"27 60 LINE",
"27 14 LINE",
"43 -2 LINE"
);
},
{
closed = 1;
nodes = (
"952 399 LINE",
"952 479 LINE",
"351 479 LINE",
"351 399 LINE"
);
}
);
width = 1300;
}
);
leftKerningGroup = A;
rightKerningGroup = A;
unicode = 0041;
},
{
glyphname = B;
lastChange = "2019-05-17 22:14:23 +0000";
layers = (
{
layerId = "CA4EC710-46DE-40B5-AF89-3BCF48EEB297";
paths = (
{
closed = 1;
nodes = (
"812 621 OFFCURVE",
"895 528 OFFCURVE",
"895 341 CURVE SMOOTH",
"895 176 OFFCURVE",
"819 62 OFFCURVE",
"565 62 CURVE SMOOTH",
"504 62 OFFCURVE",
"432 68 OFFCURVE",
"400 86 CURVE",
"372 105 OFFCURVE",
"366 152 OFFCURVE",
"366 282 CURVE SMOOTH",
"366 621 LINE",
"546 621 LINE"
);
},
{
closed = 1;
nodes = (
"366 949 OFFCURVE",
"366 1056 OFFCURVE",
"387 1098 CURVE SMOOTH",
"408 1142 OFFCURVE",
"485 1148 OFFCURVE",
"553 1148 CURVE SMOOTH",
"754 1148 OFFCURVE",
"832 1067 OFFCURVE",
"832 930 CURVE SMOOTH",
"832 782 OFFCURVE",
"749 681 OFFCURVE",
"576 681 CURVE",
"366 681 LINE",
"366 874 LINE"
);
},
{
closed = 1;
nodes = (
"295 621 LINE",
"366 621 LINE",
"366 681 LINE",
"295 681 LINE"
);
},
{
closed = 1;
nodes = (
"1002 1038 OFFCURVE",
"945 1125 OFFCURVE",
"847 1168 CURVE SMOOTH",
"785 1195 OFFCURVE",
"690 1208 OFFCURVE",
"602 1208 CURVE SMOOTH",
"541 1208 OFFCURVE",
"482 1204 OFFCURVE",
"427 1200 CURVE SMOOTH",
"379 1197 OFFCURVE",
"334 1194 OFFCURVE",
"295 1194 CURVE SMOOTH",
"261 1194 OFFCURVE",
"220 1196 OFFCURVE",
"183 1199 CURVE SMOOTH",
"139 1202 OFFCURVE",
"93 1206 OFFCURVE",
"42 1206 CURVE",
"32 1196 LINE",
"32 1158 LINE",
"42 1148 LINE",
"122 1148 OFFCURVE",
"167 1143 OFFCURVE",
"189 1119 CURVE SMOOTH",
"205 1101 OFFCURVE",
"212 1055 OFFCURVE",
"212 972 CURVE SMOOTH",
"212 225 LINE SMOOTH",
"212 132 OFFCURVE",
"202 110 OFFCURVE",
"172 90 CURVE SMOOTH",
"146 72 OFFCURVE",
"103 68 OFFCURVE",
"42 64 CURVE",
"32 54 LINE",
"32 16 LINE",
"42 6 LINE",
"94 6 OFFCURVE",
"137 8 OFFCURVE",
"181 11 CURVE SMOOTH",
"223 13 OFFCURVE",
"264 16 OFFCURVE",
"306 16 CURVE SMOOTH",
"343 16 OFFCURVE",
"387 13 OFFCURVE",
"432 10 CURVE SMOOTH",
"482 6 OFFCURVE",
"534 2 OFFCURVE",
"583 2 CURVE SMOOTH",
"725 2 OFFCURVE",
"828 26 OFFCURVE",
"910 68 CURVE SMOOTH",
"1030 130 OFFCURVE",
"1075 230 OFFCURVE",
"1075 335 CURVE SMOOTH",
"1075 516 OFFCURVE",
"937 648 OFFCURVE",
"654 657 CURVE",
"883 685 OFFCURVE",
"1002 799 OFFCURVE",
"1002 940 CURVE SMOOTH"
);
}
);
userData = {
com.typemytype.robofont.mark = (
0.967,
0.6,
1,
1
);
};
width = 1200;
},
{
layerId = "25879A17-30FE-49F5-8BDD-4D78448C8558";
paths = (
{
closed = 1;
nodes = (
"285 611 LINE",
"546 611 LINE SMOOTH",
"804 611 OFFCURVE",
"885 521 OFFCURVE",
"885 341 CURVE SMOOTH",
"885 182 OFFCURVE",
"811 72 OFFCURVE",
"565 72 CURVE SMOOTH",
"502 72 OFFCURVE",
"432 76 OFFCURVE",
"406 94 CURVE SMOOTH",
"381 111 OFFCURVE",
"376 154 OFFCURVE",
"376 282 CURVE SMOOTH",
"376 874 LINE SMOOTH",
"376 948 OFFCURVE",
"376 1054 OFFCURVE",
"396 1094 CURVE SMOOTH",
"415 1133 OFFCURVE",
"488 1138 OFFCURVE",
"553 1138 CURVE SMOOTH",
"747 1138 OFFCURVE",
"822 1061 OFFCURVE",
"822 930 CURVE SMOOTH",
"822 788 OFFCURVE",
"742 691 OFFCURVE",
"576 691 CURVE SMOOTH",
"285 691 LINE"
);
},
{
closed = 1;
nodes = (
"1012 1045 OFFCURVE",
"956 1129 OFFCURVE",
"851 1177 CURVE SMOOTH",
"785 1207 OFFCURVE",
"697 1218 OFFCURVE",
"602 1218 CURVE SMOOTH",
"489 1218 OFFCURVE",
"379 1204 OFFCURVE",
"295 1204 CURVE SMOOTH",
"220 1204 OFFCURVE",
"136 1216 OFFCURVE",
"38 1216 CURVE",
"22 1200 LINE",
"22 1154 LINE",
"38 1138 LINE",
"116 1138 OFFCURVE",
"162 1134 OFFCURVE",
"182 1112 CURVE SMOOTH",
"196 1097 OFFCURVE",
"202 1053 OFFCURVE",
"202 972 CURVE SMOOTH",
"202 225 LINE SMOOTH",
"202 136 OFFCURVE",
"193 116 OFFCURVE",
"166 98 CURVE SMOOTH",
"142 82 OFFCURVE",
"100 78 OFFCURVE",
"38 74 CURVE",
"22 58 LINE",
"22 12 LINE",
"38 -4 LINE",
"140 -4 OFFCURVE",
"218 6 OFFCURVE",
"306 6 CURVE SMOOTH",
"383 6 OFFCURVE",
"489 -8 OFFCURVE",
"583 -8 CURVE SMOOTH",
"727 -8 OFFCURVE",
"832 16 OFFCURVE",
"915 59 CURVE SMOOTH",
"1039 123 OFFCURVE",
"1085 227 OFFCURVE",
"1085 335 CURVE SMOOTH",
"1085 530 OFFCURVE",
"934 668 OFFCURVE",
"621 668 CURVE",
"591 642 LINE",
"869 655 OFFCURVE",
"1012 782 OFFCURVE",
"1012 940 CURVE SMOOTH"
);
}
);
width = 1200;
}
);
leftKerningGroup = E;
unicode = 0042;
},
{
glyphname = C;
lastChange = "2019-05-17 22:14:23 +0000";
layers = (
{
layerId = "CA4EC710-46DE-40B5-AF89-3BCF48EEB297";
paths = (
{
closed = 1;
nodes = (
"912 157 OFFCURVE",
"779 40 OFFCURVE",
"591 40 CURVE SMOOTH",
"364 40 OFFCURVE",
"266 248 OFFCURVE",
"266 610 CURVE SMOOTH",
"266 950 OFFCURVE",
"377 1170 OFFCURVE",
"599 1170 CURVE SMOOTH",
"774 1170 OFFCURVE",
"883 1052 OFFCURVE",
"923 828 CURVE",
"934 816 LINE",
"976 816 LINE",
"985 826 LINE",
"985 951 OFFCURVE",
"987 1075 OFFCURVE",
"993 1200 CURVE",
"984 1210 LINE",
"947 1210 LINE",
"933 1199 LINE",
"890 1094 LINE",
"820 1179 OFFCURVE",
"715 1232 OFFCURVE",
"598 1232 CURVE SMOOTH",
"302 1232 OFFCURVE",
"85 986 OFFCURVE",
"85 610 CURVE SMOOTH",
"85 224 OFFCURVE",
"276 -22 OFFCURVE",
"580 -22 CURVE SMOOTH",
"854 -22 OFFCURVE",
"1010 163 OFFCURVE",
"1008 422 CURVE",
"997 432 LINE",
"939 432 LINE",
"928 422 LINE"
);
}
);
width = 1100;
},
{
layerId = "25879A17-30FE-49F5-8BDD-4D78448C8558";
paths = (
{
closed = 1;
nodes = (
"904 164 OFFCURVE",
"775 50 OFFCURVE",
"591 50 CURVE SMOOTH",
"371 50 OFFCURVE",
"276 254 OFFCURVE",
"276 610 CURVE SMOOTH",
"276 944 OFFCURVE",
"384 1160 OFFCURVE",
"599 1160 CURVE SMOOTH",
"768 1160 OFFCURVE",
"874 1044 OFFCURVE",
"913 824 CURVE",
"929 806 LINE",
"980 806 LINE",
"995 822 LINE",
"995 949 OFFCURVE",
"997 1077 OFFCURVE",
"1003 1204 CURVE",
"988 1220 LINE",
"944 1220 LINE",
"926 1206 LINE",
"863 1055 LINE",
"938 1041 LINE",
"871 1168 OFFCURVE",
"747 1242 OFFCURVE",
"598 1242 CURVE SMOOTH",
"296 1242 OFFCURVE",
"75 992 OFFCURVE",
"75 610 CURVE SMOOTH",
"75 218 OFFCURVE",
"270 -32 OFFCURVE",
"580 -32 CURVE SMOOTH",
"861 -32 OFFCURVE",
"1021 160 OFFCURVE",
"1018 426 CURVE",
"1001 442 LINE",
"935 442 LINE",
"918 426 LINE"
);
}
);
width = 1100;
}
);
leftKerningGroup = G;
rightKerningGroup = C;
unicode = 0043;
},
{
glyphname = D;
lastChange = "2019-05-17 22:14:23 +0000";
layers = (
{
layerId = "CA4EC710-46DE-40B5-AF89-3BCF48EEB297";
paths = (
{
closed = 1;
nodes = (
"1069 331 OFFCURVE",
"932 62 OFFCURVE",
"593 62 CURVE SMOOTH",
"551 62 OFFCURVE",
"479 68 OFFCURVE",
"448 86 CURVE",
"420 105 OFFCURVE",
"414 152 OFFCURVE",
"414 282 CURVE",
"414 874 LINE",
"414 949 OFFCURVE",
"414 1056 OFFCURVE",
"435 1098 CURVE SMOOTH",
"456 1142 OFFCURVE",
"533 1148 OFFCURVE",
"594 1148 CURVE SMOOTH",
"932 1148 OFFCURVE",
"1069 952 OFFCURVE",
"1069 605 CURVE SMOOTH"
);
},
{
closed = 1;
nodes = (
"1239 990 OFFCURVE",
"1009 1208 OFFCURVE",
"615 1208 CURVE SMOOTH",
"577 1208 OFFCURVE",
"532 1204 OFFCURVE",
"485 1201 CURVE SMOOTH",
"437 1197 OFFCURVE",
"386 1194 OFFCURVE",
"343 1194 CURVE SMOOTH",
"309 1194 OFFCURVE",
"268 1196 OFFCURVE",
"231 1199 CURVE SMOOTH",
"187 1202 OFFCURVE",
"141 1206 OFFCURVE",
"90 1206 CURVE",
"80 1196 LINE",
"80 1158 LINE",
"90 1148 LINE",
"170 1148 OFFCURVE",
"215 1143 OFFCURVE",
"237 1119 CURVE SMOOTH",
"253 1101 OFFCURVE",
"260 1055 OFFCURVE",
"260 972 CURVE",
"260 225 LINE",
"260 132 OFFCURVE",
"250 110 OFFCURVE",
"220 90 CURVE SMOOTH",
"194 72 OFFCURVE",
"151 68 OFFCURVE",
"90 64 CURVE",
"80 54 LINE",
"80 16 LINE",
"90 6 LINE",
"142 6 OFFCURVE",
"185 8 OFFCURVE",
"229 11 CURVE SMOOTH",
"271 13 OFFCURVE",
"312 16 OFFCURVE",
"354 16 CURVE SMOOTH",
"391 16 OFFCURVE",
"436 12 OFFCURVE",
"482 9 CURVE SMOOTH",
"530 5 OFFCURVE",
"580 2 OFFCURVE",
"623 2 CURVE SMOOTH",
"999 2 OFFCURVE",
"1239 250 OFFCURVE",
"1239 605 CURVE SMOOTH"
);
}
);
width = 1333;
},
{
layerId = "25879A17-30FE-49F5-8BDD-4D78448C8558";
paths = (
{
closed = 1;
nodes = (
"1059 336 OFFCURVE",
"925 72 OFFCURVE",
"593 72 CURVE SMOOTH",
"550 72 OFFCURVE",
"480 76 OFFCURVE",
"454 94 CURVE SMOOTH",
"429 111 OFFCURVE",
"424 154 OFFCURVE",
"424 282 CURVE SMOOTH",
"424 874 LINE SMOOTH",
"424 948 OFFCURVE",
"424 1054 OFFCURVE",
"444 1094 CURVE SMOOTH",
"463 1133 OFFCURVE",
"536 1138 OFFCURVE",
"594 1138 CURVE SMOOTH",
"925 1138 OFFCURVE",
"1059 946 OFFCURVE",
"1059 605 CURVE SMOOTH"
);
},
{
closed = 1;
nodes = (
"1249 996 OFFCURVE",
"1015 1218 OFFCURVE",
"615 1218 CURVE SMOOTH",
"537 1218 OFFCURVE",
"427 1204 OFFCURVE",
"343 1204 CURVE SMOOTH",
"268 1204 OFFCURVE",
"184 1216 OFFCURVE",
"86 1216 CURVE",
"70 1200 LINE",
"70 1154 LINE",
"86 1138 LINE",
"164 1138 OFFCURVE",
"210 1134 OFFCURVE",
"230 1112 CURVE SMOOTH",
"244 1097 OFFCURVE",
"250 1053 OFFCURVE",
"250 972 CURVE SMOOTH",
"250 225 LINE SMOOTH",
"250 136 OFFCURVE",
"241 116 OFFCURVE",
"214 98 CURVE SMOOTH",
"190 82 OFFCURVE",
"148 78 OFFCURVE",
"86 74 CURVE",
"70 58 LINE",
"70 12 LINE",
"86 -4 LINE",
"188 -4 OFFCURVE",
"266 6 OFFCURVE",
"354 6 CURVE SMOOTH",
"431 6 OFFCURVE",
"537 -8 OFFCURVE",
"623 -8 CURVE SMOOTH",
"1005 -8 OFFCURVE",
"1249 244 OFFCURVE",
"1249 605 CURVE SMOOTH"
);
}
);
width = 1333;
}
);
leftKerningGroup = E;
rightKerningGroup = D;
unicode = 0044;
},
{
glyphname = E;
lastChange = "2019-05-17 22:14:23 +0000";
layers = (
{
anchors = (
{
name = top;
position = "{620, 1200}";
}
);
layerId = "CA4EC710-46DE-40B5-AF89-3BCF48EEB297";
paths = (
{
closed = 1;
nodes = (
"411 1006 OFFCURVE",
"411 1078 OFFCURVE",
"432 1101 CURVE",
"431 1101 LINE",
"460 1135 OFFCURVE",
"530 1140 OFFCURVE",
"601 1140 CURVE SMOOTH",
"890 1140 OFFCURVE",
"960 1061 OFFCURVE",
"1024 829 CURVE",
"1034 821 LINE",
"1077 821 LINE",
"1086 830 LINE",
"1073 958 OFFCURVE",
"1065 1081 OFFCURVE",
"1059 1208 CURVE",
"1048 1218 LINE",
"867 1204 OFFCURVE",
"691 1200 OFFCURVE",
"540 1200 CURVE",
"347 1200 LINE",
"314 1200 OFFCURVE",
"276 1202 OFFCURVE",
"235 1203 CURVE SMOOTH",
"187 1205 OFFCURVE",
"140 1206 OFFCURVE",
"87 1206 CURVE",
"77 1196 LINE",
"77 1158 LINE",
"87 1148 LINE",
"167 1148 OFFCURVE",
"212 1143 OFFCURVE",
"234 1119 CURVE SMOOTH",
"250 1101 OFFCURVE",
"257 1055 OFFCURVE",
"257 972 CURVE",
"257 225 LINE",
"257 132 OFFCURVE",
"247 110 OFFCURVE",
"217 90 CURVE SMOOTH",
"191 72 OFFCURVE",
"148 68 OFFCURVE",
"87 64 CURVE",
"77 54 LINE",
"77 16 LINE",
"87 6 LINE",
"152 6 OFFCURVE",
"200 7 OFFCURVE",
"241 8 CURVE SMOOTH",
"272 9 OFFCURVE",
"303 10 OFFCURVE",
"331 10 CURVE",
"679 10 LINE",
"813 10 OFFCURVE",
"939 6 OFFCURVE",
"1073 2 CURVE",
"1083 12 LINE",
"1088 142 OFFCURVE",
"1103 280 OFFCURVE",
"1119 411 CURVE",
"1110 420 LINE",
"1069 420 LINE",
"1057 410 LINE",
"983 135 OFFCURVE",
"919 70 OFFCURVE",
"630 70 CURVE SMOOTH",
"551 70 OFFCURVE",
"472 71 OFFCURVE",
"439 93 CURVE",
"440 93 LINE",
"410 113 OFFCURVE",
"411 189 OFFCURVE",
"411 261 CURVE",
"411 922 LINE"
);
},
{
closed = 1;
nodes = (
"677 587 OFFCURVE",
"710 536 OFFCURVE",
"736 360 CURVE",
"751 351 LINE",
"792 351 LINE",
"801 360 LINE",
"792 441 OFFCURVE",
"788 512 OFFCURVE",
"788 592 CURVE SMOOTH",
"788 666 OFFCURVE",
"794 752 OFFCURVE",
"805 866 CURVE",
"795 875 LINE",
"754 875 LINE",
"742 865 LINE",
"710 711 OFFCURVE",
"687 647 OFFCURVE",
"543 647 CURVE",
"340 647 LINE",
"340 587 LINE",
"521 587 LINE"
);
}
);
userData = {
com.typemytype.robofont.mark = (
0.656,
1,
0.6,
1
);
};
width = 1200;
},
{
anchors = (
{
name = top;
position = "{620, 1200}";
}
);
layerId = "25879A17-30FE-49F5-8BDD-4D78448C8558";
paths = (
{
closed = 1;
nodes = (
"421 1004 OFFCURVE",
"421 1074 OFFCURVE",
"439 1094 CURVE SMOOTH",
"466 1125 OFFCURVE",
"533 1130 OFFCURVE",
"601 1130 CURVE SMOOTH",
"887 1130 OFFCURVE",
"950 1059 OFFCURVE",
"1014 825 CURVE",
"1031 811 LINE",
"1082 811 LINE",
"1096 827 LINE",
"1083 956 OFFCURVE",
"1075 1085 OFFCURVE",
"1069 1213 CURVE",
"1052 1228 LINE",
"870 1214 OFFCURVE",
"692 1210 OFFCURVE",
"540 1210 CURVE SMOOTH",
"347 1210 LINE SMOOTH",
"275 1210 OFFCURVE",
"181 1216 OFFCURVE",
"83 1216 CURVE",
"67 1200 LINE",
"67 1154 LINE",
"83 1138 LINE",
"161 1138 OFFCURVE",
"207 1134 OFFCURVE",
"227 1112 CURVE SMOOTH",
"241 1097 OFFCURVE",
"247 1053 OFFCURVE",
"247 972 CURVE SMOOTH",
"247 225 LINE SMOOTH",
"247 136 OFFCURVE",
"238 116 OFFCURVE",
"211 98 CURVE SMOOTH",
"187 82 OFFCURVE",
"145 78 OFFCURVE",
"83 74 CURVE",
"67 58 LINE",
"67 12 LINE",
"83 -4 LINE",
"200 -4 OFFCURVE",
"263 0 OFFCURVE",
"331 0 CURVE SMOOTH",
"679 0 LINE SMOOTH",
"813 0 OFFCURVE",
"943 -4 OFFCURVE",
"1077 -8 CURVE",
"1093 8 LINE",
"1098 140 OFFCURVE",
"1114 280 OFFCURVE",
"1130 414 CURVE",
"1114 430 LINE",
"1066 430 LINE",
"1048 416 LINE",
"976 144 OFFCURVE",
"913 80 OFFCURVE",
"630 80 CURVE SMOOTH",
"553 80 OFFCURVE",
"475 81 OFFCURVE",
"445 101 CURVE SMOOTH",
"418 119 OFFCURVE",
"421 207 OFFCURVE",
"421 282 CURVE SMOOTH",
"421 922 LINE SMOOTH"
);
},
{
closed = 1;
nodes = (
"670 577 OFFCURVE",
"702 528 OFFCURVE",
"727 355 CURVE",
"748 341 LINE",
"796 341 LINE",
"812 357 LINE",
"803 440 OFFCURVE",
"798 511 OFFCURVE",
"798 592 CURVE SMOOTH",
"798 665 OFFCURVE",
"804 754 OFFCURVE",
"815 869 CURVE",
"799 885 LINE",
"751 885 LINE",
"733 871 LINE",
"702 720 OFFCURVE",
"680 657 OFFCURVE",
"543 657 CURVE SMOOTH",
"330 657 LINE",
"330 577 LINE",
"521 577 LINE SMOOTH"
);
}
);
width = 1200;
}
);
leftKerningGroup = E;
rightKerningGroup = E;
unicode = 0045;
},
{
glyphname = F;
lastChange = "2019-05-17 22:14:23 +0000";
layers = (
{
layerId = "CA4EC710-46DE-40B5-AF89-3BCF48EEB297";
paths = (
{
closed = 1;
nodes = (
"411 974 OFFCURVE",
"414 1065 OFFCURVE",
"430 1094 CURVE SMOOTH",
"452 1132 OFFCURVE",
"521 1140 OFFCURVE",
"625 1140 CURVE SMOOTH",
"904 1140 OFFCURVE",
"930 1057 OFFCURVE",
"983 796 CURVE",
"994 787 LINE",
"1037 787 LINE",
"1046 796 LINE",
"1033 922 OFFCURVE",
"1024 1070 OFFCURVE",
"1024 1208 CURVE",
"1013 1218 LINE",
"833 1204 OFFCURVE",
"671 1200 OFFCURVE",
"546 1200 CURVE",
"347 1200 LINE",
"314 1200 OFFCURVE",
"276 1202 OFFCURVE",
"235 1203 CURVE SMOOTH",
"187 1205 OFFCURVE",
"140 1206 OFFCURVE",
"87 1206 CURVE",
"77 1196 LINE",
"77 1158 LINE",
"87 1148 LINE",
"167 1148 OFFCURVE",
"212 1143 OFFCURVE",
"234 1119 CURVE SMOOTH",
"250 1101 OFFCURVE",
"257 1055 OFFCURVE",
"257 972 CURVE",
"257 227 LINE",
"257 134 OFFCURVE",
"247 112 OFFCURVE",
"217 92 CURVE SMOOTH",
"191 74 OFFCURVE",
"148 70 OFFCURVE",
"87 66 CURVE",
"77 56 LINE",
"77 18 LINE",
"87 8 LINE",
"150 8 OFFCURVE",
"195 11 OFFCURVE",
"237 13 CURVE SMOOTH",
"271 15 OFFCURVE",
"309 16 OFFCURVE",
"344 16 CURVE SMOOTH",
"399 16 OFFCURVE",
"455 13 OFFCURVE",
"505 10 CURVE SMOOTH",
"546 8 OFFCURVE",
"585 6 OFFCURVE",
"619 6 CURVE",
"629 16 LINE",
"629 58 LINE",
"619 68 LINE",
"513 71 OFFCURVE",
"457 81 OFFCURVE",
"440 96 CURVE",
"441 96 LINE",
"419 114 OFFCURVE",
"411 158 OFFCURVE",
"411 218 CURVE",
"411 894 LINE"
);
},
{
closed = 1;
nodes = (
"642 589 OFFCURVE",
"692 525 OFFCURVE",
"715 322 CURVE",
"730 313 LINE",
"771 313 LINE",
"780 322 LINE",
"769 423 OFFCURVE",
"767 514 OFFCURVE",
"767 605 CURVE SMOOTH",
"767 668 OFFCURVE",
"771 754 OFFCURVE",
"784 880 CURVE",
"774 889 LINE",
"733 889 LINE",
"721 879 LINE",
"692 705 OFFCURVE",
"646 649 OFFCURVE",
"506 649 CURVE",
"319 649 LINE",
"319 589 LINE",
"500 589 LINE"
);
}
);
userData = {
com.typemytype.robofont.mark = (
0.656,
1,
0.6,
1
);
};
width = 1100;
},
{
layerId = "25879A17-30FE-49F5-8BDD-4D78448C8558";
paths = (
{
closed = 1;
nodes = (
"421 973 OFFCURVE",
"424 1062 OFFCURVE",
"439 1089 CURVE SMOOTH",
"458 1123 OFFCURVE",
"525 1130 OFFCURVE",
"625 1130 CURVE SMOOTH",
"897 1130 OFFCURVE",
"922 1049 OFFCURVE",
"974 791 CURVE",
"991 777 LINE",
"1042 777 LINE",
"1056 793 LINE",
"1043 922 OFFCURVE",
"1034 1073 OFFCURVE",
"1034 1213 CURVE",
"1017 1228 LINE",
"835 1214 OFFCURVE",
"672 1210 OFFCURVE",
"546 1210 CURVE SMOOTH",
"347 1210 LINE SMOOTH",
"275 1210 OFFCURVE",
"181 1216 OFFCURVE",
"83 1216 CURVE",
"67 1200 LINE",
"67 1154 LINE",
"83 1138 LINE",
"161 1138 OFFCURVE",
"207 1134 OFFCURVE",
"227 1112 CURVE SMOOTH",
"241 1097 OFFCURVE",
"247 1053 OFFCURVE",
"247 972 CURVE SMOOTH",
"247 227 LINE SMOOTH",
"247 138 OFFCURVE",
"238 118 OFFCURVE",
"211 100 CURVE SMOOTH",
"187 84 OFFCURVE",
"145 80 OFFCURVE",
"83 76 CURVE",
"67 60 LINE",
"67 14 LINE",
"83 -2 LINE",
"200 -2 OFFCURVE",
"263 6 OFFCURVE",
"344 6 CURVE SMOOTH",
"447 6 OFFCURVE",
"547 -4 OFFCURVE",
"623 -4 CURVE",
"639 12 LINE",
"639 62 LINE",
"623 78 LINE",
"519 81 OFFCURVE",
"463 90 OFFCURVE",
"447 104 CURVE SMOOTH",
"428 120 OFFCURVE",
"421 161 OFFCURVE",
"421 218 CURVE SMOOTH",
"421 894 LINE SMOOTH"
);
},
{
closed = 1;
nodes = (
"636 579 OFFCURVE",
"684 518 OFFCURVE",
"706 317 CURVE",
"727 303 LINE",
"775 303 LINE",
"791 319 LINE",
"779 422 OFFCURVE",
"777 513 OFFCURVE",
"777 605 CURVE SMOOTH",
"777 667 OFFCURVE",
"781 756 OFFCURVE",
"794 883 CURVE",
"778 899 LINE",
"730 899 LINE",
"712 885 LINE",
"684 713 OFFCURVE",
"640 659 OFFCURVE",
"506 659 CURVE SMOOTH",
"309 659 LINE",
"309 579 LINE",
"500 579 LINE SMOOTH"
);
}
);
width = 1100;
}
);
leftKerningGroup = E;
unicode = 0046;
},
{
glyphname = G;
lastChange = "2019-05-17 22:14:23 +0000";
layers = (
{
layerId = "CA4EC710-46DE-40B5-AF89-3BCF48EEB297";
paths = (
{
closed = 1;
nodes = (
"266 943 OFFCURVE",
"360 1170 OFFCURVE",
"599 1170 CURVE SMOOTH",
"779 1170 OFFCURVE",
"888 1060 OFFCURVE",
"931 819 CURVE",
"942 807 LINE",
"984 807 LINE",
"993 817 LINE",
"993 945 OFFCURVE",
"995 1072 OFFCURVE",
"1001 1200 CURVE",
"992 1210 LINE",
"955 1210 LINE",
"942 1199 LINE",
"898 1097 LINE",
"831 1183 OFFCURVE",
"730 1232 OFFCURVE",
"598 1232 CURVE SMOOTH",
"293 1232 OFFCURVE",
"85 977 OFFCURVE",
"85 605 CURVE SMOOTH",
"85 223 OFFCURVE",
"276 -22 OFFCURVE",
"554 -22 CURVE SMOOTH",
"702 -22 OFFCURVE",
"819 39 OFFCURVE",
"898 153 CURVE",
"968 10 LINE",
"981 0 LINE",
"1024 0 LINE",
"1033 8 LINE",
"1021 69 OFFCURVE",
"1009 146 OFFCURVE",
"1009 242 CURVE",
"1009 287 LINE",
"1009 383 OFFCURVE",
"1019 423 OFFCURVE",
"1048 444 CURVE SMOOTH",
"1066 457 OFFCURVE",
"1099 465 OFFCURVE",
"1152 465 CURVE",
"1162 475 LINE",
"1162 513 LINE",
"1152 523 LINE",
"1105 523 OFFCURVE",
"1061 521 OFFCURVE",
"1019 519 CURVE",
"1020 519 LINE",
"983 517 OFFCURVE",
"948 516 OFFCURVE",
"917 516 CURVE SMOOTH",
"882 516 OFFCURVE",
"840 517 OFFCURVE",
"796 518 CURVE SMOOTH",
"754 519 OFFCURVE",
"701 520 OFFCURVE",
"662 520 CURVE",
"652 510 LINE",
"652 474 LINE",
"662 464 LINE",
"742 464 OFFCURVE",
"816 460 OFFCURVE",
"838 431 CURVE SMOOTH",
"853 413 OFFCURVE",
"859 385 OFFCURVE",
"859 331 CURVE SMOOTH",
"859 155 OFFCURVE",
"746 40 OFFCURVE",
"569 40 CURVE SMOOTH",
"354 40 OFFCURVE",
"266 248 OFFCURVE",
"266 605 CURVE SMOOTH"
);
}
);
userData = {
com.typemytype.robofont.mark = (
0.967,
0.6,
1,
1
);
};
width = 1200;
},
{
layerId = "25879A17-30FE-49F5-8BDD-4D78448C8558";
paths = (
{
closed = 1;
nodes = (
"276 937 OFFCURVE",
"367 1160 OFFCURVE",
"599 1160 CURVE SMOOTH",
"774 1160 OFFCURVE",
"879 1051 OFFCURVE",
"921 815 CURVE",
"937 797 LINE",
"988 797 LINE",
"1003 813 LINE",
"1003 943 OFFCURVE",
"1005 1074 OFFCURVE",
"1011 1204 CURVE",
"996 1220 LINE",
"952 1220 LINE",
"934 1206 LINE",
"870 1055 LINE",
"946 1041 LINE",
"879 1168 OFFCURVE",
"761 1242 OFFCURVE",
"598 1242 CURVE SMOOTH",
"287 1242 OFFCURVE",
"75 983 OFFCURVE",
"75 605 CURVE SMOOTH",
"75 217 OFFCURVE",
"270 -32 OFFCURVE",
"554 -32 CURVE SMOOTH",
"763 -32 OFFCURVE",
"910 79 OFFCURVE",
"980 296 CURVE",
"859 214 LINE",
"960 3 LINE",
"979 -10 LINE",
"1028 -10 LINE",
"1044 5 LINE",
"1031 67 OFFCURVE",
"1019 144 OFFCURVE",
"1019 242 CURVE SMOOTH",
"1019 287 LINE SMOOTH",
"1019 379 OFFCURVE",
"1028 417 OFFCURVE",
"1054 436 CURVE SMOOTH",
"1070 448 OFFCURVE",
"1104 455 OFFCURVE",
"1156 455 CURVE",
"1172 471 LINE",
"1172 517 LINE",
"1156 533 LINE",
"1067 533 OFFCURVE",
"983 526 OFFCURVE",
"917 526 CURVE SMOOTH",
"844 526 OFFCURVE",
"741 530 OFFCURVE",
"658 530 CURVE",
"642 514 LINE",
"642 470 LINE",
"658 454 LINE",
"736 454 OFFCURVE",
"810 450 OFFCURVE",
"830 425 CURVE SMOOTH",
"843 409 OFFCURVE",
"849 383 OFFCURVE",
"849 331 CURVE SMOOTH",
"849 161 OFFCURVE",
"740 50 OFFCURVE",
"569 50 CURVE SMOOTH",
"361 50 OFFCURVE",
"276 254 OFFCURVE",
"276 605 CURVE SMOOTH"
);
}
);
width = 1200;
}
);
leftKerningGroup = G;
rightKerningGroup = G;
unicode = 0047;
},
{
glyphname = H;
lastChange = "2019-05-17 22:14:23 +0000";
layers = (
{
layerId = "CA4EC710-46DE-40B5-AF89-3BCF48EEB297";
paths = (
{
closed = 1;
nodes = (
"411 1071 OFFCURVE",
"423 1103 OFFCURVE",
"450 1123 CURVE",
"476 1138 OFFCURVE",
"531 1144 OFFCURVE",
"581 1144 CURVE",
"591 1154 LINE",
"591 1192 LINE",
"581 1202 LINE",
"517 1202 OFFCURVE",
"469 1199 OFFCURVE",
"428 1197 CURVE SMOOTH",
"398 1195 OFFCURVE",
"365 1194 OFFCURVE",
"337 1194 CURVE SMOOTH",
"310 1194 OFFCURVE",
"275 1195 OFFCURVE",
"237 1197 CURVE SMOOTH",
"192 1199 OFFCURVE",
"140 1202 OFFCURVE",
"87 1202 CURVE",
"77 1192 LINE",
"77 1154 LINE",
"87 1144 LINE",
"167 1144 OFFCURVE",
"212 1139 OFFCURVE",
"234 1115 CURVE SMOOTH",
"250 1097 OFFCURVE",
"257 1051 OFFCURVE",
"257 968 CURVE",
"257 227 LINE",
"257 134 OFFCURVE",
"247 112 OFFCURVE",
"217 92 CURVE SMOOTH",
"191 74 OFFCURVE",
"148 70 OFFCURVE",
"87 66 CURVE",
"77 56 LINE",
"77 18 LINE",
"87 8 LINE",
"151 8 OFFCURVE",
"199 11 OFFCURVE",
"240 13 CURVE SMOOTH",
"270 15 OFFCURVE",
"303 16 OFFCURVE",
"331 16 CURVE SMOOTH",
"358 16 OFFCURVE",
"393 15 OFFCURVE",
"430 13 CURVE SMOOTH",
"475 11 OFFCURVE",
"526 8 OFFCURVE",
"579 8 CURVE",
"589 18 LINE",
"589 56 LINE",
"579 66 LINE",
"572 66 OFFCURVE",
"566 67 OFFCURVE",
"559 67 CURVE SMOOTH",
"492 70 OFFCURVE",
"451 72 OFFCURVE",
"433 92 CURVE",
"416 113 OFFCURVE",
"411 158 OFFCURVE",
"411 218 CURVE",
"411 972 LINE"
);
},
{
closed = 1;
nodes = (
"1143 1066 OFFCURVE",
"1157 1100 OFFCURVE",
"1183 1117 CURVE",
"1182 1117 LINE",
"1207 1134 OFFCURVE",
"1252 1144 OFFCURVE",
"1313 1144 CURVE",
"1323 1154 LINE",
"1323 1192 LINE",
"1313 1202 LINE",
"1249 1202 OFFCURVE",
"1201 1199 OFFCURVE",
"1160 1197 CURVE SMOOTH",
"1130 1195 OFFCURVE",
"1097 1194 OFFCURVE",
"1069 1194 CURVE SMOOTH",
"1042 1194 OFFCURVE",
"1007 1195 OFFCURVE",
"969 1197 CURVE SMOOTH",
"924 1199 OFFCURVE",
"872 1202 OFFCURVE",
"819 1202 CURVE",
"809 1192 LINE",
"809 1154 LINE",
"819 1144 LINE",
"902 1142 OFFCURVE",
"949 1138 OFFCURVE",
"967 1118 CURVE SMOOTH",
"985 1096 OFFCURVE",
"989 1040 OFFCURVE",
"989 977 CURVE",
"989 227 LINE",
"989 133 OFFCURVE",
"978 109 OFFCURVE",
"948 89 CURVE SMOOTH",
"922 72 OFFCURVE",
"870 66 OFFCURVE",
"819 66 CURVE",
"809 56 LINE",
"809 18 LINE",
"819 8 LINE",
"883 8 OFFCURVE",
"931 11 OFFCURVE",
"972 13 CURVE SMOOTH",
"1002 15 OFFCURVE",
"1035 16 OFFCURVE",
"1063 16 CURVE SMOOTH",
"1090 16 OFFCURVE",
"1125 15 OFFCURVE",
"1162 13 CURVE SMOOTH",
"1207 11 OFFCURVE",
"1258 8 OFFCURVE",
"1311 8 CURVE",
"1321 18 LINE",
"1321 56 LINE",
"1311 66 LINE",
"1230 67 OFFCURVE",
"1180 74 OFFCURVE",
"1163 93 CURVE SMOOTH",
"1145 115 OFFCURVE",
"1143 159 OFFCURVE",
"1143 218 CURVE",
"1143 971 LINE"
);
},
{
closed = 1;
nodes = (
"1063 594 LINE",
"1063 654 LINE",
"383 654 LINE",
"383 594 LINE"
);
}
);
userData = {
com.typemytype.robofont.guides = (
{
angle = 90;
isGlobal = 0;
magnetic = 5;
x = 94;
y = 0;
}
);
com.typemytype.robofont.mark = (
0.656,
1,
0.6,
1
);
};
width = 1400;
},
{
layerId = "25879A17-30FE-49F5-8BDD-4D78448C8558";
paths = (
{
closed = 1;
nodes = (
"421 1072 OFFCURVE",
"429 1097 OFFCURVE",
"456 1115 CURVE SMOOTH",
"480 1131 OFFCURVE",
"533 1134 OFFCURVE",
"585 1134 CURVE",
"601 1150 LINE",
"601 1196 LINE",
"585 1212 LINE",
"468 1212 OFFCURVE",
"405 1204 OFFCURVE",
"337 1204 CURVE SMOOTH",
"275 1204 OFFCURVE",
"181 1212 OFFCURVE",
"83 1212 CURVE",
"67 1196 LINE",
"67 1150 LINE",
"83 1134 LINE",
"161 1134 OFFCURVE",
"207 1130 OFFCURVE",
"227 1108 CURVE SMOOTH",
"241 1093 OFFCURVE",
"247 1049 OFFCURVE",
"247 968 CURVE SMOOTH",
"247 227 LINE SMOOTH",
"247 138 OFFCURVE",
"238 118 OFFCURVE",
"211 100 CURVE SMOOTH",
"187 84 OFFCURVE",
"145 80 OFFCURVE",
"83 76 CURVE",
"67 60 LINE",
"67 14 LINE",
"83 -2 LINE",
"200 -2 OFFCURVE",
"263 6 OFFCURVE",
"331 6 CURVE SMOOTH",
"393 6 OFFCURVE",
"485 -2 OFFCURVE",
"583 -2 CURVE",
"599 14 LINE",
"599 60 LINE",
"583 76 LINE",
"504 80 OFFCURVE",
"458 80 OFFCURVE",
"441 99 CURVE SMOOTH",
"425 118 OFFCURVE",
"421 161 OFFCURVE",
"421 218 CURVE SMOOTH",
"421 972 LINE SMOOTH"
);
},
{
closed = 1;
nodes = (
"1153 1062 OFFCURVE",
"1165 1094 OFFCURVE",
"1188 1109 CURVE SMOOTH",
"1212 1125 OFFCURVE",
"1256 1134 OFFCURVE",
"1317 1134 CURVE",
"1333 1150 LINE",
"1333 1196 LINE",
"1317 1212 LINE",
"1200 1212 OFFCURVE",
"1137 1204 OFFCURVE",
"1069 1204 CURVE SMOOTH",
"1007 1204 OFFCURVE",
"913 1212 OFFCURVE",
"815 1212 CURVE",
"799 1196 LINE",
"799 1150 LINE",
"815 1134 LINE",
"896 1132 OFFCURVE",
"945 1129 OFFCURVE",
"960 1112 CURVE SMOOTH",
"976 1093 OFFCURVE",
"979 1038 OFFCURVE",
"979 977 CURVE SMOOTH",
"979 227 LINE SMOOTH",
"979 138 OFFCURVE",
"969 115 OFFCURVE",
"942 97 CURVE SMOOTH",
"918 81 OFFCURVE",
"867 76 OFFCURVE",
"815 76 CURVE",
"799 60 LINE",
"799 14 LINE",
"815 -2 LINE",
"932 -2 OFFCURVE",
"995 6 OFFCURVE",
"1063 6 CURVE SMOOTH",
"1125 6 OFFCURVE",
"1217 -2 OFFCURVE",
"1315 -2 CURVE",
"1331 14 LINE",
"1331 60 LINE",
"1315 76 LINE",
"1235 77 OFFCURVE",
"1186 83 OFFCURVE",
"1171 100 CURVE SMOOTH",
"1155 119 OFFCURVE",
"1153 161 OFFCURVE",
"1153 218 CURVE SMOOTH",
"1153 971 LINE SMOOTH"
);
},
{
closed = 1;
nodes = (
"1073 584 LINE",
"1073 664 LINE",
"373 664 LINE",
"373 584 LINE"
);
}
);
width = 1400;
}
);
leftKerningGroup = E;
rightKerningGroup = I;
unicode = 0048;
},
{
glyphname = I;
lastChange = "2019-05-17 22:14:23 +0000";
layers = (
{
anchors = (
{
name = top;
position = "{350, 1200}";
}
);
layerId = "CA4EC710-46DE-40B5-AF89-3BCF48EEB297";
paths = (
{
closed = 1;
nodes = (
"427 1071 OFFCURVE",
"439 1103 OFFCURVE",
"466 1123 CURVE",
"492 1138 OFFCURVE",
"547 1144 OFFCURVE",
"597 1144 CURVE",
"607 1154 LINE",
"607 1192 LINE",
"597 1202 LINE",
"533 1202 OFFCURVE",
"485 1199 OFFCURVE",
"444 1197 CURVE SMOOTH",
"414 1195 OFFCURVE",
"381 1194 OFFCURVE",
"353 1194 CURVE SMOOTH",
"326 1194 OFFCURVE",
"291 1195 OFFCURVE",
"253 1197 CURVE SMOOTH",
"208 1199 OFFCURVE",
"156 1202 OFFCURVE",
"103 1202 CURVE",
"93 1192 LINE",
"93 1154 LINE",
"103 1144 LINE",
"183 1144 OFFCURVE",
"228 1139 OFFCURVE",
"250 1115 CURVE SMOOTH",
"266 1097 OFFCURVE",
"273 1051 OFFCURVE",
"273 968 CURVE",
"273 227 LINE",
"273 134 OFFCURVE",
"263 112 OFFCURVE",
"233 92 CURVE SMOOTH",
"207 74 OFFCURVE",
"164 70 OFFCURVE",
"103 66 CURVE",
"93 56 LINE",
"93 18 LINE",
"103 8 LINE",
"167 8 OFFCURVE",
"215 11 OFFCURVE",
"256 13 CURVE SMOOTH",
"286 15 OFFCURVE",
"319 16 OFFCURVE",
"347 16 CURVE SMOOTH",
"374 16 OFFCURVE",
"409 15 OFFCURVE",
"446 13 CURVE SMOOTH",
"491 11 OFFCURVE",
"542 8 OFFCURVE",
"595 8 CURVE",
"605 18 LINE",
"605 56 LINE",
"595 66 LINE",
"588 66 OFFCURVE",
"582 67 OFFCURVE",
"575 67 CURVE SMOOTH",
"508 70 OFFCURVE",
"467 72 OFFCURVE",
"449 92 CURVE",
"432 113 OFFCURVE",
"427 158 OFFCURVE",
"427 218 CURVE",
"427 972 LINE"
);
}
);
userData = {
com.typemytype.robofont.mark = (
0.656,
1,
0.6,
1
);
};
width = 700;
},
{
anchors = (
{
name = top;
position = "{350, 1200}";
}
);
layerId = "25879A17-30FE-49F5-8BDD-4D78448C8558";
paths = (
{
closed = 1;
nodes = (
"437 1072 OFFCURVE",
"445 1097 OFFCURVE",
"472 1115 CURVE SMOOTH",
"496 1131 OFFCURVE",
"549 1134 OFFCURVE",
"601 1134 CURVE",
"617 1150 LINE",
"617 1196 LINE",
"601 1212 LINE",
"484 1212 OFFCURVE",
"421 1204 OFFCURVE",
"353 1204 CURVE SMOOTH",
"291 1204 OFFCURVE",
"197 1212 OFFCURVE",
"99 1212 CURVE",
"83 1196 LINE",
"83 1150 LINE",
"99 1134 LINE",
"177 1134 OFFCURVE",
"223 1130 OFFCURVE",
"243 1108 CURVE SMOOTH",
"257 1093 OFFCURVE",
"263 1049 OFFCURVE",
"263 968 CURVE SMOOTH",
"263 227 LINE SMOOTH",
"263 138 OFFCURVE",
"254 118 OFFCURVE",
"227 100 CURVE SMOOTH",
"203 84 OFFCURVE",
"161 80 OFFCURVE",
"99 76 CURVE",
"83 60 LINE",
"83 14 LINE",
"99 -2 LINE",
"216 -2 OFFCURVE",
"279 6 OFFCURVE",
"347 6 CURVE SMOOTH",
"409 6 OFFCURVE",
"501 -2 OFFCURVE",
"599 -2 CURVE",
"615 14 LINE",
"615 60 LINE",
"599 76 LINE",
"520 80 OFFCURVE",
"474 80 OFFCURVE",
"457 99 CURVE SMOOTH",
"441 118 OFFCURVE",
"437 161 OFFCURVE",
"437 218 CURVE SMOOTH",
"437 972 LINE SMOOTH"
);
}
);
width = 700;
}
);
leftKerningGroup = E;
rightKerningGroup = I;
unicode = 0049;
},
{
glyphname = J;
lastChange = "2019-05-17 22:14:23 +0000";
layers = (
{
layerId = "CA4EC710-46DE-40B5-AF89-3BCF48EEB297";
paths = (
{
closed = 1;
nodes = (
"640 1071 OFFCURVE",
"652 1103 OFFCURVE",
"679 1123 CURVE",
"705 1138 OFFCURVE",
"760 1144 OFFCURVE",
"810 1144 CURVE",
"820 1154 LINE",
"820 1192 LINE",
"810 1202 LINE",
"746 1202 OFFCURVE",
"698 1199 OFFCURVE",
"657 1197 CURVE SMOOTH",
"627 1195 OFFCURVE",
"594 1194 OFFCURVE",
"566 1194 CURVE SMOOTH",
"520 1194 OFFCURVE",
"474 1196 OFFCURVE",
"428 1198 CURVE SMOOTH",
"381 1200 OFFCURVE",
"335 1202 OFFCURVE",
"286 1202 CURVE",
"276 1192 LINE",
"276 1154 LINE",
"286 1144 LINE",
"372 1144 OFFCURVE",
"441 1139 OFFCURVE",
"463 1115 CURVE SMOOTH",
"479 1097 OFFCURVE",
"486 1051 OFFCURVE",
"486 968 CURVE",
"486 353 LINE",
"486 185 OFFCURVE",
"445 45 OFFCURVE",
"287 45 CURVE SMOOTH",
"224 45 OFFCURVE",
"164 72 OFFCURVE",
"124 129 CURVE",
"138 172 LINE",
"218 188 OFFCURVE",
"256 225 OFFCURVE",
"256 283 CURVE SMOOTH",
"256 334 OFFCURVE",
"215 368 OFFCURVE",
"161 368 CURVE SMOOTH",
"85 368 OFFCURVE",
"32 305 OFFCURVE",
"32 225 CURVE SMOOTH",
"32 159 OFFCURVE",
"65 97 OFFCURVE",
"107 55 CURVE",
"152 14 OFFCURVE",
"219 -14 OFFCURVE",
"306 -14 CURVE SMOOTH",
"540 -14 OFFCURVE",
"640 150 OFFCURVE",
"640 347 CURVE",
"640 972 LINE"
);
}
);
userData = {
com.typemytype.robofont.mark = (
0.656,
1,
0.6,
1
);
};
width = 850;
},
{
layerId = "25879A17-30FE-49F5-8BDD-4D78448C8558";
paths = (
{
closed = 1;
nodes = (
"650 1072 OFFCURVE",
"658 1097 OFFCURVE",
"685 1115 CURVE SMOOTH",
"709 1131 OFFCURVE",
"762 1134 OFFCURVE",
"814 1134 CURVE",
"830 1150 LINE",
"830 1196 LINE",
"814 1212 LINE",
"697 1212 OFFCURVE",
"634 1204 OFFCURVE",
"566 1204 CURVE SMOOTH",
"473 1204 OFFCURVE",
"380 1212 OFFCURVE",
"282 1212 CURVE",
"266 1196 LINE",
"266 1150 LINE",
"282 1134 LINE",
"366 1134 OFFCURVE",
"436 1130 OFFCURVE",
"456 1108 CURVE SMOOTH",
"470 1093 OFFCURVE",
"476 1049 OFFCURVE",
"476 968 CURVE SMOOTH",
"476 353 LINE SMOOTH",
"476 190 OFFCURVE",
"437 55 OFFCURVE",
"287 55 CURVE SMOOTH",
"227 55 OFFCURVE",
"171 79 OFFCURVE",
"135 130 CURVE",
"146 163 LINE",
"227 179 OFFCURVE",
"266 220 OFFCURVE",
"266 283 CURVE SMOOTH",
"266 340 OFFCURVE",
"221 378 OFFCURVE",
"161 378 CURVE SMOOTH",
"79 378 OFFCURVE",
"22 311 OFFCURVE",
"22 225 CURVE SMOOTH",
"22 154 OFFCURVE",
"54 92 OFFCURVE",
"100 48 CURVE SMOOTH",
"147 4 OFFCURVE",
"215 -24 OFFCURVE",
"306 -24 CURVE SMOOTH",
"547 -24 OFFCURVE",
"650 145 OFFCURVE",
"650 347 CURVE SMOOTH",
"650 972 LINE"
);
}
);
width = 850;
}
);
leftKerningGroup = J;
rightKerningGroup = U;
unicode = 004A;
},
{
glyphname = K;
lastChange = "2019-05-17 22:14:23 +0000";
layers = (
{
layerId = "CA4EC710-46DE-40B5-AF89-3BCF48EEB297";
paths = (
{
closed = 1;
nodes = (
"411 1071 OFFCURVE",
"423 1103 OFFCURVE",
"450 1123 CURVE",
"476 1138 OFFCURVE",
"531 1144 OFFCURVE",
"581 1144 CURVE",
"591 1154 LINE",
"591 1192 LINE",
"581 1202 LINE",
"517 1202 OFFCURVE",
"469 1199 OFFCURVE",
"428 1197 CURVE SMOOTH",
"398 1195 OFFCURVE",
"365 1194 OFFCURVE",
"337 1194 CURVE SMOOTH",
"310 1194 OFFCURVE",
"275 1195 OFFCURVE",
"237 1197 CURVE SMOOTH",
"192 1199 OFFCURVE",
"140 1202 OFFCURVE",
"87 1202 CURVE",
"77 1192 LINE",
"77 1154 LINE",
"87 1144 LINE",
"167 1144 OFFCURVE",
"212 1139 OFFCURVE",
"234 1115 CURVE SMOOTH",
"250 1097 OFFCURVE",
"257 1051 OFFCURVE",
"257 968 CURVE",
"257 227 LINE",
"257 134 OFFCURVE",
"247 112 OFFCURVE",
"217 92 CURVE SMOOTH",
"191 74 OFFCURVE",
"148 70 OFFCURVE",
"87 66 CURVE",
"77 56 LINE",
"77 18 LINE",
"87 8 LINE",
"151 8 OFFCURVE",
"199 11 OFFCURVE",
"240 13 CURVE SMOOTH",
"270 15 OFFCURVE",
"303 16 OFFCURVE",
"331 16 CURVE SMOOTH",
"358 16 OFFCURVE",
"393 15 OFFCURVE",
"430 13 CURVE SMOOTH",
"475 11 OFFCURVE",
"526 8 OFFCURVE",
"579 8 CURVE",
"589 18 LINE",
"589 56 LINE",
"579 66 LINE",
"572 66 OFFCURVE",
"566 67 OFFCURVE",
"559 67 CURVE SMOOTH",
"492 70 OFFCURVE",
"451 72 OFFCURVE",
"433 92 CURVE",
"416 113 OFFCURVE",
"411 158 OFFCURVE",
"411 218 CURVE",
"411 972 LINE"
);
},
{
closed = 1;
nodes = (
"1000 1041 OFFCURVE",
"1053 1082 OFFCURVE",
"1093 1104 CURVE",
"1136 1126 OFFCURVE",
"1191 1141 OFFCURVE",
"1242 1146 CURVE",
"1252 1156 LINE",
"1252 1192 LINE",
"1242 1202 LINE",
"1200 1202 OFFCURVE",
"1160 1200 OFFCURVE",
"1121 1198 CURVE",
"1122 1198 LINE",
"1086 1196 OFFCURVE",
"1050 1194 OFFCURVE",
"1018 1194 CURVE SMOOTH",
"988 1194 OFFCURVE",
"947 1196 OFFCURVE",
"905 1198 CURVE SMOOTH",
"862 1200 OFFCURVE",
"822 1202 OFFCURVE",
"788 1202 CURVE",
"778 1192 LINE",
"778 1154 LINE",
"788 1144 LINE",
"858 1144 OFFCURVE",
"902 1132 OFFCURVE",
"910 1104 CURVE",
"915 1071 OFFCURVE",
"879 1023 OFFCURVE",
"829 975 CURVE",
"332 499 LINE",
"377 443 LINE",
"939 981 LINE"
);
},
{
closed = 1;
nodes = (
"881 203 LINE",
"909 157 OFFCURVE",
"916 119 OFFCURVE",
"899 98 CURVE SMOOTH",
"878 74 OFFCURVE",
"827 71 OFFCURVE",
"767 67 CURVE",
"762 67 LINE",
"751 56 LINE",
"751 18 LINE",
"761 8 LINE",
"823 8 OFFCURVE",
"879 10 OFFCURVE",
"931 12 CURVE SMOOTH",
"975 14 OFFCURVE",
"1019 16 OFFCURVE",
"1058 16 CURVE SMOOTH",
"1089 16 OFFCURVE",
"1124 15 OFFCURVE",
"1163 13 CURVE SMOOTH",
"1209 11 OFFCURVE",
"1263 8 OFFCURVE",
"1321 8 CURVE",
"1331 18 LINE",
"1331 54 LINE",
"1321 64 LINE",
"1213 72 OFFCURVE",
"1157 102 OFFCURVE",
"1084 209 CURVE",
"701 782 LINE",
"581 674 LINE"
);
}
);
userData = {
com.typemytype.robofont.mark = (
0.656,
1,
0.6,
1
);
};
width = 1350;
},
{
layerId = "25879A17-30FE-49F5-8BDD-4D78448C8558";
paths = (
{
closed = 1;
nodes = (
"421 1072 OFFCURVE",
"429 1097 OFFCURVE",
"456 1115 CURVE SMOOTH",
"480 1131 OFFCURVE",
"533 1134 OFFCURVE",
"585 1134 CURVE",
"601 1150 LINE",
"601 1196 LINE",
"585 1212 LINE",
"468 1212 OFFCURVE",
"405 1204 OFFCURVE",
"337 1204 CURVE SMOOTH",
"275 1204 OFFCURVE",
"181 1212 OFFCURVE",
"83 1212 CURVE",
"67 1196 LINE",
"67 1150 LINE",
"83 1134 LINE",
"161 1134 OFFCURVE",
"207 1130 OFFCURVE",
"227 1108 CURVE SMOOTH",
"241 1093 OFFCURVE",
"247 1049 OFFCURVE",
"247 968 CURVE SMOOTH",
"247 227 LINE SMOOTH",
"247 138 OFFCURVE",
"238 118 OFFCURVE",
"211 100 CURVE SMOOTH",
"187 84 OFFCURVE",
"145 80 OFFCURVE",
"83 76 CURVE",
"67 60 LINE",
"67 14 LINE",
"83 -2 LINE",
"200 -2 OFFCURVE",
"263 6 OFFCURVE",
"331 6 CURVE SMOOTH",
"393 6 OFFCURVE",
"485 -2 OFFCURVE",
"583 -2 CURVE",
"599 14 LINE",
"599 60 LINE",
"583 76 LINE",
"504 80 OFFCURVE",
"458 80 OFFCURVE",
"441 99 CURVE SMOOTH",
"425 118 OFFCURVE",
"421 161 OFFCURVE",
"421 218 CURVE SMOOTH",
"421 972 LINE SMOOTH"
);
},
{
closed = 1;
nodes = (
"1013 1038 OFFCURVE",
"1054 1072 OFFCURVE",
"1098 1095 CURVE SMOOTH",
"1141 1118 OFFCURVE",
"1195 1131 OFFCURVE",
"1246 1136 CURVE",
"1262 1152 LINE",
"1262 1196 LINE",
"1246 1212 LINE",
"1164 1212 OFFCURVE",
"1086 1204 OFFCURVE",
"1018 1204 CURVE SMOOTH",
"956 1204 OFFCURVE",
"851 1212 OFFCURVE",
"784 1212 CURVE",
"768 1196 LINE",
"768 1150 LINE",
"784 1134 LINE",
"851 1134 OFFCURVE",
"895 1126 OFFCURVE",
"900 1102 CURVE SMOOTH",
"906 1074 OFFCURVE",
"871 1029 OFFCURVE",
"822 982 CURVE SMOOTH",
"318 500 LINE",
"376 429 LINE",
"946 974 LINE SMOOTH"
);
},
{
closed = 1;
nodes = (
"873 198 LINE SMOOTH",
"901 154 OFFCURVE",
"906 124 OFFCURVE",
"891 105 CURVE SMOOTH",
"871 82 OFFCURVE",
"819 80 OFFCURVE",
"757 76 CURVE",
"741 60 LINE",
"741 14 LINE",
"757 -2 LINE",
"875 -2 OFFCURVE",
"972 6 OFFCURVE",
"1058 6 CURVE SMOOTH",
"1127 6 OFFCURVE",
"1217 -2 OFFCURVE",
"1325 -2 CURVE",
"1341 14 LINE",
"1341 58 LINE",
"1325 74 LINE",
"1217 82 OFFCURVE",
"1166 103 OFFCURVE",
"1092 215 CURVE SMOOTH",
"703 797 LINE",
"568 676 LINE"
);
}
);
width = 1350;
}
);
leftKerningGroup = E;
rightKerningGroup = K;
unicode = 004B;
},
{
glyphname = L;
lastChange = "2019-05-17 22:14:23 +0000";
layers = (
{
layerId = "CA4EC710-46DE-40B5-AF89-3BCF48EEB297";
paths = (
{
closed = 1;
nodes = (
"411 1037 OFFCURVE",
"418 1089 OFFCURVE",
"450 1115 CURVE SMOOTH",
"476 1135 OFFCURVE",
"533 1142 OFFCURVE",
"617 1142 CURVE",
"627 1152 LINE",
"627 1192 LINE",
"617 1202 LINE",
"553 1202 OFFCURVE",
"493 1199 OFFCURVE",
"442 1197 CURVE SMOOTH",
"404 1195 OFFCURVE",
"365 1194 OFFCURVE",
"337 1194 CURVE SMOOTH",
"310 1194 OFFCURVE",
"275 1195 OFFCURVE",
"237 1197 CURVE SMOOTH",
"192 1199 OFFCURVE",
"140 1202 OFFCURVE",
"87 1202 CURVE",
"77 1192 LINE",
"77 1154 LINE",
"87 1144 LINE",
"167 1144 OFFCURVE",
"212 1139 OFFCURVE",
"234 1115 CURVE SMOOTH",
"250 1097 OFFCURVE",
"257 1051 OFFCURVE",
"257 968 CURVE",
"257 225 LINE",
"257 132 OFFCURVE",
"247 110 OFFCURVE",
"217 90 CURVE SMOOTH",
"191 72 OFFCURVE",
"148 68 OFFCURVE",
"87 64 CURVE",
"77 54 LINE",
"77 16 LINE",
"87 6 LINE",
"152 6 OFFCURVE",
"200 7 OFFCURVE",
"241 8 CURVE SMOOTH",
"272 9 OFFCURVE",
"303 10 OFFCURVE",
"331 10 CURVE",
"624 10 LINE",
"758 10 OFFCURVE",
"888 6 OFFCURVE",
"1023 2 CURVE",
"1033 12 LINE",
"1037 157 OFFCURVE",
"1054 327 OFFCURVE",
"1077 470 CURVE",
"1068 479 LINE",
"1027 479 LINE",
"1015 469 LINE",
"924 147 OFFCURVE",
"877 70 OFFCURVE",
"596 70 CURVE SMOOTH",
"507 70 OFFCURVE",
"457 76 OFFCURVE",
"434 105 CURVE SMOOTH",
"413 131 OFFCURVE",
"411 167 OFFCURVE",
"411 301 CURVE",
"411 954 LINE"
);
}
);
userData = {
com.typemytype.robofont.mark = (
0.656,
1,
0.6,
1
);
};
width = 1150;
},
{
layerId = "25879A17-30FE-49F5-8BDD-4D78448C8558";
paths = (
{
closed = 1;
nodes = (
"421 1034 OFFCURVE",
"427 1084 OFFCURVE",
"456 1107 CURVE SMOOTH",
"480 1126 OFFCURVE",
"538 1132 OFFCURVE",
"621 1132 CURVE",
"637 1148 LINE",
"637 1196 LINE",
"621 1212 LINE",
"504 1212 OFFCURVE",
"405 1204 OFFCURVE",
"337 1204 CURVE SMOOTH",
"275 1204 OFFCURVE",
"181 1212 OFFCURVE",
"83 1212 CURVE",
"67 1196 LINE",
"67 1150 LINE",
"83 1134 LINE",
"161 1134 OFFCURVE",
"207 1130 OFFCURVE",
"227 1108 CURVE SMOOTH",
"241 1093 OFFCURVE",
"247 1049 OFFCURVE",
"247 968 CURVE SMOOTH",
"247 225 LINE SMOOTH",
"247 136 OFFCURVE",
"238 116 OFFCURVE",
"211 98 CURVE SMOOTH",
"187 82 OFFCURVE",
"145 78 OFFCURVE",
"83 74 CURVE",
"67 58 LINE",
"67 12 LINE",
"83 -4 LINE",
"200 -4 OFFCURVE",
"263 0 OFFCURVE",
"331 0 CURVE SMOOTH",
"624 0 LINE SMOOTH",
"758 0 OFFCURVE",
"892 -4 OFFCURVE",
"1027 -8 CURVE",
"1043 8 LINE",
"1047 153 OFFCURVE",
"1065 327 OFFCURVE",
"1088 473 CURVE",
"1072 489 LINE",
"1024 489 LINE",
"1006 475 LINE",
"916 158 OFFCURVE",
"870 80 OFFCURVE",
"596 80 CURVE SMOOTH",
"510 80 OFFCURVE",
"463 85 OFFCURVE",
"442 111 CURVE SMOOTH",
"423 135 OFFCURVE",
"421 170 OFFCURVE",
"421 301 CURVE SMOOTH",
"421 954 LINE SMOOTH"
);
}
);
width = 1150;
}
);
leftKerningGroup = E;
rightKerningGroup = L;
unicode = 004C;
},
{
glyphname = M;
lastChange = "2019-05-17 22:14:23 +0000";
layers = (
{
layerId = "CA4EC710-46DE-40B5-AF89-3BCF48EEB297";
paths = (
{
closed = 1;
nodes = (
"1123 74 OFFCURVE",
"1080 70 OFFCURVE",
"1019 66 CURVE",
"1009 56 LINE",
"1009 18 LINE",
"1019 8 LINE",
"1083 8 OFFCURVE",
"1131 11 OFFCURVE",
"1172 13 CURVE SMOOTH",
"1202 15 OFFCURVE",
"1235 16 OFFCURVE",
"1263 16 CURVE SMOOTH",
"1290 16 OFFCURVE",
"1325 15 OFFCURVE",
"1362 13 CURVE SMOOTH",
"1407 11 OFFCURVE",
"1458 8 OFFCURVE",
"1511 8 CURVE",
"1521 18 LINE",
"1521 56 LINE",
"1511 66 LINE",
"1504 66 OFFCURVE",
"1498 67 OFFCURVE",
"1491 67 CURVE SMOOTH",
"1424 70 OFFCURVE",
"1383 72 OFFCURVE",
"1365 92 CURVE",
"1348 113 OFFCURVE",
"1343 158 OFFCURVE",
"1343 218 CURVE",
"1343 972 LINE",
"1343 1071 OFFCURVE",
"1355 1103 OFFCURVE",
"1382 1123 CURVE",
"1408 1138 OFFCURVE",
"1463 1144 OFFCURVE",
"1513 1144 CURVE",
"1523 1154 LINE",
"1523 1192 LINE",
"1513 1202 LINE",
"1449 1202 OFFCURVE",
"1401 1199 OFFCURVE",
"1360 1197 CURVE SMOOTH",
"1330 1195 OFFCURVE",
"1297 1194 OFFCURVE",
"1269 1194 CURVE",
"1127 1194 LINE",
"1115 1186 LINE",
"1088 1092 OFFCURVE",
"1067 1025 OFFCURVE",
"1038 945 CURVE",
"809 298 LINE",
"552 975 LINE",
"525 1047 OFFCURVE",
"501 1121 OFFCURVE",
"483 1185 CURVE",
"479 1188 OFFCURVE",
"475 1190 OFFCURVE",
"471 1194 CURVE",
"306 1194 LINE",
"273 1194 OFFCURVE",
"236 1196 OFFCURVE",
"199 1198 CURVE SMOOTH",
"161 1200 OFFCURVE",
"128 1202 OFFCURVE",
"92 1202 CURVE",
"82 1192 LINE",
"82 1154 LINE",
"92 1144 LINE",
"170 1144 OFFCURVE",
"221 1132 OFFCURVE",
"239 1110 CURVE SMOOTH",
"257 1088 OFFCURVE",
"262 1040 OFFCURVE",
"262 950 CURVE",
"262 316 LINE",
"262 181 OFFCURVE",
"240 142 OFFCURVE",
"216 114 CURVE SMOOTH",
"196 91 OFFCURVE",
"157 72 OFFCURVE",
"92 66 CURVE",
"82 56 LINE",
"82 18 LINE",
"92 8 LINE",
"118 8 OFFCURVE",
"145 10 OFFCURVE",
"175 12 CURVE SMOOTH",
"212 14 OFFCURVE",
"253 16 OFFCURVE",
"295 16 CURVE SMOOTH",
"322 16 OFFCURVE",
"356 14 OFFCURVE",
"391 12 CURVE SMOOTH",
"428 10 OFFCURVE",
"461 8 OFFCURVE",
"492 8 CURVE",
"502 18 LINE",
"502 56 LINE",
"492 66 LINE",
"418 72 OFFCURVE",
"389 88 OFFCURVE",
"371 110 CURVE SMOOTH",
"349 138 OFFCURVE",
"332 172 OFFCURVE",
"332 308 CURVE",
"332 1111 LINE",
"423 873 OFFCURVE",
"515 636 OFFCURVE",
"605 399 CURVE SMOOTH",
"658 258 OFFCURVE",
"699 134 OFFCURVE",
"726 11 CURVE",
"737 0 LINE",
"799 0 LINE",
"809 10 LINE",
"824 108 OFFCURVE",
"851 212 OFFCURVE",
"892 327 CURVE",
"1189 1168 LINE",
"1189 227 LINE",
"1189 134 OFFCURVE",
"1179 112 OFFCURVE",
"1149 92 CURVE SMOOTH"
);
},
{
closed = 1;
nodes = (
"300 1176 LINE",
"300 1093 LINE",
"384 1093 LINE",
"341 1176 LINE"
);
},
{
closed = 1;
nodes = (
"1208 1125 LINE",
"1208 1189 LINE",
"1166 1189 LINE",
"1124 1125 LINE"
);
}
);
userData = {
com.typemytype.robofont.guides = (
{
angle = 0;
isGlobal = 0;
magnetic = 5;
x = 0;
y = 1028;
}
);
com.typemytype.robofont.mark = (
0.656,
1,
0.6,
1
);
};
width = 1600;
},
{
layerId = "25879A17-30FE-49F5-8BDD-4D78448C8558";
paths = (
{
closed = 1;
nodes = (
"1179 227 LINE SMOOTH",
"1179 138 OFFCURVE",
"1170 118 OFFCURVE",
"1143 100 CURVE SMOOTH",
"1119 84 OFFCURVE",
"1077 80 OFFCURVE",
"1015 76 CURVE",
"999 60 LINE",
"999 14 LINE",
"1015 -2 LINE",
"1132 -2 OFFCURVE",
"1195 6 OFFCURVE",
"1263 6 CURVE SMOOTH",
"1325 6 OFFCURVE",
"1417 -2 OFFCURVE",
"1515 -2 CURVE",
"1531 14 LINE",
"1531 60 LINE",
"1515 76 LINE",
"1436 80 OFFCURVE",
"1390 80 OFFCURVE",
"1373 99 CURVE SMOOTH",
"1357 118 OFFCURVE",
"1353 161 OFFCURVE",
"1353 218 CURVE SMOOTH",
"1353 972 LINE SMOOTH",
"1353 1072 OFFCURVE",
"1361 1097 OFFCURVE",
"1388 1115 CURVE SMOOTH",
"1412 1131 OFFCURVE",
"1465 1134 OFFCURVE",
"1517 1134 CURVE",
"1533 1150 LINE",
"1533 1196 LINE",
"1517 1212 LINE",
"1400 1212 OFFCURVE",
"1337 1204 OFFCURVE",
"1269 1204 CURVE SMOOTH",
"1124 1204 LINE",
"1106 1192 LINE",
"1079 1097 OFFCURVE",
"1058 1029 OFFCURVE",
"1029 948 CURVE SMOOTH",
"789 270 LINE",
"830 270 LINE",
"561 979 LINE SMOOTH",
"534 1050 OFFCURVE",
"511 1120 OFFCURVE",
"492 1191 CURVE",
"473 1204 LINE",
"306 1204 LINE SMOOTH",
"239 1204 OFFCURVE",
"159 1212 OFFCURVE",
"88 1212 CURVE",
"72 1196 LINE",
"72 1150 LINE",
"88 1134 LINE",
"166 1134 OFFCURVE",
"215 1123 OFFCURVE",
"231 1104 CURVE SMOOTH",
"247 1084 OFFCURVE",
"252 1038 OFFCURVE",
"252 950 CURVE SMOOTH",
"252 316 LINE SMOOTH",
"252 186 OFFCURVE",
"231 148 OFFCURVE",
"208 121 CURVE SMOOTH",
"189 99 OFFCURVE",
"151 82 OFFCURVE",
"88 76 CURVE",
"72 60 LINE",
"72 14 LINE",
"88 -2 LINE",
"146 -2 OFFCURVE",
"217 6 OFFCURVE",
"295 6 CURVE SMOOTH",
"350 6 OFFCURVE",
"435 -2 OFFCURVE",
"496 -2 CURVE",
"512 14 LINE",
"512 60 LINE",
"496 76 LINE",
"424 82 OFFCURVE",
"395 96 OFFCURVE",
"379 116 CURVE SMOOTH",
"358 143 OFFCURVE",
"342 176 OFFCURVE",
"342 308 CURVE SMOOTH",
"342 1168 LINE",
"300 1168 LINE",
"596 395 LINE SMOOTH",
"649 255 OFFCURVE",
"690 132 OFFCURVE",
"717 6 CURVE",
"733 -10 LINE",
"803 -10 LINE",
"819 6 LINE",
"834 106 OFFCURVE",
"861 210 OFFCURVE",
"901 324 CURVE SMOOTH",
"1208 1192 LINE",
"1179 1192 LINE"
);
},
{
closed = 1;
nodes = (
"290 1186 LINE",
"290 1028 LINE",
"398 1028 LINE",
"349 1186 LINE"
);
},
{
closed = 1;
nodes = (
"1218 1050 LINE",
"1218 1199 LINE",
"1159 1199 LINE",
"1110 1050 LINE"
);
}
);
width = 1600;
}
);
leftKerningGroup = E;
rightKerningGroup = I;
unicode = 004D;
},
{
glyphname = N;
lastChange = "2019-05-17 22:14:23 +0000";
layers = (
{
layerId = "CA4EC710-46DE-40B5-AF89-3BCF48EEB297";
paths = (
{
closed = 1;
nodes = (
"427 1194 LINE",
"312 1194 LINE",
"279 1194 OFFCURVE",
"242 1196 OFFCURVE",
"205 1198 CURVE SMOOTH",
"167 1200 OFFCURVE",
"134 1202 OFFCURVE",
"98 1202 CURVE",
"88 1192 LINE",
"88 1154 LINE",
"98 1144 LINE",
"176 1144 OFFCURVE",
"227 1132 OFFCURVE",
"245 1110 CURVE SMOOTH",
"263 1088 OFFCURVE",
"268 1040 OFFCURVE",
"268 950 CURVE",
"268 327 LINE",
"268 161 OFFCURVE",
"252 83 OFFCURVE",
"98 66 CURVE",
"88 56 LINE",
"88 18 LINE",
"98 8 LINE",
"126 8 OFFCURVE",
"160 10 OFFCURVE",
"195 12 CURVE SMOOTH",
"232 14 OFFCURVE",
"271 16 OFFCURVE",
"301 16 CURVE SMOOTH",
"334 16 OFFCURVE",
"366 14 OFFCURVE",
"400 12 CURVE SMOOTH",
"437 10 OFFCURVE",
"478 8 OFFCURVE",
"526 8 CURVE",
"536 18 LINE",
"536 56 LINE",
"526 66 LINE",
"440 72 OFFCURVE",
"402 91 OFFCURVE",
"378 121 CURVE SMOOTH",
"356 148 OFFCURVE",
"338 198 OFFCURVE",
"338 317 CURVE",
"338 1046 LINE",
"785 380 LINE",
"863 262 OFFCURVE",
"968 103 OFFCURVE",
"1024 -5 CURVE",
"1036 -13 LINE",
"1128 -13 LINE",
"1138 -3 LINE",
"1135 66 OFFCURVE",
"1132 138 OFFCURVE",
"1132 219 CURVE",
"1132 892 LINE",
"1132 1028 OFFCURVE",
"1156 1067 OFFCURVE",
"1177 1091 CURVE SMOOTH",
"1196 1112 OFFCURVE",
"1232 1136 OFFCURVE",
"1302 1144 CURVE",
"1312 1154 LINE",
"1312 1192 LINE",
"1302 1202 LINE",
"1263 1202 OFFCURVE",
"1228 1200 OFFCURVE",
"1193 1198 CURVE SMOOTH",
"1161 1196 OFFCURVE",
"1124 1194 OFFCURVE",
"1093 1194 CURVE SMOOTH",
"1053 1194 OFFCURVE",
"1013 1196 OFFCURVE",
"975 1198 CURVE SMOOTH",
"938 1200 OFFCURVE",
"907 1202 OFFCURVE",
"872 1202 CURVE",
"862 1192 LINE",
"862 1154 LINE",
"872 1144 LINE",
"962 1138 OFFCURVE",
"998 1120 OFFCURVE",
"1022 1089 CURVE SMOOTH",
"1043 1061 OFFCURVE",
"1062 1015 OFFCURVE",
"1062 893 CURVE",
"1062 250 LINE",
"649 866 LINE",
"565 992 OFFCURVE",
"507 1085 OFFCURVE",
"444 1186 CURVE"
);
}
);
userData = {
com.typemytype.robofont.mark = (
0.656,
1,
0.6,
1
);
};
width = 1400;
},
{
layerId = "25879A17-30FE-49F5-8BDD-4D78448C8558";
paths = (
{
closed = 1;
nodes = (
"1105 204 LINE",
"657 872 LINE SMOOTH",
"573 998 OFFCURVE",
"513 1093 OFFCURVE",
"450 1194 CURVE",
"429 1204 LINE",
"312 1204 LINE SMOOTH",
"245 1204 OFFCURVE",
"165 1212 OFFCURVE",
"94 1212 CURVE",
"78 1196 LINE",
"78 1150 LINE",
"94 1134 LINE",
"172 1134 OFFCURVE",
"221 1123 OFFCURVE",
"237 1104 CURVE SMOOTH",
"253 1084 OFFCURVE",
"258 1038 OFFCURVE",
"258 950 CURVE SMOOTH",
"258 327 LINE SMOOTH",
"258 166 OFFCURVE",
"241 92 OFFCURVE",
"94 76 CURVE",
"78 60 LINE",
"78 14 LINE",
"94 -2 LINE",
"152 -2 OFFCURVE",
"241 6 OFFCURVE",
"301 6 CURVE SMOOTH",
"371 6 OFFCURVE",
"437 -2 OFFCURVE",
"530 -2 CURVE",
"546 14 LINE",
"546 60 LINE",
"530 76 LINE",
"444 82 OFFCURVE",
"408 99 OFFCURVE",
"386 127 CURVE SMOOTH",
"365 152 OFFCURVE",
"348 198 OFFCURVE",
"348 317 CURVE SMOOTH",
"348 1065 LINE",
"313 1065 LINE",
"777 374 LINE SMOOTH",
"855 257 OFFCURVE",
"958 101 OFFCURVE",
"1015 -10 CURVE",
"1033 -23 LINE",
"1132 -23 LINE",
"1148 -7 LINE",
"1145 63 OFFCURVE",
"1142 137 OFFCURVE",
"1142 219 CURVE SMOOTH",
"1142 892 LINE SMOOTH",
"1142 1027 OFFCURVE",
"1165 1063 OFFCURVE",
"1185 1085 CURVE SMOOTH",
"1202 1105 OFFCURVE",
"1235 1128 OFFCURVE",
"1306 1134 CURVE",
"1322 1150 LINE",
"1322 1196 LINE",
"1306 1212 LINE",
"1228 1212 OFFCURVE",
"1161 1204 OFFCURVE",
"1093 1204 CURVE SMOOTH",
"1015 1204 OFFCURVE",
"940 1212 OFFCURVE",
"868 1212 CURVE",
"852 1196 LINE",
"852 1150 LINE",
"868 1134 LINE",
"956 1128 OFFCURVE",
"992 1111 OFFCURVE",
"1014 1083 CURVE SMOOTH",
"1034 1057 OFFCURVE",
"1052 1012 OFFCURVE",
"1052 893 CURVE SMOOTH",
"1052 143 LINE"
);
}
);
width = 1400;
}
);
leftKerningGroup = E;
rightKerningGroup = N;
unicode = 004E;
},
{
glyphname = O;
lastChange = "2019-05-17 22:14:23 +0000";
layers = (
{
anchors = (
{
name = top;
position = "{600, 1200}";
}
);
layerId = "CA4EC710-46DE-40B5-AF89-3BCF48EEB297";
paths = (
{
closed = 1;
nodes = (
"85 238 OFFCURVE",
"316 -20 OFFCURVE",
"600 -20 CURVE SMOOTH",
"884 -20 OFFCURVE",
"1115 236 OFFCURVE",
"1115 605 CURVE SMOOTH",
"1115 975 OFFCURVE",
"884 1230 OFFCURVE",
"600 1230 CURVE SMOOTH",
"316 1230 OFFCURVE",
"85 975 OFFCURVE",
"85 604 CURVE SMOOTH"
);
},
{
closed = 1;
nodes = (
"266 913 OFFCURVE",
"336 1166 OFFCURVE",
"600 1166 CURVE SMOOTH",
"864 1166 OFFCURVE",
"934 913 OFFCURVE",
"934 605 CURVE SMOOTH",
"934 297 OFFCURVE",
"864 44 OFFCURVE",
"600 44 CURVE SMOOTH",
"336 44 OFFCURVE",
"266 297 OFFCURVE",
"266 605 CURVE SMOOTH"
);
}
);
userData = {
com.typemytype.robofont.mark = (
0.656,
1,
0.6,
1
);
};
width = 1200;
},
{
anchors = (
{
name = top;
position = "{600, 1200}";
}
);
layerId = "25879A17-30FE-49F5-8BDD-4D78448C8558";
paths = (
{
closed = 1;
nodes = (
"75 232 OFFCURVE",
"310 -30 OFFCURVE",
"600 -30 CURVE SMOOTH",
"890 -30 OFFCURVE",
"1125 230 OFFCURVE",
"1125 605 CURVE SMOOTH",
"1125 981 OFFCURVE",
"890 1240 OFFCURVE",
"600 1240 CURVE SMOOTH",
"310 1240 OFFCURVE",
"75 981 OFFCURVE",
"75 604 CURVE SMOOTH"
);
},
{
closed = 1;
nodes = (
"276 908 OFFCURVE",
"344 1156 OFFCURVE",
"600 1156 CURVE SMOOTH",
"856 1156 OFFCURVE",
"924 908 OFFCURVE",
"924 605 CURVE SMOOTH",
"924 302 OFFCURVE",
"856 54 OFFCURVE",
"600 54 CURVE SMOOTH",
"344 54 OFFCURVE",
"276 302 OFFCURVE",
"276 605 CURVE SMOOTH"
);
}
);
width = 1200;
}
);
leftKerningGroup = O;
rightKerningGroup = O;
unicode = 004F;
},
{
glyphname = P;
lastChange = "2019-05-17 22:14:23 +0000";
layers = (
{
layerId = "CA4EC710-46DE-40B5-AF89-3BCF48EEB297";
paths = (
{
closed = 1;
nodes = (
"887 553 OFFCURVE",
"1057 684 OFFCURVE",
"1057 886 CURVE SMOOTH",
"1057 1081 OFFCURVE",
"911 1208 OFFCURVE",
"647 1208 CURVE SMOOTH",
"586 1208 OFFCURVE",
"527 1204 OFFCURVE",
"472 1200 CURVE SMOOTH",
"424 1197 OFFCURVE",
"379 1194 OFFCURVE",
"340 1194 CURVE SMOOTH",
"306 1194 OFFCURVE",
"265 1196 OFFCURVE",
"228 1199 CURVE SMOOTH",
"184 1202 OFFCURVE",
"138 1206 OFFCURVE",
"87 1206 CURVE",
"77 1196 LINE",
"77 1158 LINE",
"87 1148 LINE",
"167 1148 OFFCURVE",
"212 1143 OFFCURVE",
"234 1119 CURVE SMOOTH",
"250 1101 OFFCURVE",
"257 1055 OFFCURVE",
"257 972 CURVE",
"257 236 LINE",
"257 139 OFFCURVE",
"247 112 OFFCURVE",
"217 92 CURVE SMOOTH",
"191 74 OFFCURVE",
"148 70 OFFCURVE",
"87 66 CURVE",
"77 56 LINE",
"77 18 LINE",
"87 8 LINE",
"150 8 OFFCURVE",
"195 11 OFFCURVE",
"237 13 CURVE SMOOTH",
"271 15 OFFCURVE",
"309 16 OFFCURVE",
"344 16 CURVE SMOOTH",
"380 16 OFFCURVE",
"422 14 OFFCURVE",
"468 12 CURVE SMOOTH",
"523 9 OFFCURVE",
"579 6 OFFCURVE",
"639 6 CURVE",
"649 16 LINE",
"649 56 LINE",
"639 66 LINE",
"515 70 OFFCURVE",
"462 79 OFFCURVE",
"441 96 CURVE SMOOTH",
"419 114 OFFCURVE",
"411 158 OFFCURVE",
"411 218 CURVE",
"411 553 LINE",
"617 553 LINE"
);
},
{
closed = 1;
nodes = (
"411 949 OFFCURVE",
"411 1056 OFFCURVE",
"432 1098 CURVE SMOOTH",
"453 1142 OFFCURVE",
"530 1148 OFFCURVE",
"598 1148 CURVE SMOOTH",
"810 1148 OFFCURVE",
"887 1044 OFFCURVE",
"887 885 CURVE SMOOTH",
"887 736 OFFCURVE",
"821 613 OFFCURVE",
"601 613 CURVE",
"411 613 LINE",
"411 874 LINE"
);
}
);
userData = {
com.typemytype.robofont.mark = (
0.656,
1,
0.6,
1
);
};
width = 1150;
},
{
layerId = "25879A17-30FE-49F5-8BDD-4D78448C8558";
paths = (
{
closed = 1;
nodes = (
"893 543 OFFCURVE",
"1067 678 OFFCURVE",
"1067 886 CURVE SMOOTH",
"1067 1087 OFFCURVE",
"917 1218 OFFCURVE",
"647 1218 CURVE SMOOTH",
"534 1218 OFFCURVE",
"424 1204 OFFCURVE",
"340 1204 CURVE SMOOTH",
"265 1204 OFFCURVE",
"181 1216 OFFCURVE",
"83 1216 CURVE",
"67 1200 LINE",
"67 1154 LINE",
"83 1138 LINE",
"161 1138 OFFCURVE",
"207 1134 OFFCURVE",
"227 1112 CURVE SMOOTH",
"241 1097 OFFCURVE",
"247 1053 OFFCURVE",
"247 972 CURVE SMOOTH",
"247 236 LINE SMOOTH",
"247 143 OFFCURVE",
"238 118 OFFCURVE",
"211 100 CURVE SMOOTH",
"187 84 OFFCURVE",
"145 80 OFFCURVE",
"83 76 CURVE",
"67 60 LINE",
"67 14 LINE",
"83 -2 LINE",
"200 -2 OFFCURVE",
"263 6 OFFCURVE",
"344 6 CURVE SMOOTH",
"422 6 OFFCURVE",
"533 -4 OFFCURVE",
"643 -4 CURVE",
"659 12 LINE",
"659 60 LINE",
"643 76 LINE",
"520 80 OFFCURVE",
"466 88 OFFCURVE",
"447 104 CURVE SMOOTH",
"428 120 OFFCURVE",
"421 161 OFFCURVE",
"421 218 CURVE SMOOTH",
"421 874 LINE SMOOTH",
"421 948 OFFCURVE",
"421 1054 OFFCURVE",
"441 1094 CURVE SMOOTH",
"460 1133 OFFCURVE",
"533 1138 OFFCURVE",
"598 1138 CURVE SMOOTH",
"803 1138 OFFCURVE",
"877 1038 OFFCURVE",
"877 885 CURVE SMOOTH",
"877 741 OFFCURVE",
"813 623 OFFCURVE",
"601 623 CURVE SMOOTH",
"362 623 LINE",
"362 543 LINE",
"617 543 LINE SMOOTH"
);
}
);
width = 1150;
}
);
leftKerningGroup = E;
unicode = 0050;
},
{
glyphname = Q;
lastChange = "2019-05-17 22:14:23 +0000";
layers = (
{
components = (
{
name = O;
}
);
layerId = "CA4EC710-46DE-40B5-AF89-3BCF48EEB297";
paths = (
{
closed = 1;
nodes = (
"473 64 OFFCURVE",
"454 109 OFFCURVE",
"454 161 CURVE SMOOTH",
"454 230 OFFCURVE",
"495 278 OFFCURVE",
"557 278 CURVE SMOOTH",
"655 278 OFFCURVE",
"658 188 OFFCURVE",
"661 68 CURVE SMOOTH",
"662 28 OFFCURVE",
"663 -19 OFFCURVE",
"668 -64 CURVE",
"688 -221 OFFCURVE",
"779 -287 OFFCURVE",
"902 -287 CURVE SMOOTH",
"1030 -287 OFFCURVE",
"1163 -209 OFFCURVE",
"1161 28 CURVE",
"1151 38 LINE",
"1112 38 LINE",
"1102 28 LINE",
"1099 -120 OFFCURVE",
"1036 -199 OFFCURVE",
"945 -199 CURVE SMOOTH",
"863 -199 OFFCURVE",
"808 -140 OFFCURVE",
"797 45 CURVE SMOOTH",
"786 225 OFFCURVE",
"721 336 OFFCURVE",
"577 336 CURVE SMOOTH",
"473 336 OFFCURVE",
"396 276 OFFCURVE",
"396 169 CURVE SMOOTH",
"396 133 OFFCURVE",
"408 85 OFFCURVE",
"437 41 CURVE",
"533 49 LINE"
);
}
);
userData = {
com.typemytype.robofont.guides = (
{
angle = 90;
isGlobal = 0;
magnetic = 5;
x = 600;
y = 0;
}
);
com.typemytype.robofont.mark = (
0.6,
0.609,
1,
1
);
};
width = 1200;
},
{
components = (
{
name = O;
}
);
layerId = "25879A17-30FE-49F5-8BDD-4D78448C8558";
paths = (
{
closed = 1;
nodes = (
"505 54 OFFCURVE",
"464 90 OFFCURVE",
"464 161 CURVE SMOOTH",
"464 224 OFFCURVE",
"501 268 OFFCURVE",
"557 268 CURVE SMOOTH",
"678 268 OFFCURVE",
"638 109 OFFCURVE",
"658 -65 CURVE SMOOTH",
"677 -234 OFFCURVE",
"772 -297 OFFCURVE",
"902 -297 CURVE SMOOTH",
"1035 -297 OFFCURVE",
"1174 -214 OFFCURVE",
"1171 32 CURVE",
"1155 48 LINE",
"1108 48 LINE",
"1092 32 LINE",
"1090 -112 OFFCURVE",
"1031 -189 OFFCURVE",
"945 -189 CURVE SMOOTH",
"869 -189 OFFCURVE",
"818 -132 OFFCURVE",
"807 46 CURVE SMOOTH",
"796 232 OFFCURVE",
"727 346 OFFCURVE",
"577 346 CURVE SMOOTH",
"430 346 OFFCURVE",
"335 232 OFFCURVE",
"415 40 CURVE",
"600 54 LINE"
);
}
);
width = 1200;
}
);
leftKerningGroup = O;
rightKerningGroup = O;
unicode = 0051;
},
{
glyphname = R;
lastChange = "2019-05-17 22:14:23 +0000";
layers = (
{
layerId = "CA4EC710-46DE-40B5-AF89-3BCF48EEB297";
paths = (
{
closed = 1;
nodes = (
"839 36 OFFCURVE",
"916 -12 OFFCURVE",
"1007 -12 CURVE SMOOTH",
"1126 -12 OFFCURVE",
"1199 72 OFFCURVE",
"1196 274 CURVE",
"1186 284 LINE",
"1147 284 LINE",
"1137 274 LINE",
"1134 128 OFFCURVE",
"1109 84 OFFCURVE",
"1055 84 CURVE SMOOTH",
"1020 84 OFFCURVE",
"998 108 OFFCURVE",
"988 170 CURVE SMOOTH",
"983 206 OFFCURVE",
"982 243 OFFCURVE",
"981 278 CURVE SMOOTH",
"980 311 OFFCURVE",
"979 344 OFFCURVE",
"973 379 CURVE SMOOTH",
"945 557 OFFCURVE",
"820 628 OFFCURVE",
"663 644 CURVE",
"902 654 OFFCURVE",
"1058 754 OFFCURVE",
"1058 918 CURVE SMOOTH",
"1058 1083 OFFCURVE",
"925 1208 OFFCURVE",
"647 1208 CURVE SMOOTH",
"586 1208 OFFCURVE",
"527 1204 OFFCURVE",
"472 1200 CURVE SMOOTH",
"424 1197 OFFCURVE",
"379 1194 OFFCURVE",
"340 1194 CURVE SMOOTH",
"306 1194 OFFCURVE",
"265 1196 OFFCURVE",
"228 1199 CURVE SMOOTH",
"184 1202 OFFCURVE",
"138 1206 OFFCURVE",
"87 1206 CURVE",
"77 1196 LINE",
"77 1158 LINE",
"87 1148 LINE",
"167 1148 OFFCURVE",
"212 1143 OFFCURVE",
"234 1119 CURVE SMOOTH",
"250 1101 OFFCURVE",
"257 1055 OFFCURVE",
"257 972 CURVE",
"257 227 LINE",
"257 134 OFFCURVE",
"247 112 OFFCURVE",
"217 92 CURVE SMOOTH",
"191 74 OFFCURVE",
"148 70 OFFCURVE",
"87 66 CURVE",
"77 56 LINE",
"77 18 LINE",
"87 8 LINE",
"151 8 OFFCURVE",
"199 11 OFFCURVE",
"240 13 CURVE SMOOTH",
"270 15 OFFCURVE",
"303 16 OFFCURVE",
"331 16 CURVE SMOOTH",
"358 16 OFFCURVE",
"391 15 OFFCURVE",
"428 13 CURVE SMOOTH",
"475 11 OFFCURVE",
"530 8 OFFCURVE",
"589 8 CURVE",
"599 18 LINE",
"599 56 LINE",
"589 66 LINE",
"504 68 OFFCURVE",
"452 70 OFFCURVE",
"433 92 CURVE SMOOTH",
"416 113 OFFCURVE",
"411 158 OFFCURVE",
"411 218 CURVE",
"411 615 LINE",
"534 615 LINE",
"716 615 OFFCURVE",
"786 567 OFFCURVE",
"806 416 CURVE SMOOTH",
"811 376 OFFCURVE",
"812 332 OFFCURVE",
"813 286 CURVE SMOOTH",
"814 235 OFFCURVE",
"816 183 OFFCURVE",
"823 134 CURVE"
);
},
{
closed = 1;
nodes = (
"411 949 OFFCURVE",
"411 1056 OFFCURVE",
"432 1098 CURVE SMOOTH",
"453 1142 OFFCURVE",
"530 1148 OFFCURVE",
"598 1148 CURVE SMOOTH",
"809 1148 OFFCURVE",
"883 1030 OFFCURVE",
"883 915 CURVE SMOOTH",
"883 793 OFFCURVE",
"807 675 OFFCURVE",
"582 675 CURVE",
"411 675 LINE",
"411 874 LINE"
);
}
);
userData = {
com.typemytype.robofont.mark = (
0.656,
1,
0.6,
1
);
};
width = 1250;
},
{
layerId = "25879A17-30FE-49F5-8BDD-4D78448C8558";
paths = (
{
closed = 1;
nodes = (
"830 29 OFFCURVE",
"911 -22 OFFCURVE",
"1007 -22 CURVE SMOOTH",
"1134 -22 OFFCURVE",
"1210 66 OFFCURVE",
"1206 278 CURVE",
"1190 294 LINE",
"1143 294 LINE",
"1127 278 LINE",
"1124 137 OFFCURVE",
"1103 94 OFFCURVE",
"1055 94 CURVE SMOOTH",
"1026 94 OFFCURVE",
"1007 116 OFFCURVE",
"998 172 CURVE SMOOTH",
"987 246 OFFCURVE",
"994 313 OFFCURVE",
"983 381 CURVE SMOOTH",
"950 593 OFFCURVE",
"784 657 OFFCURVE",
"588 657 CURVE",
"622 633 LINE",
"890 633 OFFCURVE",
"1068 739 OFFCURVE",
"1068 918 CURVE SMOOTH",
"1068 1089 OFFCURVE",
"932 1218 OFFCURVE",
"647 1218 CURVE SMOOTH",
"534 1218 OFFCURVE",
"424 1204 OFFCURVE",
"340 1204 CURVE SMOOTH",
"265 1204 OFFCURVE",
"181 1216 OFFCURVE",
"83 1216 CURVE",
"67 1200 LINE",
"67 1154 LINE",
"83 1138 LINE",
"161 1138 OFFCURVE",
"207 1134 OFFCURVE",
"227 1112 CURVE SMOOTH",
"241 1097 OFFCURVE",
"247 1053 OFFCURVE",
"247 972 CURVE SMOOTH",
"247 227 LINE SMOOTH",
"247 138 OFFCURVE",
"238 118 OFFCURVE",
"211 100 CURVE SMOOTH",
"187 84 OFFCURVE",
"145 80 OFFCURVE",
"83 76 CURVE",
"67 60 LINE",
"67 14 LINE",
"83 -2 LINE",
"200 -2 OFFCURVE",
"263 6 OFFCURVE",
"331 6 CURVE SMOOTH",
"393 6 OFFCURVE",
"485 -2 OFFCURVE",
"593 -2 CURVE",
"609 14 LINE",
"609 60 LINE",
"593 76 LINE",
"511 78 OFFCURVE",
"458 80 OFFCURVE",
"441 99 CURVE SMOOTH",
"425 118 OFFCURVE",
"421 161 OFFCURVE",
"421 218 CURVE SMOOTH",
"421 874 LINE SMOOTH",
"421 948 OFFCURVE",
"421 1054 OFFCURVE",
"441 1094 CURVE SMOOTH",
"460 1133 OFFCURVE",
"533 1138 OFFCURVE",
"598 1138 CURVE SMOOTH",
"802 1138 OFFCURVE",
"873 1025 OFFCURVE",
"873 915 CURVE SMOOTH",
"873 798 OFFCURVE",
"800 685 OFFCURVE",
"582 685 CURVE SMOOTH",
"362 685 LINE",
"362 605 LINE",
"534 605 LINE SMOOTH",
"709 605 OFFCURVE",
"777 559 OFFCURVE",
"796 415 CURVE SMOOTH",
"807 329 OFFCURVE",
"799 224 OFFCURVE",
"813 133 CURVE SMOOTH"
);
}
);
width = 1250;
}
);
leftKerningGroup = E;
rightKerningGroup = R;
unicode = 0052;
},
{
glyphname = S;
lastChange = "2019-05-17 22:14:23 +0000";
layers = (
{
layerId = "CA4EC710-46DE-40B5-AF89-3BCF48EEB297";
paths = (
{
closed = 1;
nodes = (
"840 1216 LINE",
"826 1205 LINE",
"788 1112 LINE",
"714 1188 OFFCURVE",
"616 1231 OFFCURVE",
"491 1231 CURVE SMOOTH",
"291 1231 OFFCURVE",
"137 1111 OFFCURVE",
"137 912 CURVE SMOOTH",
"137 765 OFFCURVE",
"242 636 OFFCURVE",
"373 591 CURVE SMOOTH",
"641 498 LINE SMOOTH",
"757 458 OFFCURVE",
"802 359 OFFCURVE",
"802 282 CURVE SMOOTH",
"802 151 OFFCURVE",
"706 45 OFFCURVE",
"551 45 CURVE SMOOTH",
"367 45 OFFCURVE",
"250 164 OFFCURVE",
"189 445 CURVE",
"179 455 LINE",
"137 455 LINE",
"127 445 LINE",
"127 6 LINE",
"137 -4 LINE",
"173 -4 LINE",
"187 7 LINE",
"229 110 LINE",
"313 30 OFFCURVE",
"411 -25 OFFCURVE",
"550 -25 CURVE SMOOTH",
"770 -25 OFFCURVE",
"946 136 OFFCURVE",
"946 343 CURVE SMOOTH",
"946 505 OFFCURVE",
"837 619 OFFCURVE",
"695 665 CURVE SMOOTH",
"438 749 LINE SMOOTH",
"326 786 OFFCURVE",
"271 852 OFFCURVE",
"271 952 CURVE SMOOTH",
"271 1057 OFFCURVE",
"345 1161 OFFCURVE",
"512 1161 CURVE SMOOTH",
"666 1161 OFFCURVE",
"786 1031 OFFCURVE",
"824 819 CURVE",
"835 807 LINE",
"877 807 LINE",
"886 817 LINE",
"886 1207 LINE",
"877 1216 LINE"
);
}
);
userData = {
com.typemytype.robofont.mark = (
0.967,
0.6,
1,
1
);
};
width = 1050;
},
{
layerId = "25879A17-30FE-49F5-8BDD-4D78448C8558";
paths = (
{
closed = 1;
nodes = (
"837 1226 LINE",
"819 1212 LINE",
"753 1055 LINE",
"843 1061 LINE",
"765 1169 OFFCURVE",
"645 1241 OFFCURVE",
"491 1241 CURVE SMOOTH",
"285 1241 OFFCURVE",
"127 1117 OFFCURVE",
"127 912 CURVE SMOOTH",
"127 755 OFFCURVE",
"229 631 OFFCURVE",
"370 582 CURVE SMOOTH",
"638 489 LINE SMOOTH",
"751 450 OFFCURVE",
"792 357 OFFCURVE",
"792 282 CURVE SMOOTH",
"792 157 OFFCURVE",
"700 55 OFFCURVE",
"551 55 CURVE SMOOTH",
"373 55 OFFCURVE",
"259 173 OFFCURVE",
"199 449 CURVE",
"183 465 LINE",
"133 465 LINE",
"117 449 LINE",
"117 2 LINE",
"133 -14 LINE",
"176 -14 LINE",
"194 0 LINE",
"260 157 LINE",
"182 145 LINE",
"275 44 OFFCURVE",
"389 -35 OFFCURVE",
"550 -35 CURVE SMOOTH",
"776 -35 OFFCURVE",
"956 130 OFFCURVE",
"956 343 CURVE SMOOTH",
"956 510 OFFCURVE",
"844 626 OFFCURVE",
"698 674 CURVE SMOOTH",
"441 758 LINE SMOOTH",
"334 793 OFFCURVE",
"281 857 OFFCURVE",
"281 952 CURVE SMOOTH",
"281 1052 OFFCURVE",
"352 1151 OFFCURVE",
"512 1151 CURVE SMOOTH",
"660 1151 OFFCURVE",
"777 1023 OFFCURVE",
"814 815 CURVE",
"830 797 LINE",
"881 797 LINE",
"896 813 LINE",
"896 1210 LINE",
"881 1226 LINE"
);
}
);
width = 1050;
}
);
leftKerningGroup = S;
rightKerningGroup = S;
unicode = 0053;
},
{
glyphname = T;
lastChange = "2019-05-17 22:14:23 +0000";
layers = (
{
layerId = "CA4EC710-46DE-40B5-AF89-3BCF48EEB297";
paths = (
{
closed = 1;
nodes = (
"627 1018 OFFCURVE",
"630 1078 OFFCURVE",
"646 1105 CURVE SMOOTH",
"661 1130 OFFCURVE",
"696 1138 OFFCURVE",
"732 1138 CURVE SMOOTH",
"905 1138 OFFCURVE",
"950 1052 OFFCURVE",
"988 835 CURVE",
"1001 825 LINE",
"1046 825 LINE",
"1054 834 LINE",
"1042 953 OFFCURVE",
"1036 1076 OFFCURVE",
"1034 1199 CURVE",
"1023 1209 LINE",
"863 1198 OFFCURVE",
"742 1194 OFFCURVE",
"553 1194 CURVE SMOOTH",
"375 1194 OFFCURVE",
"248 1198 OFFCURVE",
"76 1209 CURVE",
"66 1200 LINE",
"64 1076 OFFCURVE",
"56 957 OFFCURVE",
"45 833 CURVE",
"54 825 LINE",
"99 825 LINE",
"112 836 LINE",
"151 1055 OFFCURVE",
"196 1138 OFFCURVE",
"363 1138 CURVE SMOOTH",
"402 1138 OFFCURVE",
"435 1129 OFFCURVE",
"452 1110 CURVE SMOOTH",
"471 1089 OFFCURVE",
"473 1045 OFFCURVE",
"473 991 CURVE SMOOTH",
"473 227 LINE SMOOTH",
"473 134 OFFCURVE",
"463 112 OFFCURVE",
"433 92 CURVE SMOOTH",
"407 75 OFFCURVE",
"357 69 OFFCURVE",
"273 66 CURVE",
"263 56 LINE",
"263 18 LINE",
"273 8 LINE",
"342 8 OFFCURVE",
"398 11 OFFCURVE",
"446 13 CURVE SMOOTH",
"481 15 OFFCURVE",
"518 16 OFFCURVE",
"547 16 CURVE SMOOTH",
"579 16 OFFCURVE",
"613 15 OFFCURVE",
"653 13 CURVE SMOOTH",
"702 11 OFFCURVE",
"761 8 OFFCURVE",
"825 8 CURVE",
"835 18 LINE",
"835 56 LINE",
"825 66 LINE",
"714 67 OFFCURVE",
"668 70 OFFCURVE",
"649 92 CURVE SMOOTH",
"632 113 OFFCURVE",
"627 158 OFFCURVE",
"627 218 CURVE SMOOTH",
"627 958 LINE"
);
}
);
userData = {
com.typemytype.robofont.guides = (
{
angle = 0;
isGlobal = 0;
magnetic = 5;
x = 0;
y = 1204;
}
);
com.typemytype.robofont.mark = (
0.967,
0.6,
1,
1
);
};
width = 1100;
},
{
layerId = "25879A17-30FE-49F5-8BDD-4D78448C8558";
paths = (
{
closed = 1;
nodes = (
"637 1019 OFFCURVE",
"639 1077 OFFCURVE",
"654 1100 CURVE SMOOTH",
"668 1122 OFFCURVE",
"699 1128 OFFCURVE",
"732 1128 CURVE SMOOTH",
"898 1128 OFFCURVE",
"942 1042 OFFCURVE",
"979 830 CURVE",
"997 815 LINE",
"1050 815 LINE",
"1065 831 LINE",
"1053 953 OFFCURVE",
"1046 1078 OFFCURVE",
"1044 1203 CURVE",
"1027 1219 LINE",
"866 1208 OFFCURVE",
"743 1204 OFFCURVE",
"553 1204 CURVE SMOOTH",
"375 1204 OFFCURVE",
"244 1208 OFFCURVE",
"72 1219 CURVE",
"56 1204 LINE",
"54 1079 OFFCURVE",
"46 955 OFFCURVE",
"35 830 CURVE",
"50 815 LINE",
"103 815 LINE",
"121 830 LINE",
"159 1048 OFFCURVE",
"202 1128 OFFCURVE",
"363 1128 CURVE SMOOTH",
"400 1128 OFFCURVE",
"430 1120 OFFCURVE",
"445 1103 CURVE SMOOTH",
"461 1085 OFFCURVE",
"463 1043 OFFCURVE",
"463 991 CURVE SMOOTH",
"463 227 LINE SMOOTH",
"463 138 OFFCURVE",
"454 118 OFFCURVE",
"427 100 CURVE SMOOTH",
"403 84 OFFCURVE",
"354 79 OFFCURVE",
"269 76 CURVE",
"253 60 LINE",
"253 14 LINE",
"269 -2 LINE",
"394 -2 OFFCURVE",
"476 6 OFFCURVE",
"547 6 CURVE SMOOTH",
"619 6 OFFCURVE",
"710 -2 OFFCURVE",
"829 -2 CURVE",
"845 14 LINE",
"845 60 LINE",
"829 76 LINE",
"721 77 OFFCURVE",
"674 80 OFFCURVE",
"657 99 CURVE SMOOTH",
"641 118 OFFCURVE",
"637 161 OFFCURVE",
"637 218 CURVE SMOOTH",
"637 958 LINE SMOOTH"
);
}
);
width = 1100;
}
);
leftKerningGroup = T;
rightKerningGroup = T;
unicode = 0054;
},
{
glyphname = U;
lastChange = "2019-05-17 22:14:23 +0000";
layers = (
{
anchors = (
{
name = top;
position = "{675, 1200}";
}
);
layerId = "CA4EC710-46DE-40B5-AF89-3BCF48EEB297";
paths = (
{
closed = 1;
nodes = (
"1074 1032 OFFCURVE",
"1098 1068 OFFCURVE",
"1117 1090 CURVE SMOOTH",
"1137 1113 OFFCURVE",
"1173 1137 OFFCURVE",
"1256 1144 CURVE",
"1266 1154 LINE",
"1266 1192 LINE",
"1256 1202 LINE",
"1215 1202 OFFCURVE",
"1172 1200 OFFCURVE",
"1131 1198 CURVE SMOOTH",
"1096 1196 OFFCURVE",
"1061 1194 OFFCURVE",
"1036 1194 CURVE SMOOTH",
"1013 1194 OFFCURVE",
"981 1195 OFFCURVE",
"946 1197 CURVE SMOOTH",
"906 1199 OFFCURVE",
"861 1202 OFFCURVE",
"822 1202 CURVE",
"812 1192 LINE",
"812 1154 LINE",
"822 1144 LINE",
"904 1137 OFFCURVE",
"938 1117 OFFCURVE",
"957 1097 CURVE SMOOTH",
"980 1071 OFFCURVE",
"1004 1024 OFFCURVE",
"1004 894 CURVE",
"1004 458 LINE SMOOTH",
"1004 362 OFFCURVE",
"983 257 OFFCURVE",
"936 186 CURVE SMOOTH",
"880 103 OFFCURVE",
"767 67 OFFCURVE",
"657 67 CURVE SMOOTH",
"455 67 OFFCURVE",
"370 207 OFFCURVE",
"370 436 CURVE SMOOTH",
"370 972 LINE",
"370 1071 OFFCURVE",
"382 1103 OFFCURVE",
"409 1123 CURVE",
"435 1138 OFFCURVE",
"490 1144 OFFCURVE",
"540 1144 CURVE",
"550 1154 LINE",
"550 1192 LINE",
"540 1202 LINE",
"476 1202 OFFCURVE",
"428 1199 OFFCURVE",
"387 1197 CURVE SMOOTH",
"357 1195 OFFCURVE",
"324 1194 OFFCURVE",
"296 1194 CURVE SMOOTH",
"269 1194 OFFCURVE",
"234 1195 OFFCURVE",
"196 1197 CURVE SMOOTH",
"151 1199 OFFCURVE",
"99 1202 OFFCURVE",
"46 1202 CURVE",
"36 1192 LINE",
"36 1154 LINE",
"46 1144 LINE",
"126 1144 OFFCURVE",
"171 1139 OFFCURVE",
"193 1115 CURVE SMOOTH",
"209 1097 OFFCURVE",
"216 1051 OFFCURVE",
"216 968 CURVE",
"216 432 LINE SMOOTH",
"216 95 OFFCURVE",
"403 -21 OFFCURVE",
"649 -21 CURVE SMOOTH",
"788 -21 OFFCURVE",
"914 34 OFFCURVE",
"989 132 CURVE SMOOTH",
"1048 209 OFFCURVE",
"1074 325 OFFCURVE",
"1074 463 CURVE SMOOTH",
"1074 892 LINE"
);
}
);
userData = {
com.typemytype.robofont.mark = (
0.967,
0.6,
1,
1
);
};
width = 1300;
},
{
anchors = (
{
name = top;
position = "{675, 1200}";
}
);
layerId = "25879A17-30FE-49F5-8BDD-4D78448C8558";
paths = (
{
closed = 1;
nodes = (
"1084 1027 OFFCURVE",
"1107 1062 OFFCURVE",
"1125 1083 CURVE SMOOTH",
"1144 1105 OFFCURVE",
"1177 1128 OFFCURVE",
"1260 1134 CURVE",
"1276 1150 LINE",
"1276 1196 LINE",
"1260 1212 LINE",
"1183 1212 OFFCURVE",
"1092 1204 OFFCURVE",
"1036 1204 CURVE SMOOTH",
"986 1204 OFFCURVE",
"892 1212 OFFCURVE",
"818 1212 CURVE",
"802 1196 LINE",
"802 1150 LINE",
"818 1134 LINE",
"898 1128 OFFCURVE",
"932 1109 OFFCURVE",
"950 1090 CURVE SMOOTH",
"972 1066 OFFCURVE",
"994 1021 OFFCURVE",
"994 894 CURVE SMOOTH",
"994 458 LINE SMOOTH",
"994 364 OFFCURVE",
"974 261 OFFCURVE",
"928 192 CURVE SMOOTH",
"874 112 OFFCURVE",
"764 77 OFFCURVE",
"657 77 CURVE SMOOTH",
"462 77 OFFCURVE",
"380 213 OFFCURVE",
"380 436 CURVE SMOOTH",
"380 972 LINE SMOOTH",
"380 1072 OFFCURVE",
"388 1097 OFFCURVE",
"415 1115 CURVE SMOOTH",
"439 1131 OFFCURVE",
"492 1134 OFFCURVE",
"544 1134 CURVE",
"560 1150 LINE",
"560 1196 LINE",
"544 1212 LINE",
"427 1212 OFFCURVE",
"364 1204 OFFCURVE",
"296 1204 CURVE SMOOTH",
"234 1204 OFFCURVE",
"140 1212 OFFCURVE",
"42 1212 CURVE",
"26 1196 LINE",
"26 1150 LINE",
"42 1134 LINE",
"120 1134 OFFCURVE",
"166 1130 OFFCURVE",
"186 1108 CURVE SMOOTH",
"200 1093 OFFCURVE",
"206 1049 OFFCURVE",
"206 968 CURVE SMOOTH",
"206 432 LINE SMOOTH",
"206 88 OFFCURVE",
"397 -31 OFFCURVE",
"649 -31 CURVE SMOOTH",
"795 -31 OFFCURVE",
"917 22 OFFCURVE",
"997 126 CURVE SMOOTH",
"1059 207 OFFCURVE",
"1084 319 OFFCURVE",
"1084 463 CURVE SMOOTH",
"1084 892 LINE SMOOTH"
);
}
);
width = 1300;
}
);
leftKerningGroup = U;
rightKerningGroup = U;
unicode = 0055;
},
{
glyphname = V;
lastChange = "2019-05-17 22:14:23 +0000";
layers = (
{
layerId = "CA4EC710-46DE-40B5-AF89-3BCF48EEB297";
paths = (
{
closed = 1;
nodes = (
"396 998 OFFCURVE",
"389 1031 OFFCURVE",
"389 1057 CURVE SMOOTH",
"389 1081 OFFCURVE",
"394 1099 OFFCURVE",
"406 1111 CURVE SMOOTH",
"433 1139 OFFCURVE",
"489 1143 OFFCURVE",
"556 1144 CURVE",
"566 1154 LINE",
"566 1192 LINE",
"556 1202 LINE",
"510 1202 OFFCURVE",
"459 1200 OFFCURVE",
"408 1198 CURVE SMOOTH",
"355 1196 OFFCURVE",
"303 1194 OFFCURVE",
"257 1194 CURVE SMOOTH",
"223 1194 OFFCURVE",
"189 1196 OFFCURVE",
"154 1198 CURVE SMOOTH",
"117 1200 OFFCURVE",
"80 1202 OFFCURVE",
"36 1202 CURVE",
"26 1192 LINE",
"26 1154 LINE",
"36 1144 LINE",
"123 1140 OFFCURVE",
"159 1126 OFFCURVE",
"185 1096 CURVE SMOOTH",
"203 1076 OFFCURVE",
"227 1010 OFFCURVE",
"249 948 CURVE SMOOTH",
"506 215 LINE SMOOTH",
"533 139 OFFCURVE",
"561 47 OFFCURVE",
"573 -8 CURVE",
"586 -18 LINE",
"675 -18 LINE",
"688 -9 LINE",
"705 56 OFFCURVE",
"726 137 OFFCURVE",
"759 229 CURVE SMOOTH",
"1012 945 LINE SMOOTH",
"1038 1020 OFFCURVE",
"1060 1069 OFFCURVE",
"1086 1095 CURVE SMOOTH",
"1116 1125 OFFCURVE",
"1150 1138 OFFCURVE",
"1203 1144 CURVE",
"1213 1154 LINE",
"1213 1192 LINE",
"1203 1202 LINE",
"1177 1202 OFFCURVE",
"1150 1200 OFFCURVE",
"1123 1198 CURVE SMOOTH",
"1091 1196 OFFCURVE",
"1056 1194 OFFCURVE",
"1021 1194 CURVE SMOOTH",
"976 1194 OFFCURVE",
"925 1197 OFFCURVE",
"878 1199 CURVE SMOOTH",
"838 1201 OFFCURVE",
"805 1202 OFFCURVE",
"779 1202 CURVE",
"769 1192 LINE",
"769 1154 LINE",
"779 1144 LINE",
"856 1141 OFFCURVE",
"917 1132 OFFCURVE",
"940 1096 CURVE",
"947 1083 OFFCURVE",
"953 1065 OFFCURVE",
"953 1038 CURVE SMOOTH",
"953 1016 OFFCURVE",
"945 974 OFFCURVE",
"933 939 CURVE SMOOTH",
"673 204 LINE",
"409 960 LINE SMOOTH"
);
}
);
userData = {
com.typemytype.robofont.mark = (
0.656,
1,
0.6,
1
);
};
width = 1250;
},
{
layerId = "25879A17-30FE-49F5-8BDD-4D78448C8558";
paths = (
{
closed = 1;
nodes = (
"396 1027 OFFCURVE",
"391 1081 OFFCURVE",
"413 1104 CURVE SMOOTH",
"437 1129 OFFCURVE",
"494 1133 OFFCURVE",
"560 1134 CURVE",
"576 1150 LINE",
"576 1196 LINE",
"560 1212 LINE",
"467 1212 OFFCURVE",
"350 1204 OFFCURVE",
"257 1204 CURVE SMOOTH",
"186 1204 OFFCURVE",
"118 1212 OFFCURVE",
"32 1212 CURVE",
"16 1196 LINE",
"16 1150 LINE",
"32 1134 LINE",
"119 1130 OFFCURVE",
"152 1118 OFFCURVE",
"177 1089 CURVE SMOOTH",
"195 1068 OFFCURVE",
"219 1005 OFFCURVE",
"240 945 CURVE SMOOTH",
"497 212 LINE SMOOTH",
"524 135 OFFCURVE",
"550 48 OFFCURVE",
"564 -13 CURVE",
"582 -28 LINE",
"677 -28 LINE",
"697 -15 LINE",
"714 54 OFFCURVE",
"736 138 OFFCURVE",
"768 226 CURVE SMOOTH",
"1021 942 LINE SMOOTH",
"1048 1014 OFFCURVE",
"1067 1062 OFFCURVE",
"1093 1088 CURVE SMOOTH",
"1121 1116 OFFCURVE",
"1155 1128 OFFCURVE",
"1207 1134 CURVE",
"1223 1150 LINE",
"1223 1196 LINE",
"1207 1212 LINE",
"1150 1212 OFFCURVE",
"1089 1204 OFFCURVE",
"1021 1204 CURVE SMOOTH",
"939 1204 OFFCURVE",
"833 1212 OFFCURVE",
"775 1212 CURVE",
"759 1196 LINE",
"759 1150 LINE",
"775 1134 LINE",
"851 1131 OFFCURVE",
"911 1124 OFFCURVE",
"931 1091 CURVE SMOOTH",
"946 1067 OFFCURVE",
"951 1018 OFFCURVE",
"924 942 CURVE SMOOTH",
"641 142 LINE",
"706 142 LINE",
"418 963 LINE SMOOTH"
);
}
);
width = 1250;
}
);
leftKerningGroup = W;
rightKerningGroup = W;
unicode = 0056;
},
{
glyphname = W;
lastChange = "2019-05-17 22:14:23 +0000";
layers = (
{
layerId = "CA4EC710-46DE-40B5-AF89-3BCF48EEB297";
paths = (
{
closed = 1;
nodes = (
"1248 74 OFFCURVE",
"1271 165 OFFCURVE",
"1294 235 CURVE",
"1520 945 LINE",
"1542 1016 OFFCURVE",
"1568 1068 OFFCURVE",
"1595 1095 CURVE SMOOTH",
"1625 1125 OFFCURVE",
"1659 1138 OFFCURVE",
"1712 1144 CURVE",
"1722 1154 LINE",
"1722 1192 LINE",
"1712 1202 LINE",
"1687 1202 OFFCURVE",
"1663 1201 OFFCURVE",
"1635 1199 CURVE SMOOTH",
"1600 1197 OFFCURVE",
"1561 1194 OFFCURVE",
"1517 1194 CURVE SMOOTH",
"1472 1194 OFFCURVE",
"1426 1196 OFFCURVE",
"1383 1198 CURVE SMOOTH",
"1345 1200 OFFCURVE",
"1314 1202 OFFCURVE",
"1281 1202 CURVE",
"1271 1192 LINE",
"1271 1154 LINE",
"1281 1144 LINE",
"1367 1141 OFFCURVE",
"1426 1132 OFFCURVE",
"1449 1096 CURVE",
"1448 1096 LINE",
"1456 1083 OFFCURVE",
"1461 1064 OFFCURVE",
"1461 1041 CURVE SMOOTH",
"1461 1014 OFFCURVE",
"1456 980 OFFCURVE",
"1443 939 CURVE",
"1225 249 LINE",
"1023 942 LINE",
"1008 992 OFFCURVE",
"998 1040 OFFCURVE",
"998 1069 CURVE SMOOTH",
"998 1088 OFFCURVE",
"1002 1103 OFFCURVE",
"1009 1111 CURVE SMOOTH",
"1033 1138 OFFCURVE",
"1085 1143 OFFCURVE",
"1158 1144 CURVE",
"1168 1154 LINE",
"1168 1192 LINE",
"1158 1202 LINE",
"1114 1202 OFFCURVE",
"1066 1200 OFFCURVE",
"1018 1198 CURVE SMOOTH",
"972 1196 OFFCURVE",
"926 1194 OFFCURVE",
"888 1194 CURVE SMOOTH",
"837 1194 OFFCURVE",
"788 1197 OFFCURVE",
"744 1199 CURVE SMOOTH",
"708 1201 OFFCURVE",
"680 1202 OFFCURVE",
"651 1202 CURVE",
"641 1192 LINE",
"641 1154 LINE",
"651 1144 LINE",
"721 1141 OFFCURVE",
"753 1128 OFFCURVE",
"782 1099 CURVE SMOOTH",
"805 1076 OFFCURVE",
"827 1036 OFFCURVE",
"853 948 CURVE",
"1056 255 LINE",
"1079 178 OFFCURVE",
"1099 79 OFFCURVE",
"1112 -8 CURVE",
"1125 -18 LINE",
"1220 -18 LINE",
"1232 -10 LINE"
);
},
{
closed = 1;
nodes = (
"879 1062 LINE",
"617 234 LINE",
"410 942 LINE",
"395 994 OFFCURVE",
"386 1036 OFFCURVE",
"386 1067 CURVE SMOOTH",
"386 1086 OFFCURVE",
"390 1101 OFFCURVE",
"397 1109 CURVE SMOOTH",
"421 1136 OFFCURVE",
"466 1143 OFFCURVE",
"528 1144 CURVE",
"538 1154 LINE",
"538 1192 LINE",
"528 1202 LINE",
"486 1202 OFFCURVE",
"442 1200 OFFCURVE",
"397 1198 CURVE SMOOTH",
"349 1196 OFFCURVE",
"302 1194 OFFCURVE",
"255 1194 CURVE SMOOTH",
"208 1194 OFFCURVE",
"162 1196 OFFCURVE",
"121 1198 CURVE SMOOTH",
"86 1200 OFFCURVE",
"58 1202 OFFCURVE",
"28 1202 CURVE",
"18 1192 LINE",
"18 1154 LINE",
"28 1144 LINE",
"98 1141 OFFCURVE",
"141 1127 OFFCURVE",
"169 1099 CURVE SMOOTH",
"192 1076 OFFCURVE",
"214 1036 OFFCURVE",
"240 948 CURVE",
"452 228 LINE",
"474 156 OFFCURVE",
"497 72 OFFCURVE",
"513 -8 CURVE",
"525 -18 LINE",
"620 -18 LINE",
"632 -10 LINE",
"647 73 OFFCURVE",
"664 152 OFFCURVE",
"690 235 CURVE",
"952 1062 LINE"
);
}
);
userData = {
com.typemytype.robofont.mark = (
0.656,
1,
0.6,
1
);
};
width = 1750;
},
{
layerId = "25879A17-30FE-49F5-8BDD-4D78448C8558";
paths = (
{
closed = 1;
nodes = (
"1256 69 OFFCURVE",
"1281 160 OFFCURVE",
"1304 232 CURVE SMOOTH",
"1530 942 LINE SMOOTH",
"1553 1015 OFFCURVE",
"1576 1062 OFFCURVE",
"1602 1088 CURVE SMOOTH",
"1630 1116 OFFCURVE",
"1664 1128 OFFCURVE",
"1716 1134 CURVE",
"1732 1150 LINE",
"1732 1196 LINE",
"1716 1212 LINE",
"1659 1212 OFFCURVE",
"1598 1204 OFFCURVE",
"1517 1204 CURVE SMOOTH",
"1431 1204 OFFCURVE",
"1346 1212 OFFCURVE",
"1277 1212 CURVE",
"1261 1196 LINE",
"1261 1150 LINE",
"1277 1134 LINE",
"1362 1131 OFFCURVE",
"1420 1124 OFFCURVE",
"1440 1091 CURVE SMOOTH",
"1455 1067 OFFCURVE",
"1457 1019 OFFCURVE",
"1433 942 CURVE SMOOTH",
"1181 142 LINE",
"1268 142 LINE",
"1033 945 LINE SMOOTH",
"1009 1028 OFFCURVE",
"999 1083 OFFCURVE",
"1017 1104 CURVE SMOOTH",
"1039 1129 OFFCURVE",
"1091 1133 OFFCURVE",
"1162 1134 CURVE",
"1178 1150 LINE",
"1178 1196 LINE",
"1162 1212 LINE",
"1075 1212 OFFCURVE",
"966 1204 OFFCURVE",
"888 1204 CURVE SMOOTH",
"795 1204 OFFCURVE",
"711 1212 OFFCURVE",
"647 1212 CURVE",
"631 1196 LINE",
"631 1150 LINE",
"647 1134 LINE",
"716 1131 OFFCURVE",
"748 1119 OFFCURVE",
"775 1092 CURVE SMOOTH",
"796 1071 OFFCURVE",
"817 1032 OFFCURVE",
"843 945 CURVE SMOOTH",
"1046 252 LINE SMOOTH",
"1069 173 OFFCURVE",
"1091 74 OFFCURVE",
"1103 -13 CURVE",
"1121 -28 LINE",
"1221 -28 LINE",
"1241 -15 LINE"
);
},
{
closed = 1;
nodes = (
"871 1072 LINE",
"577 142 LINE",
"655 142 LINE",
"420 945 LINE SMOOTH",
"397 1025 OFFCURVE",
"387 1081 OFFCURVE",
"405 1102 CURVE SMOOTH",
"427 1127 OFFCURVE",
"473 1133 OFFCURVE",
"532 1134 CURVE",
"548 1150 LINE",
"548 1196 LINE",
"532 1212 LINE",
"445 1212 OFFCURVE",
"347 1204 OFFCURVE",
"255 1204 CURVE SMOOTH",
"168 1204 OFFCURVE",
"88 1212 OFFCURVE",
"24 1212 CURVE",
"8 1196 LINE",
"8 1150 LINE",
"24 1134 LINE",
"93 1131 OFFCURVE",
"135 1119 OFFCURVE",
"162 1092 CURVE SMOOTH",
"183 1071 OFFCURVE",
"204 1032 OFFCURVE",
"230 945 CURVE SMOOTH",
"442 225 LINE SMOOTH",
"464 151 OFFCURVE",
"487 66 OFFCURVE",
"503 -13 CURVE",
"521 -28 LINE",
"621 -28 LINE",
"641 -15 LINE",
"656 69 OFFCURVE",
"672 144 OFFCURVE",
"700 232 CURVE SMOOTH",
"966 1072 LINE"
);
}
);
width = 1750;
}
);
leftKerningGroup = W;
rightKerningGroup = W;
unicode = 0057;
},
{
glyphname = X;
lastChange = "2019-05-17 22:14:23 +0000";
layers = (
{
layerId = "CA4EC710-46DE-40B5-AF89-3BCF48EEB297";
paths = (
{
closed = 1;
nodes = (
"261 157 OFFCURVE",
"204 123 OFFCURVE",
"164 103 CURVE",
"124 85 OFFCURVE",
"84 70 OFFCURVE",
"23 66 CURVE",
"13 56 LINE",
"13 18 LINE",
"23 8 LINE",
"62 8 OFFCURVE",
"100 10 OFFCURVE",
"137 12 CURVE SMOOTH",
"173 14 OFFCURVE",
"208 16 OFFCURVE",
"241 16 CURVE SMOOTH",
"276 16 OFFCURVE",
"317 14 OFFCURVE",
"362 12 CURVE SMOOTH",
"411 10 OFFCURVE",
"468 8 OFFCURVE",
"518 8 CURVE",
"528 18 LINE",
"528 56 LINE",
"518 66 LINE",
"424 71 OFFCURVE",
"380 77 OFFCURVE",
"365 109 CURVE SMOOTH",
"354 133 OFFCURVE",
"377 193 OFFCURVE",
"413 249 CURVE",
"628 560 LINE",
"691 628 LINE",
"690 627 LINE",
"937 971 LINE",
"984 1036 OFFCURVE",
"1030 1073 OFFCURVE",
"1057 1093 CURVE SMOOTH",
"1094 1120 OFFCURVE",
"1154 1139 OFFCURVE",
"1214 1144 CURVE",
"1224 1154 LINE",
"1224 1192 LINE",
"1214 1202 LINE",
"1181 1202 OFFCURVE",
"1146 1200 OFFCURVE",
"1108 1198 CURVE SMOOTH",
"1067 1196 OFFCURVE",
"1024 1194 OFFCURVE",
"983 1194 CURVE SMOOTH",
"940 1194 OFFCURVE",
"894 1196 OFFCURVE",
"851 1198 CURVE SMOOTH",
"812 1200 OFFCURVE",
"779 1202 OFFCURVE",
"746 1202 CURVE",
"736 1192 LINE",
"736 1154 LINE",
"746 1144 LINE",
"834 1140 OFFCURVE",
"884 1125 OFFCURVE",
"895 1097 CURVE",
"906 1061 OFFCURVE",
"875 1006 OFFCURVE",
"841 959 CURVE",
"638 675 LINE",
"588 625 LINE",
"318 238 LINE"
);
},
{
closed = 1;
nodes = (
"853 164 OFFCURVE",
"857 120 OFFCURVE",
"840 98 CURVE",
"819 74 OFFCURVE",
"768 71 OFFCURVE",
"708 67 CURVE SMOOTH",
"704 67 OFFCURVE",
"705 66 OFFCURVE",
"701 66 CURVE",
"691 56 LINE",
"691 18 LINE",
"701 8 LINE",
"751 8 OFFCURVE",
"809 10 OFFCURVE",
"861 12 CURVE SMOOTH",
"905 14 OFFCURVE",
"951 16 OFFCURVE",
"981 16 CURVE SMOOTH",
"1024 16 OFFCURVE",
"1072 14 OFFCURVE",
"1119 12 CURVE SMOOTH",
"1167 10 OFFCURVE",
"1211 8 OFFCURVE",
"1256 8 CURVE",
"1266 18 LINE",
"1266 54 LINE",
"1256 64 LINE",
"1130 78 OFFCURVE",
"1062 132 OFFCURVE",
"974 266 CURVE",
"522 948 LINE",
"478 1015 OFFCURVE",
"447 1073 OFFCURVE",
"460 1103 CURVE SMOOTH",
"474 1137 OFFCURVE",
"532 1143 OFFCURVE",
"601 1144 CURVE",
"611 1154 LINE",
"611 1192 LINE",
"601 1202 LINE",
"550 1202 OFFCURVE",
"500 1200 OFFCURVE",
"448 1198 CURVE SMOOTH",
"400 1196 OFFCURVE",
"344 1194 OFFCURVE",
"298 1194 CURVE SMOOTH",
"255 1194 OFFCURVE",
"214 1196 OFFCURVE",
"173 1198 CURVE SMOOTH",
"133 1200 OFFCURVE",
"98 1202 OFFCURVE",
"58 1202 CURVE",
"48 1192 LINE",
"48 1154 LINE",
"58 1144 LINE",
"135 1140 OFFCURVE",
"181 1123 OFFCURVE",
"212 1099 CURVE SMOOTH",
"248 1070 OFFCURVE",
"288 1019 OFFCURVE",
"328 958 CURVE",
"328 959 LINE",
"817 219 LINE"
);
}
);
userData = {
com.typemytype.robofont.guides = (
{
angle = 90;
isGlobal = 0;
magnetic = 5;
x = 606;
y = 0;
},
{
angle = 90;
isGlobal = 0;
magnetic = 5;
x = 669;
y = 0;
}
);
com.typemytype.robofont.mark = (
0.656,
1,
0.6,
1
);
};
width = 1280;
},
{
layerId = "25879A17-30FE-49F5-8BDD-4D78448C8558";
paths = (
{
closed = 1;
nodes = (
"253 162 OFFCURVE",
"200 131 OFFCURVE",
"160 112 CURVE SMOOTH",
"120 94 OFFCURVE",
"81 80 OFFCURVE",
"19 76 CURVE",
"3 60 LINE",
"3 14 LINE",
"19 -2 LINE",
"97 -2 OFFCURVE",
"173 6 OFFCURVE",
"241 6 CURVE SMOOTH",
"316 6 OFFCURVE",
"423 -2 OFFCURVE",
"522 -2 CURVE",
"538 14 LINE",
"538 60 LINE",
"522 76 LINE",
"430 81 OFFCURVE",
"387 86 OFFCURVE",
"374 113 CURVE SMOOTH",
"363 136 OFFCURVE",
"380 184 OFFCURVE",
"421 243 CURVE SMOOTH",
"636 554 LINE",
"698 621 LINE",
"945 965 LINE SMOOTH",
"993 1032 OFFCURVE",
"1035 1065 OFFCURVE",
"1063 1085 CURVE SMOOTH",
"1099 1111 OFFCURVE",
"1158 1129 OFFCURVE",
"1218 1134 CURVE",
"1234 1150 LINE",
"1234 1196 LINE",
"1218 1212 LINE",
"1148 1212 OFFCURVE",
"1063 1204 OFFCURVE",
"983 1204 CURVE SMOOTH",
"900 1204 OFFCURVE",
"811 1212 OFFCURVE",
"742 1212 CURVE",
"726 1196 LINE",
"726 1150 LINE",
"742 1134 LINE",
"830 1130 OFFCURVE",
"877 1120 OFFCURVE",
"885 1094 CURVE SMOOTH",
"895 1062 OFFCURVE",
"866 1011 OFFCURVE",
"833 965 CURVE SMOOTH",
"630 681 LINE",
"580 631 LINE",
"310 244 LINE SMOOTH"
);
},
{
closed = 1;
nodes = (
"843 162 OFFCURVE",
"847 124 OFFCURVE",
"832 105 CURVE SMOOTH",
"812 82 OFFCURVE",
"759 80 OFFCURVE",
"697 76 CURVE",
"681 60 LINE",
"681 14 LINE",
"697 -2 LINE",
"791 -2 OFFCURVE",
"913 6 OFFCURVE",
"981 6 CURVE SMOOTH",
"1068 6 OFFCURVE",
"1171 -2 OFFCURVE",
"1260 -2 CURVE",
"1276 14 LINE",
"1276 58 LINE",
"1260 74 LINE",
"1136 86 OFFCURVE",
"1070 139 OFFCURVE",
"982 272 CURVE SMOOTH",
"530 954 LINE SMOOTH",
"486 1020 OFFCURVE",
"458 1072 OFFCURVE",
"469 1099 CURVE SMOOTH",
"481 1128 OFFCURVE",
"539 1133 OFFCURVE",
"605 1134 CURVE",
"621 1150 LINE",
"621 1196 LINE",
"605 1212 LINE",
"503 1212 OFFCURVE",
"395 1204 OFFCURVE",
"298 1204 CURVE SMOOTH",
"213 1204 OFFCURVE",
"135 1212 OFFCURVE",
"54 1212 CURVE",
"38 1196 LINE",
"38 1150 LINE",
"54 1134 LINE",
"131 1130 OFFCURVE",
"176 1115 OFFCURVE",
"206 1091 CURVE SMOOTH",
"243 1062 OFFCURVE",
"280 1014 OFFCURVE",
"320 953 CURVE SMOOTH",
"809 213 LINE SMOOTH"
);
}
);
width = 1280;
}
);
leftKerningGroup = X;
rightKerningGroup = K;
unicode = 0058;
},
{
glyphname = Y;
lastChange = "2019-05-17 22:14:23 +0000";
layers = (
{
anchors = (
{
name = top;
position = "{625, 1200}";
}
);
layerId = "CA4EC710-46DE-40B5-AF89-3BCF48EEB297";
paths = (
{
closed = 1;
nodes = (
"911 933 LINE",
"945 1003 OFFCURVE",
"988 1068 OFFCURVE",
"1011 1091 CURVE SMOOTH",
"1044 1124 OFFCURVE",
"1082 1138 OFFCURVE",
"1128 1144 CURVE",
"1138 1154 LINE",
"1138 1192 LINE",
"1128 1202 LINE",
"1101 1202 OFFCURVE",
"1073 1200 OFFCURVE",
"1044 1198 CURVE SMOOTH",
"1012 1196 OFFCURVE",
"978 1194 OFFCURVE",
"946 1194 CURVE SMOOTH",
"902 1194 OFFCURVE",
"859 1196 OFFCURVE",
"819 1198 CURVE SMOOTH",
"784 1200 OFFCURVE",
"756 1202 OFFCURVE",
"727 1202 CURVE",
"717 1192 LINE",
"717 1154 LINE",
"727 1144 LINE",
"797 1141 OFFCURVE",
"841 1136 OFFCURVE",
"858 1098 CURVE",
"862 1087 OFFCURVE",
"866 1075 OFFCURVE",
"866 1058 CURVE SMOOTH",
"866 1025 OFFCURVE",
"853 977 OFFCURVE",
"818 905 CURVE",
"621 500 LINE",
"550 648 OFFCURVE",
"478 796 OFFCURVE",
"409 943 CURVE",
"385 992 OFFCURVE",
"373 1037 OFFCURVE",
"373 1066 CURVE SMOOTH",
"373 1079 OFFCURVE",
"375 1091 OFFCURVE",
"380 1100 CURVE SMOOTH",
"398 1134 OFFCURVE",
"446 1143 OFFCURVE",
"513 1144 CURVE",
"523 1154 LINE",
"523 1192 LINE",
"513 1202 LINE",
"467 1202 OFFCURVE",
"416 1200 OFFCURVE",
"363 1198 CURVE SMOOTH",
"309 1196 OFFCURVE",
"255 1194 OFFCURVE",
"209 1194 CURVE SMOOTH",
"175 1194 OFFCURVE",
"141 1196 OFFCURVE",
"106 1198 CURVE SMOOTH",
"69 1200 OFFCURVE",
"32 1202 OFFCURVE",
"-12 1202 CURVE",
"-22 1192 LINE",
"-22 1154 LINE",
"-12 1144 LINE",
"65 1140 OFFCURVE",
"105 1123 OFFCURVE",
"137 1099 CURVE SMOOTH",
"175 1069 OFFCURVE",
"206 1017 OFFCURVE",
"239 949 CURVE",
"495 410 LINE",
"495 227 LINE",
"495 134 OFFCURVE",
"485 112 OFFCURVE",
"455 92 CURVE SMOOTH",
"429 75 OFFCURVE",
"369 69 OFFCURVE",
"285 66 CURVE",
"275 56 LINE",
"275 18 LINE",
"285 8 LINE",
"339 8 OFFCURVE",
"395 10 OFFCURVE",
"447 12 CURVE SMOOTH",
"492 14 OFFCURVE",
"537 16 OFFCURVE",
"573 16 CURVE SMOOTH",
"607 16 OFFCURVE",
"645 15 OFFCURVE",
"686 13 CURVE SMOOTH",
"735 11 OFFCURVE",
"793 8 OFFCURVE",
"857 8 CURVE",
"867 18 LINE",
"867 56 LINE",
"857 66 LINE",
"747 67 OFFCURVE",
"691 70 OFFCURVE",
"671 92 CURVE",
"654 113 OFFCURVE",
"649 158 OFFCURVE",
"649 218 CURVE",
"649 396 LINE"
);
}
);
userData = {
com.typemytype.robofont.guides = (
{
angle = 90;
isGlobal = 0;
magnetic = 5;
x = 665;
y = 0;
}
);
com.typemytype.robofont.mark = (
0.656,
1,
0.6,
1
);
};
width = 1150;
},
{
anchors = (
{
name = top;
position = "{625, 1200}";
}
);
layerId = "25879A17-30FE-49F5-8BDD-4D78448C8558";
paths = (
{
closed = 1;
nodes = (
"920 929 LINE SMOOTH",
"954 1000 OFFCURVE",
"995 1061 OFFCURVE",
"1018 1084 CURVE SMOOTH",
"1049 1116 OFFCURVE",
"1087 1129 OFFCURVE",
"1132 1134 CURVE",
"1148 1150 LINE",
"1148 1196 LINE",
"1132 1212 LINE",
"1075 1212 OFFCURVE",
"1008 1204 OFFCURVE",
"946 1204 CURVE SMOOTH",
"864 1204 OFFCURVE",
"786 1212 OFFCURVE",
"723 1212 CURVE",
"707 1196 LINE",
"707 1150 LINE",
"723 1134 LINE",
"791 1131 OFFCURVE",
"834 1126 OFFCURVE",
"849 1094 CURVE SMOOTH",
"863 1064 OFFCURVE",
"860 1014 OFFCURVE",
"809 909 CURVE SMOOTH",
"592 461 LINE",
"651 461 LINE",
"418 947 LINE SMOOTH",
"384 1018 OFFCURVE",
"375 1071 OFFCURVE",
"389 1096 CURVE SMOOTH",
"406 1126 OFFCURVE",
"451 1133 OFFCURVE",
"517 1134 CURVE",
"533 1150 LINE",
"533 1196 LINE",
"517 1212 LINE",
"424 1212 OFFCURVE",
"302 1204 OFFCURVE",
"209 1204 CURVE SMOOTH",
"138 1204 OFFCURVE",
"70 1212 OFFCURVE",
"-16 1212 CURVE",
"-32 1196 LINE",
"-32 1150 LINE",
"-16 1134 LINE",
"61 1130 OFFCURVE",
"101 1115 OFFCURVE",
"131 1091 CURVE SMOOTH",
"168 1062 OFFCURVE",
"198 1012 OFFCURVE",
"230 945 CURVE SMOOTH",
"485 408 LINE",
"485 227 LINE SMOOTH",
"485 138 OFFCURVE",
"476 118 OFFCURVE",
"449 100 CURVE SMOOTH",
"425 84 OFFCURVE",
"366 79 OFFCURVE",
"281 76 CURVE",
"265 60 LINE",
"265 14 LINE",
"281 -2 LINE",
"385 -2 OFFCURVE",
"494 6 OFFCURVE",
"573 6 CURVE SMOOTH",
"650 6 OFFCURVE",
"742 -2 OFFCURVE",
"861 -2 CURVE",
"877 14 LINE",
"877 60 LINE",
"861 76 LINE",
"753 77 OFFCURVE",
"696 80 OFFCURVE",
"679 99 CURVE SMOOTH",
"663 118 OFFCURVE",
"659 161 OFFCURVE",
"659 218 CURVE SMOOTH",
"659 394 LINE"
);
}
);
width = 1150;
}
);
leftKerningGroup = Y;
rightKerningGroup = Y;
unicode = 0059;
},
{
glyphname = Z;
lastChange = "2019-05-17 22:14:23 +0000";
layers = (
{
layerId = "CA4EC710-46DE-40B5-AF89-3BCF48EEB297";
paths = (
{
closed = 1;
nodes = (
"1015 1204 LINE",
"928 1202 OFFCURVE",
"839 1200 OFFCURVE",
"741 1200 CURVE",
"673 1200 LINE",
"521 1200 OFFCURVE",
"347 1204 OFFCURVE",
"165 1218 CURVE",
"162 1215 OFFCURVE",
"158 1213 OFFCURVE",
"154 1209 CURVE",
"150 1065 OFFCURVE",
"140 914 OFFCURVE",
"123 787 CURVE",
"131 779 LINE",
"177 779 LINE",
"189 789 LINE",
"246 1062 OFFCURVE",
"335 1140 OFFCURVE",
"569 1140 CURVE",
"837 1140 LINE",
"202 260 LINE",
"154 194 OFFCURVE",
"111 139 OFFCURVE",
"52 70 CURVE",
"48 52 LINE",
"61 14 LINE",
"72 6 LINE",
"157 8 OFFCURVE",
"262 10 OFFCURVE",
"391 10 CURVE SMOOTH",
"603 10 LINE",
"737 10 OFFCURVE",
"862 6 OFFCURVE",
"997 2 CURVE",
"1007 12 LINE",
"1012 143 OFFCURVE",
"1022 285 OFFCURVE",
"1036 431 CURVE",
"1026 440 LINE",
"981 440 LINE",
"969 430 LINE",
"902 138 OFFCURVE",
"831 70 OFFCURVE",
"542 70 CURVE",
"249 70 LINE",
"848 902 LINE",
"892 964 OFFCURVE",
"982 1078 OFFCURVE",
"1034 1141 CURVE",
"1035 1146 OFFCURVE",
"1036 1153 OFFCURVE",
"1038 1158 CURVE",
"1027 1194 LINE"
);
}
);
userData = {
com.typemytype.robofont.mark = (
0.656,
1,
0.6,
1
);
};
width = 1150;
},
{
layerId = "25879A17-30FE-49F5-8BDD-4D78448C8558";
paths = (
{
closed = 1;
nodes = (
"1018 1214 LINE",
"930 1212 OFFCURVE",
"840 1210 OFFCURVE",
"741 1210 CURVE SMOOTH",
"673 1210 LINE SMOOTH",
"521 1210 OFFCURVE",
"343 1214 OFFCURVE",
"161 1228 CURVE",
"144 1213 LINE",
"140 1068 OFFCURVE",
"129 914 OFFCURVE",
"112 785 CURVE",
"126 769 LINE",
"181 769 LINE",
"198 783 LINE",
"253 1052 OFFCURVE",
"340 1130 OFFCURVE",
"569 1130 CURVE SMOOTH",
"846 1130 LINE",
"846 1170 LINE",
"194 266 LINE SMOOTH",
"146 200 OFFCURVE",
"102 144 OFFCURVE",
"43 75 CURVE",
"37 53 LINE",
"51 9 LINE",
"69 -4 LINE",
"154 -2 OFFCURVE",
"261 0 OFFCURVE",
"391 0 CURVE SMOOTH",
"603 0 LINE SMOOTH",
"737 0 OFFCURVE",
"866 -4 OFFCURVE",
"1001 -8 CURVE",
"1017 8 LINE",
"1022 140 OFFCURVE",
"1032 287 OFFCURVE",
"1046 434 CURVE",
"1030 450 LINE",
"978 450 LINE",
"960 436 LINE",
"895 147 OFFCURVE",
"825 80 OFFCURVE",
"542 80 CURVE SMOOTH",
"240 80 LINE",
"240 40 LINE",
"856 896 LINE SMOOTH",
"908 969 OFFCURVE",
"972 1052 OFFCURVE",
"1043 1135 CURVE",
"1049 1157 LINE",
"1036 1200 LINE"
);
}
);
width = 1150;
}
);
leftKerningGroup = Z;
rightKerningGroup = Z;
unicode = 005A;
},
{
glyphname = a;
lastChange = "2020-03-21 15:57:04 +0000";
layers = (
{
anchors = (
{
name = bottom;
position = "{438, 0}";
},
{
name = ogonek;
position = "{788, 10}";
},
{
name = top;
position = "{438, 800}";
}
);
background = {
paths = (
{
closed = 1;
nodes = (
"510 153 OFFCURVE",
"434 67 OFFCURVE",
"345 67 CURVE SMOOTH",
"288 67 OFFCURVE",
"246 107 OFFCURVE",
"246 197 CURVE SMOOTH",
"246 323 OFFCURVE",
"307 399 OFFCURVE",
"567 422 CURVE",
"567 471 LINE",
"256 441 OFFCURVE",
"86 356 OFFCURVE",
"86 180 CURVE SMOOTH",
"86 55 OFFCURVE",
"179 -10 OFFCURVE",
"292 -10 CURVE SMOOTH",
"454 -10 OFFCURVE",
"536 115 OFFCURVE",
"616 248 CURVE",
"574 272 LINE"
);
},
{
closed = 1;
nodes = (
"324 800 OFFCURVE",
"256 770 OFFCURVE",
"208 728 CURVE SMOOTH",
"168 693 OFFCURVE",
"136 643 OFFCURVE",
"136 585 CURVE SMOOTH",
"136 531 OFFCURVE",
"168 487 OFFCURVE",
"224 487 CURVE SMOOTH",
"276 487 OFFCURVE",
"308 518 OFFCURVE",
"308 561 CURVE SMOOTH",
"308 597 OFFCURVE",
"285 646 OFFCURVE",
"211 638 CURVE",
"236 702 OFFCURVE",
"316 739 OFFCURVE",
"382 739 CURVE SMOOTH",
"430 739 OFFCURVE",
"462 730 OFFCURVE",
"487 712 CURVE SMOOTH",
"521 686 OFFCURVE",
"540 644 OFFCURVE",
"541 582 CURVE SMOOTH",
"542 535 OFFCURVE",
"540 466 OFFCURVE",
"538 397 CURVE SMOOTH",
"536 334 OFFCURVE",
"535 270 OFFCURVE",
"535 224 CURVE SMOOTH",
"536 109 OFFCURVE",
"577 -11 OFFCURVE",
"694 -11 CURVE SMOOTH",
"813 -11 OFFCURVE",
"854 101 OFFCURVE",
"854 232 CURVE SMOOTH",
"854 254 OFFCURVE",
"854 277 OFFCURVE",
"851 301 CURVE",
"840 312 LINE",
"808 312 LINE",
"798 302 LINE",
"799 285 OFFCURVE",
"799 270 OFFCURVE",
"799 255 CURVE SMOOTH",
"799 136 OFFCURVE",
"774 85 OFFCURVE",
"732 85 CURVE SMOOTH",
"688 85 OFFCURVE",
"674 128 OFFCURVE",
"674 223 CURVE SMOOTH",
"674 275 OFFCURVE",
"675 333 OFFCURVE",
"677 391 CURVE SMOOTH",
"679 448 OFFCURVE",
"681 516 OFFCURVE",
"681 570 CURVE SMOOTH",
"681 636 OFFCURVE",
"671 675 OFFCURVE",
"651 704 CURVE SMOOTH",
"609 765 OFFCURVE",
"527 800 OFFCURVE",
"420 800 CURVE SMOOTH"
);
}
);
};
layerId = "CA4EC710-46DE-40B5-AF89-3BCF48EEB297";
paths = (
{
closed = 1;
nodes = (
"510 153 OFFCURVE",
"434 67 OFFCURVE",
"345 67 CURVE SMOOTH",
"288 67 OFFCURVE",
"246 107 OFFCURVE",
"246 197 CURVE SMOOTH",
"246 323 OFFCURVE",
"307 399 OFFCURVE",
"567 422 CURVE",
"567 471 LINE",
"256 441 OFFCURVE",
"86 356 OFFCURVE",
"86 180 CURVE SMOOTH",
"86 55 OFFCURVE",
"179 -10 OFFCURVE",
"292 -10 CURVE SMOOTH",
"454 -10 OFFCURVE",
"536 115 OFFCURVE",
"616 248 CURVE",
"574 272 LINE"
);
},
{
closed = 1;
nodes = (
"324 800 OFFCURVE",
"256 770 OFFCURVE",
"208 728 CURVE SMOOTH",
"168 693 OFFCURVE",
"136 643 OFFCURVE",
"136 585 CURVE SMOOTH",
"136 531 OFFCURVE",
"168 487 OFFCURVE",
"224 487 CURVE SMOOTH",
"276 487 OFFCURVE",
"308 518 OFFCURVE",
"308 561 CURVE SMOOTH",
"308 603 OFFCURVE",
"277 655 OFFCURVE",
"187 635 CURVE",
"187 586 LINE",
"217 684 OFFCURVE",
"296 739 OFFCURVE",
"382 739 CURVE SMOOTH",
"430 739 OFFCURVE",
"462 730 OFFCURVE",
"487 712 CURVE SMOOTH",
"521 686 OFFCURVE",
"540 644 OFFCURVE",
"541 582 CURVE SMOOTH",
"542 513 OFFCURVE",
"535 301 OFFCURVE",
"535 224 CURVE SMOOTH",
"536 109 OFFCURVE",
"577 -11 OFFCURVE",
"694 -11 CURVE SMOOTH",
"832 -11 OFFCURVE",
"866 140 OFFCURVE",
"851 301 CURVE",
"840 312 LINE",
"808 312 LINE",
"798 302 LINE",
"803 211 OFFCURVE",
"797 85 OFFCURVE",
"732 85 CURVE SMOOTH",
"688 85 OFFCURVE",
"674 128 OFFCURVE",
"674 223 CURVE SMOOTH",
"674 318 OFFCURVE",
"681 478 OFFCURVE",
"681 570 CURVE SMOOTH",
"681 636 OFFCURVE",
"671 675 OFFCURVE",
"651 704 CURVE SMOOTH",
"609 765 OFFCURVE",
"527 800 OFFCURVE",
"420 800 CURVE SMOOTH"
);
},
{
closed = 1;
nodes = (
"253 586 LINE",
"213 669 LINE",
"191 669 LINE",
"191 586 LINE"
);
}
);
userData = {
com.typemytype.robofont.mark = (
0.967,
0.6,
1,
1
);
};
width = 875;
},
{
anchors = (
{
name = bottom;
position = "{438, 0}";
},
{
name = ogonek;
position = "{788, 10}";
},
{
name = top;
position = "{438, 800}";
}
);
layerId = "25879A17-30FE-49F5-8BDD-4D78448C8558";
paths = (
{
closed = 1;
nodes = (
"506 165 OFFCURVE",
"431 77 OFFCURVE",
"345 77 CURVE SMOOTH",
"294 77 OFFCURVE",
"256 114 OFFCURVE",
"256 197 CURVE SMOOTH",
"256 318 OFFCURVE",
"320 392 OFFCURVE",
"577 413 CURVE",
"577 482 LINE",
"256 452 OFFCURVE",
"76 363 OFFCURVE",
"76 180 CURVE SMOOTH",
"76 48 OFFCURVE",
"173 -20 OFFCURVE",
"292 -20 CURVE SMOOTH",
"462 -20 OFFCURVE",
"549 114 OFFCURVE",
"631 252 CURVE",
"570 286 LINE"
);
},
{
closed = 1;
nodes = (
"320 810 OFFCURVE",
"250 779 OFFCURVE",
"201 736 CURVE SMOOTH",
"159 700 OFFCURVE",
"126 647 OFFCURVE",
"126 585 CURVE SMOOTH",
"126 526 OFFCURVE",
"162 477 OFFCURVE",
"224 477 CURVE SMOOTH",
"282 477 OFFCURVE",
"318 512 OFFCURVE",
"318 561 CURVE SMOOTH",
"318 604 OFFCURVE",
"290 662 OFFCURVE",
"197 647 CURVE",
"197 587 LINE",
"225 671 OFFCURVE",
"307 729 OFFCURVE",
"391 729 CURVE SMOOTH",
"428 729 OFFCURVE",
"458 721 OFFCURVE",
"481 704 CURVE SMOOTH",
"513 680 OFFCURVE",
"530 641 OFFCURVE",
"531 582 CURVE SMOOTH",
"533 493 OFFCURVE",
"524 321 OFFCURVE",
"525 224 CURVE SMOOTH",
"526 104 OFFCURVE",
"570 -21 OFFCURVE",
"694 -21 CURVE SMOOTH",
"843 -21 OFFCURVE",
"877 142 OFFCURVE",
"860 307 CURVE",
"844 322 LINE",
"804 322 LINE",
"788 306 LINE",
"795 157 OFFCURVE",
"773 95 OFFCURVE",
"732 95 CURVE SMOOTH",
"696 95 OFFCURVE",
"684 135 OFFCURVE",
"684 223 CURVE SMOOTH",
"684 329 OFFCURVE",
"691 457 OFFCURVE",
"691 570 CURVE SMOOTH",
"691 638 OFFCURVE",
"680 679 OFFCURVE",
"659 710 CURVE SMOOTH",
"616 774 OFFCURVE",
"531 810 OFFCURVE",
"427 810 CURVE SMOOTH"
);
},
{
closed = 1;
nodes = (
"277 586 LINE",
"237 679 LINE",
"181 679 LINE",
"181 586 LINE"
);
}
);
width = 875;
}
);
leftKerningGroup = a;
rightKerningGroup = a;
unicode = 0061;
},
{
glyphname = b;
lastChange = "2019-05-17 22:14:23 +0000";
layers = (
{
layerId = "CA4EC710-46DE-40B5-AF89-3BCF48EEB297";
paths = (
{
closed = 1;
nodes = (
"266 195 OFFCURVE",
"294 110 OFFCURVE",
"348 59 CURVE SMOOTH",
"386 23 OFFCURVE",
"448 -7 OFFCURVE",
"526 -7 CURVE SMOOTH",
"718 -7 OFFCURVE",
"876 131 OFFCURVE",
"876 412 CURVE SMOOTH",
"876 690 OFFCURVE",
"735 807 OFFCURVE",
"573 807 CURVE SMOOTH",
"483 807 OFFCURVE",
"414 766 OFFCURVE",
"367 717 CURVE SMOOTH",
"294 640 OFFCURVE",
"270 543 OFFCURVE",
"270 399 CURVE",
"255 266 LINE"
);
},
{
closed = 1;
nodes = (
"651 739 OFFCURVE",
"720 639 OFFCURVE",
"720 400 CURVE SMOOTH",
"720 162 OFFCURVE",
"636 51 OFFCURVE",
"507 51 CURVE SMOOTH",
"450 51 OFFCURVE",
"404 74 OFFCURVE",
"367 122 CURVE SMOOTH",
"328 171 OFFCURVE",
"309 240 OFFCURVE",
"309 348 CURVE SMOOTH",
"309 532 OFFCURVE",
"350 616 OFFCURVE",
"388 661 CURVE SMOOTH",
"432 714 OFFCURVE",
"485 739 OFFCURVE",
"539 739 CURVE SMOOTH"
);
},
{
closed = 1;
nodes = (
"309 995 OFFCURVE",
"316 1133 OFFCURVE",
"331 1267 CURVE",
"321 1278 LINE",
"221 1268 OFFCURVE",
"120 1265 OFFCURVE",
"36 1265 CURVE",
"26 1255 LINE",
"25 1220 LINE",
"35 1210 LINE",
"97 1206 OFFCURVE",
"127 1196 OFFCURVE",
"144 1173 CURVE SMOOTH",
"166 1142 OFFCURVE",
"169 1061 OFFCURVE",
"169 950 CURVE",
"169 498 LINE",
"169 326 OFFCURVE",
"160 144 OFFCURVE",
"142 4 CURVE",
"150 -6 LINE",
"190 -6 LINE",
"206 3 LINE",
"237 53 OFFCURVE",
"267 98 OFFCURVE",
"298 148 CURVE",
"298 266 OFFCURVE",
"299 435 OFFCURVE",
"299 550 CURVE",
"309 550 LINE",
"309 887 LINE"
);
}
);
userData = {
com.typemytype.robofont.mark = (
0.967,
0.6,
1,
1
);
};
width = 950;
},
{
layerId = "25879A17-30FE-49F5-8BDD-4D78448C8558";
paths = (
{
closed = 1;
nodes = (
"255 188 OFFCURVE",
"282 108 OFFCURVE",
"341 52 CURVE SMOOTH",
"381 14 OFFCURVE",
"446 -17 OFFCURVE",
"526 -17 CURVE SMOOTH",
"723 -17 OFFCURVE",
"886 124 OFFCURVE",
"886 412 CURVE SMOOTH",
"886 697 OFFCURVE",
"740 817 OFFCURVE",
"573 817 CURVE SMOOTH",
"483 817 OFFCURVE",
"413 781 OFFCURVE",
"360 724 CURVE SMOOTH",
"288 646 OFFCURVE",
"260 535 OFFCURVE",
"260 400 CURVE",
"245 265 LINE"
);
},
{
closed = 1;
nodes = (
"645 729 OFFCURVE",
"710 632 OFFCURVE",
"710 400 CURVE SMOOTH",
"710 169 OFFCURVE",
"630 61 OFFCURVE",
"507 61 CURVE SMOOTH",
"453 61 OFFCURVE",
"410 83 OFFCURVE",
"375 128 CURVE SMOOTH",
"337 176 OFFCURVE",
"319 243 OFFCURVE",
"319 348 CURVE SMOOTH",
"319 531 OFFCURVE",
"359 611 OFFCURVE",
"396 655 CURVE SMOOTH",
"438 706 OFFCURVE",
"487 729 OFFCURVE",
"539 729 CURVE SMOOTH"
);
},
{
closed = 1;
nodes = (
"319 996 OFFCURVE",
"326 1134 OFFCURVE",
"342 1271 CURVE",
"324 1288 LINE",
"221 1278 OFFCURVE",
"117 1275 OFFCURVE",
"32 1275 CURVE",
"16 1259 LINE",
"15 1216 LINE",
"31 1200 LINE",
"91 1196 OFFCURVE",
"121 1187 OFFCURVE",
"136 1167 CURVE SMOOTH",
"156 1139 OFFCURVE",
"159 1059 OFFCURVE",
"159 950 CURVE SMOOTH",
"159 498 LINE SMOOTH",
"159 326 OFFCURVE",
"149 141 OFFCURVE",
"131 1 CURVE",
"146 -16 LINE",
"194 -16 LINE",
"213 -4 LINE",
"308 147 LINE",
"309 600 LINE",
"319 600 LINE",
"319 887 LINE SMOOTH"
);
}
);
width = 950;
}
);
rightKerningGroup = b;
unicode = 0062;
},
{
glyphname = c;
lastChange = "2019-05-17 22:14:23 +0000";
layers = (
{
layerId = "CA4EC710-46DE-40B5-AF89-3BCF48EEB297";
paths = (
{
closed = 1;
nodes = (
"487 -10 OFFCURVE",
"543 8 OFFCURVE",
"590 39 CURVE SMOOTH",
"656 82 OFFCURVE",
"699 152 OFFCURVE",
"713 279 CURVE",
"704 290 LINE",
"659 294 LINE",
"647 286 LINE",
"631 190 OFFCURVE",
"604 134 OFFCURVE",
"562 98 CURVE SMOOTH",
"529 71 OFFCURVE",
"490 58 OFFCURVE",
"436 58 CURVE SMOOTH",
"290 58 OFFCURVE",
"230 199 OFFCURVE",
"230 392 CURVE SMOOTH",
"230 616 OFFCURVE",
"314 761 OFFCURVE",
"450 761 CURVE SMOOTH",
"534 761 OFFCURVE",
"600 717 OFFCURVE",
"625 656 CURVE",
"557 641 OFFCURVE",
"535 594 OFFCURVE",
"535 557 CURVE SMOOTH",
"535 517 OFFCURVE",
"567 478 OFFCURVE",
"623 478 CURVE SMOOTH",
"671 478 OFFCURVE",
"714 515 OFFCURVE",
"714 584 CURVE SMOOTH",
"714 642 OFFCURVE",
"689 692 OFFCURVE",
"657 726 CURVE SMOOTH",
"610 776 OFFCURVE",
"538 813 OFFCURVE",
"438 813 CURVE SMOOTH",
"210 813 OFFCURVE",
"75 640 OFFCURVE",
"75 399 CURVE SMOOTH",
"75 152 OFFCURVE",
"193 -10 OFFCURVE",
"421 -10 CURVE SMOOTH"
);
}
);
userData = {
com.typemytype.robofont.mark = (
0.967,
0.6,
1,
1
);
};
width = 775;
},
{
layerId = "25879A17-30FE-49F5-8BDD-4D78448C8558";
paths = (
{
closed = 1;
nodes = (
"488 -20 OFFCURVE",
"546 -1 OFFCURVE",
"595 31 CURVE SMOOTH",
"664 76 OFFCURVE",
"708 151 OFFCURVE",
"723 282 CURVE",
"709 300 LINE",
"656 304 LINE",
"637 292 LINE",
"621 195 OFFCURVE",
"597 141 OFFCURVE",
"556 106 CURVE SMOOTH",
"524 80 OFFCURVE",
"487 68 OFFCURVE",
"436 68 CURVE SMOOTH",
"297 68 OFFCURVE",
"240 205 OFFCURVE",
"240 392 CURVE SMOOTH",
"240 610 OFFCURVE",
"320 751 OFFCURVE",
"450 751 CURVE SMOOTH",
"530 751 OFFCURVE",
"579 713 OFFCURVE",
"599 681 CURVE",
"595 659 LINE",
"483 606 OFFCURVE",
"514 468 OFFCURVE",
"623 468 CURVE SMOOTH",
"676 468 OFFCURVE",
"724 509 OFFCURVE",
"724 584 CURVE SMOOTH",
"724 644 OFFCURVE",
"698 697 OFFCURVE",
"664 733 CURVE SMOOTH",
"615 785 OFFCURVE",
"541 823 OFFCURVE",
"438 823 CURVE SMOOTH",
"204 823 OFFCURVE",
"65 646 OFFCURVE",
"65 399 CURVE SMOOTH",
"65 146 OFFCURVE",
"186 -20 OFFCURVE",
"421 -20 CURVE SMOOTH"
);
}
);
width = 775;
}
);
leftKerningGroup = e;
rightKerningGroup = c;
unicode = 0063;
},
{
glyphname = d;
lastChange = "2019-05-17 22:14:23 +0000";
layers = (
{
layerId = "CA4EC710-46DE-40B5-AF89-3BCF48EEB297";
paths = (
{
closed = 1;
nodes = (
"671 600 OFFCURVE",
"655 668 OFFCURVE",
"607 723 CURVE SMOOTH",
"566 770 OFFCURVE",
"508 807 OFFCURVE",
"417 807 CURVE SMOOTH",
"233 807 OFFCURVE",
"75 676 OFFCURVE",
"75 405 CURVE SMOOTH",
"75 117 OFFCURVE",
"216 -7 OFFCURVE",
"378 -7 CURVE SMOOTH",
"459 -7 OFFCURVE",
"534 32 OFFCURVE",
"584 83 CURVE SMOOTH",
"652 153 OFFCURVE",
"681 274 OFFCURVE",
"681 400 CURVE",
"681 530 LINE"
);
},
{
closed = 1;
nodes = (
"311 61 OFFCURVE",
"231 162 OFFCURVE",
"231 400 CURVE SMOOTH",
"231 638 OFFCURVE",
"303 749 OFFCURVE",
"429 749 CURVE SMOOTH",
"498 749 OFFCURVE",
"566 704 OFFCURVE",
"598 642 CURVE SMOOTH",
"622 594 OFFCURVE",
"642 533 OFFCURVE",
"642 428 CURVE SMOOTH",
"642 275 OFFCURVE",
"603 189 OFFCURVE",
"562 135 CURVE SMOOTH",
"520 79 OFFCURVE",
"472 61 OFFCURVE",
"419 61 CURVE SMOOTH"
);
},
{
closed = 1;
nodes = (
"782 995 OFFCURVE",
"789 1133 OFFCURVE",
"804 1267 CURVE",
"794 1278 LINE",
"694 1268 OFFCURVE",
"587 1265 OFFCURVE",
"503 1265 CURVE",
"493 1255 LINE",
"492 1220 LINE",
"502 1210 LINE",
"572 1207 OFFCURVE",
"600 1196 OFFCURVE",
"617 1173 CURVE SMOOTH",
"639 1142 OFFCURVE",
"642 1061 OFFCURVE",
"642 950 CURVE",
"642 584 LINE",
"652 584 LINE",
"652 192 LINE",
"652 139 OFFCURVE",
"654 66 OFFCURVE",
"661 9 CURVE",
"675 -2 LINE",
"748 8 OFFCURVE",
"831 10 OFFCURVE",
"909 10 CURVE",
"920 19 LINE",
"923 59 LINE",
"912 69 LINE",
"851 67 OFFCURVE",
"824 77 OFFCURVE",
"804 100 CURVE SMOOTH",
"781 127 OFFCURVE",
"782 175 OFFCURVE",
"782 245 CURVE",
"782 887 LINE"
);
}
);
userData = {
com.typemytype.robofont.mark = (
0.967,
0.6,
1,
1
);
};
width = 950;
},
{
layerId = "25879A17-30FE-49F5-8BDD-4D78448C8558";
paths = (
{
closed = 1;
nodes = (
"681 608 OFFCURVE",
"662 676 OFFCURVE",
"614 730 CURVE SMOOTH",
"570 779 OFFCURVE",
"512 817 OFFCURVE",
"417 817 CURVE SMOOTH",
"228 817 OFFCURVE",
"65 683 OFFCURVE",
"65 405 CURVE SMOOTH",
"65 110 OFFCURVE",
"211 -17 OFFCURVE",
"378 -17 CURVE SMOOTH",
"468 -17 OFFCURVE",
"538 19 OFFCURVE",
"591 76 CURVE SMOOTH",
"663 154 OFFCURVE",
"691 265 OFFCURVE",
"691 400 CURVE SMOOTH",
"691 531 LINE"
);
},
{
closed = 1;
nodes = (
"317 71 OFFCURVE",
"241 169 OFFCURVE",
"241 400 CURVE SMOOTH",
"241 631 OFFCURVE",
"309 739 OFFCURVE",
"429 739 CURVE SMOOTH",
"495 739 OFFCURVE",
"558 697 OFFCURVE",
"589 637 CURVE SMOOTH",
"614 589 OFFCURVE",
"632 533 OFFCURVE",
"632 428 CURVE SMOOTH",
"632 277 OFFCURVE",
"594 194 OFFCURVE",
"554 141 CURVE SMOOTH",
"514 88 OFFCURVE",
"469 71 OFFCURVE",
"419 71 CURVE SMOOTH"
);
},
{
closed = 1;
nodes = (
"792 996 OFFCURVE",
"799 1134 OFFCURVE",
"815 1271 CURVE",
"797 1288 LINE",
"694 1278 OFFCURVE",
"584 1275 OFFCURVE",
"499 1275 CURVE",
"483 1259 LINE",
"482 1216 LINE",
"498 1200 LINE",
"566 1197 OFFCURVE",
"594 1187 OFFCURVE",
"609 1167 CURVE SMOOTH",
"629 1139 OFFCURVE",
"632 1059 OFFCURVE",
"632 950 CURVE SMOOTH",
"632 651 LINE",
"642 651 LINE",
"642 192 LINE SMOOTH",
"642 136 OFFCURVE",
"645 60 OFFCURVE",
"652 2 CURVE",
"672 -13 LINE",
"747 -3 OFFCURVE",
"834 0 OFFCURVE",
"913 0 CURVE",
"930 15 LINE",
"933 63 LINE",
"916 79 LINE",
"857 77 OFFCURVE",
"830 86 OFFCURVE",
"812 107 CURVE SMOOTH",
"791 132 OFFCURVE",
"792 178 OFFCURVE",
"792 245 CURVE SMOOTH",
"792 887 LINE SMOOTH"
);
}
);
width = 950;
}
);
leftKerningGroup = e;
rightKerningGroup = l;
unicode = 0064;
},
{
glyphname = e;
lastChange = "2019-05-17 22:14:23 +0000";
layers = (
{
anchors = (
{
name = top;
position = "{410, 800}";
}
);
layerId = "CA4EC710-46DE-40B5-AF89-3BCF48EEB297";
paths = (
{
closed = 1;
nodes = (
"209 811 OFFCURVE",
"75 628 OFFCURVE",
"75 403 CURVE SMOOTH",
"75 148 OFFCURVE",
"219 -10 OFFCURVE",
"416 -10 CURVE SMOOTH",
"491 -10 OFFCURVE",
"550 7 OFFCURVE",
"597 38 CURVE SMOOTH",
"663 81 OFFCURVE",
"705 152 OFFCURVE",
"719 279 CURVE",
"710 290 LINE",
"665 294 LINE",
"653 286 LINE",
"637 190 OFFCURVE",
"612 133 OFFCURVE",
"569 97 CURVE SMOOTH",
"535 70 OFFCURVE",
"496 58 OFFCURVE",
"442 58 CURVE SMOOTH",
"328 58 OFFCURVE",
"231 154 OFFCURVE",
"231 408 CURVE",
"231 431 LINE",
"709 431 LINE",
"719 441 LINE",
"720 456 OFFCURVE",
"721 470 OFFCURVE",
"721 485 CURVE SMOOTH",
"721 690 OFFCURVE",
"613 811 OFFCURVE",
"419 811 CURVE SMOOTH"
);
},
{
closed = 1;
nodes = (
"470 759 OFFCURVE",
"502 742 OFFCURVE",
"526 709 CURVE SMOOTH",
"556 667 OFFCURVE",
"569 603 OFFCURVE",
"569 556 CURVE SMOOTH",
"569 508 OFFCURVE",
"547 485 OFFCURVE",
"508 485 CURVE",
"233 485 LINE",
"246 680 OFFCURVE",
"313 759 OFFCURVE",
"417 759 CURVE SMOOTH"
);
}
);
userData = {
com.typemytype.robofont.mark = (
0.967,
0.6,
1,
1
);
};
width = 775;
},
{
anchors = (
{
name = top;
position = "{410, 800}";
}
);
layerId = "25879A17-30FE-49F5-8BDD-4D78448C8558";
paths = (
{
closed = 1;
nodes = (
"203 821 OFFCURVE",
"65 634 OFFCURVE",
"65 403 CURVE SMOOTH",
"65 142 OFFCURVE",
"213 -20 OFFCURVE",
"416 -20 CURVE SMOOTH",
"492 -20 OFFCURVE",
"553 -2 OFFCURVE",
"602 30 CURVE SMOOTH",
"671 75 OFFCURVE",
"714 151 OFFCURVE",
"729 282 CURVE",
"715 300 LINE",
"662 304 LINE",
"643 292 LINE",
"627 195 OFFCURVE",
"604 140 OFFCURVE",
"563 105 CURVE SMOOTH",
"531 79 OFFCURVE",
"493 68 OFFCURVE",
"442 68 CURVE SMOOTH",
"333 68 OFFCURVE",
"241 161 OFFCURVE",
"241 408 CURVE SMOOTH",
"241 653 OFFCURVE",
"306 749 OFFCURVE",
"417 749 CURVE SMOOTH",
"466 749 OFFCURVE",
"496 733 OFFCURVE",
"518 703 CURVE SMOOTH",
"547 663 OFFCURVE",
"559 601 OFFCURVE",
"559 556 CURVE SMOOTH",
"559 515 OFFCURVE",
"541 495 OFFCURVE",
"508 495 CURVE SMOOTH",
"152 495 LINE",
"152 421 LINE",
"713 421 LINE",
"729 437 LINE",
"747 677 OFFCURVE",
"634 821 OFFCURVE",
"419 821 CURVE SMOOTH"
);
}
);
width = 775;
}
);
leftKerningGroup = e;
rightKerningGroup = e;
unicode = 0065;
},
{
glyphname = f;
lastChange = "2019-05-17 22:14:23 +0000";
layers = (
{
layerId = "CA4EC710-46DE-40B5-AF89-3BCF48EEB297";
paths = (
{
closed = 1;
nodes = (
"60 717 LINE",
"555 717 LINE",
"565 727 LINE",
"565 767 LINE",
"555 777 LINE",
"60 777 LINE",
"50 767 LINE",
"50 727 LINE"
);
},
{
closed = 1;
nodes = (
"220 135 OFFCURVE",
"211 108 OFFCURVE",
"180 87 CURVE SMOOTH",
"158 72 OFFCURVE",
"120 70 OFFCURVE",
"76 67 CURVE",
"65 56 LINE",
"65 18 LINE",
"75 8 LINE",
"126 8 OFFCURVE",
"169 11 OFFCURVE",
"208 13 CURVE SMOOTH",
"236 15 OFFCURVE",
"266 16 OFFCURVE",
"288 16 CURVE SMOOTH",
"315 16 OFFCURVE",
"347 15 OFFCURVE",
"381 13 CURVE SMOOTH",
"422 11 OFFCURVE",
"469 8 OFFCURVE",
"519 8 CURVE",
"529 18 LINE",
"529 56 LINE",
"519 66 LINE",
"428 71 OFFCURVE",
"385 81 OFFCURVE",
"371 105 CURVE SMOOTH",
"364 119 OFFCURVE",
"360 161 OFFCURVE",
"360 218 CURVE",
"360 988 LINE",
"360 1130 OFFCURVE",
"389 1225 OFFCURVE",
"480 1225 CURVE SMOOTH",
"521 1225 OFFCURVE",
"549 1205 OFFCURVE",
"566 1183 CURVE",
"557 1209 LINE",
"524 1193 OFFCURVE",
"500 1167 OFFCURVE",
"500 1126 CURVE SMOOTH",
"500 1090 OFFCURVE",
"529 1065 OFFCURVE",
"565 1065 CURVE SMOOTH",
"611 1065 OFFCURVE",
"644 1101 OFFCURVE",
"644 1151 CURVE SMOOTH",
"644 1215 OFFCURVE",
"589 1271 OFFCURVE",
"477 1271 CURVE SMOOTH",
"331 1271 OFFCURVE",
"220 1163 OFFCURVE",
"220 978 CURVE",
"220 227 LINE"
);
}
);
userData = {
com.typemytype.robofont.guides = (
{
angle = 0;
isGlobal = 0;
magnetic = 5;
x = 0;
y = 707;
}
);
com.typemytype.robofont.mark = (
0.656,
1,
0.6,
1
);
};
width = 650;
},
{
layerId = "25879A17-30FE-49F5-8BDD-4D78448C8558";
paths = (
{
closed = 1;
nodes = (
"56 707 LINE",
"559 707 LINE",
"575 723 LINE",
"575 771 LINE",
"559 787 LINE",
"56 787 LINE",
"40 771 LINE",
"40 723 LINE"
);
},
{
closed = 1;
nodes = (
"210 138 OFFCURVE",
"202 113 OFFCURVE",
"175 95 CURVE SMOOTH",
"154 81 OFFCURVE",
"113 79 OFFCURVE",
"71 76 CURVE",
"55 60 LINE",
"55 14 LINE",
"71 -2 LINE",
"163 -2 OFFCURVE",
"235 6 OFFCURVE",
"288 6 CURVE SMOOTH",
"348 6 OFFCURVE",
"430 -2 OFFCURVE",
"523 -2 CURVE",
"539 14 LINE",
"539 60 LINE",
"523 76 LINE",
"430 81 OFFCURVE",
"389 87 OFFCURVE",
"380 109 CURVE SMOOTH",
"374 122 OFFCURVE",
"370 161 OFFCURVE",
"370 218 CURVE SMOOTH",
"370 988 LINE SMOOTH",
"370 1124 OFFCURVE",
"397 1215 OFFCURVE",
"480 1215 CURVE SMOOTH",
"494 1215 OFFCURVE",
"506 1213 OFFCURVE",
"514 1210 CURVE",
"514 1188 LINE",
"500 1170 OFFCURVE",
"490 1153 OFFCURVE",
"490 1126 CURVE SMOOTH",
"490 1084 OFFCURVE",
"523 1055 OFFCURVE",
"565 1055 CURVE SMOOTH",
"617 1055 OFFCURVE",
"654 1095 OFFCURVE",
"654 1151 CURVE SMOOTH",
"654 1220 OFFCURVE",
"596 1281 OFFCURVE",
"477 1281 CURVE SMOOTH",
"325 1281 OFFCURVE",
"210 1169 OFFCURVE",
"210 978 CURVE SMOOTH",
"210 227 LINE SMOOTH"
);
}
);
width = 650;
}
);
leftKerningGroup = f;
rightKerningGroup = f;
unicode = 0066;
},
{
glyphname = g;
lastChange = "2019-05-17 22:30:35 +0000";
layers = (
{
background = {
paths = (
{
closed = 1;
nodes = (
"717 681 OFFCURVE",
"590 811 OFFCURVE",
"414 811 CURVE SMOOTH",
"237 811 OFFCURVE",
"110 687 OFFCURVE",
"110 536 CURVE SMOOTH",
"110 384 OFFCURVE",
"237 260 OFFCURVE",
"414 260 CURVE SMOOTH",
"598 260 OFFCURVE",
"717 384 OFFCURVE",
"717 536 CURVE SMOOTH"
);
},
{
closed = 1;
nodes = (
"567 409 OFFCURVE",
"521 312 OFFCURVE",
"414 312 CURVE SMOOTH",
"315 312 OFFCURVE",
"260 398 OFFCURVE",
"260 536 CURVE SMOOTH",
"260 682 OFFCURVE",
"322 759 OFFCURVE",
"414 759 CURVE SMOOTH",
"506 759 OFFCURVE",
"567 674 OFFCURVE",
"567 536 CURVE SMOOTH"
);
},
{
closed = 1;
nodes = (
"285 -29 LINE",
"336 -29 OFFCURVE",
"455 -22 OFFCURVE",
"506 -22 CURVE SMOOTH",
"655 -22 OFFCURVE",
"725 -79 OFFCURVE",
"725 -171 CURVE SMOOTH",
"725 -276 OFFCURVE",
"612 -381 OFFCURVE",
"422 -377 CURVE SMOOTH",
"258 -374 OFFCURVE",
"185 -282 OFFCURVE",
"185 -191 CURVE SMOOTH",
"185 -128 OFFCURVE",
"218 -61 OFFCURVE",
"291 -19 CURVE",
"228 -11 LINE",
"137 -44 OFFCURVE",
"67 -128 OFFCURVE",
"67 -212 CURVE SMOOTH",
"67 -333 OFFCURVE",
"190 -431 OFFCURVE",
"420 -431 CURVE SMOOTH",
"678 -431 OFFCURVE",
"824 -291 OFFCURVE",
"824 -120 CURVE SMOOTH",
"824 17 OFFCURVE",
"740 114 OFFCURVE",
"549 114 CURVE SMOOTH",
"514 114 OFFCURVE",
"353 107 OFFCURVE",
"304 107 CURVE SMOOTH",
"238 107 OFFCURVE",
"194 127 OFFCURVE",
"194 179 CURVE SMOOTH",
"194 217 OFFCURVE",
"217 266 OFFCURVE",
"321 266 CURVE SMOOTH",
"335 266 OFFCURVE",
"349 266 OFFCURVE",
"365 264 CURVE",
"370 301 LINE",
"350 303 OFFCURVE",
"334 304 OFFCURVE",
"317 304 CURVE SMOOTH",
"171 304 OFFCURVE",
"100 226 OFFCURVE",
"100 140 CURVE SMOOTH",
"100 56 OFFCURVE",
"152 -3 OFFCURVE",
"228 -22 CURVE SMOOTH"
);
},
{
closed = 1;
nodes = (
"695 704 OFFCURVE",
"746 754 OFFCURVE",
"823 758 CURVE",
"801 760 LINE",
"777 749 OFFCURVE",
"754 725 OFFCURVE",
"754 686 CURVE SMOOTH",
"754 658 OFFCURVE",
"772 633 OFFCURVE",
"811 632 CURVE SMOOTH",
"849 631 OFFCURVE",
"882 661 OFFCURVE",
"882 715 CURVE SMOOTH",
"882 766 OFFCURVE",
"853 807 OFFCURVE",
"792 807 CURVE SMOOTH",
"730 807 OFFCURVE",
"668 755 OFFCURVE",
"629 685 CURVE",
"674 659 LINE"
);
}
);
};
layerId = "CA4EC710-46DE-40B5-AF89-3BCF48EEB297";
paths = (
{
closed = 1;
nodes = (
"678 -431 OFFCURVE",
"824 -291 OFFCURVE",
"824 -120 CURVE SMOOTH",
"824 17 OFFCURVE",
"740 114 OFFCURVE",
"549 114 CURVE SMOOTH",
"514 114 OFFCURVE",
"353 107 OFFCURVE",
"304 107 CURVE SMOOTH",
"238 107 OFFCURVE",
"194 127 OFFCURVE",
"194 179 CURVE SMOOTH",
"194 259 OFFCURVE",
"287 274 OFFCURVE",
"365 264 CURVE",
"370 301 LINE",
"228 316 OFFCURVE",
"100 267 OFFCURVE",
"100 140 CURVE SMOOTH",
"100 34 OFFCURVE",
"180 -29 OFFCURVE",
"285 -29 CURVE SMOOTH",
"338 -29 OFFCURVE",
"455 -22 OFFCURVE",
"506 -22 CURVE SMOOTH",
"655 -22 OFFCURVE",
"725 -79 OFFCURVE",
"725 -171 CURVE SMOOTH",
"725 -276 OFFCURVE",
"612 -381 OFFCURVE",
"422 -377 CURVE SMOOTH",
"258 -374 OFFCURVE",
"185 -282 OFFCURVE",
"185 -191 CURVE SMOOTH",
"185 -128 OFFCURVE",
"218 -61 OFFCURVE",
"291 -19 CURVE",
"228 -11 LINE",
"137 -44 OFFCURVE",
"67 -128 OFFCURVE",
"67 -212 CURVE SMOOTH",
"67 -333 OFFCURVE",
"190 -431 OFFCURVE",
"420 -431 CURVE SMOOTH"
);
},
{
closed = 1;
nodes = (
"598 260 OFFCURVE",
"717 384 OFFCURVE",
"717 536 CURVE SMOOTH",
"717 681 OFFCURVE",
"590 811 OFFCURVE",
"414 811 CURVE SMOOTH",
"237 811 OFFCURVE",
"110 687 OFFCURVE",
"110 536 CURVE SMOOTH",
"110 384 OFFCURVE",
"237 260 OFFCURVE",
"414 260 CURVE SMOOTH"
);
},
{
closed = 1;
nodes = (
"315 312 OFFCURVE",
"260 398 OFFCURVE",
"260 536 CURVE SMOOTH",
"260 682 OFFCURVE",
"322 759 OFFCURVE",
"414 759 CURVE SMOOTH",
"506 759 OFFCURVE",
"567 674 OFFCURVE",
"567 536 CURVE SMOOTH",
"567 409 OFFCURVE",
"521 312 OFFCURVE",
"414 312 CURVE SMOOTH"
);
},
{
closed = 1;
nodes = (
"849 631 OFFCURVE",
"882 661 OFFCURVE",
"882 715 CURVE SMOOTH",
"882 766 OFFCURVE",
"853 807 OFFCURVE",
"792 807 CURVE SMOOTH",
"730 807 OFFCURVE",
"668 755 OFFCURVE",
"629 685 CURVE",
"674 659 LINE",
"695 704 OFFCURVE",
"746 754 OFFCURVE",
"823 758 CURVE",
"801 760 LINE",
"738 731 OFFCURVE",
"734 634 OFFCURVE",
"811 632 CURVE SMOOTH"
);
}
);
userData = {
com.typemytype.robofont.mark = (
0.656,
1,
0.6,
1
);
};
width = 900;
},
{
layerId = "25879A17-30FE-49F5-8BDD-4D78448C8558";
paths = (
{
closed = 1;
nodes = (
"684 -441 OFFCURVE",
"834 -297 OFFCURVE",
"834 -120 CURVE SMOOTH",
"834 23 OFFCURVE",
"747 124 OFFCURVE",
"549 124 CURVE SMOOTH",
"487 124 OFFCURVE",
"387 117 OFFCURVE",
"304 117 CURVE SMOOTH",
"244 117 OFFCURVE",
"204 134 OFFCURVE",
"204 179 CURVE SMOOTH",
"204 218 OFFCURVE",
"233 270 OFFCURVE",
"374 252 CURVE",
"381 310 LINE",
"184 336 OFFCURVE",
"90 243 OFFCURVE",
"90 140 CURVE SMOOTH",
"90 31 OFFCURVE",
"175 -39 OFFCURVE",
"285 -39 CURVE SMOOTH",
"360 -39 OFFCURVE",
"442 -32 OFFCURVE",
"506 -32 CURVE SMOOTH",
"648 -32 OFFCURVE",
"715 -85 OFFCURVE",
"715 -171 CURVE SMOOTH",
"715 -271 OFFCURVE",
"606 -371 OFFCURVE",
"422 -367 CURVE SMOOTH",
"265 -364 OFFCURVE",
"195 -277 OFFCURVE",
"195 -191 CURVE SMOOTH",
"195 -131 OFFCURVE",
"232 -64 OFFCURVE",
"301 -25 CURVE",
"216 -4 LINE",
"124 -42 OFFCURVE",
"57 -126 OFFCURVE",
"57 -212 CURVE SMOOTH",
"57 -339 OFFCURVE",
"183 -441 OFFCURVE",
"420 -441 CURVE SMOOTH"
);
},
{
closed = 1;
nodes = (
"604 250 OFFCURVE",
"727 378 OFFCURVE",
"727 536 CURVE SMOOTH",
"727 686 OFFCURVE",
"596 821 OFFCURVE",
"414 821 CURVE SMOOTH",
"231 821 OFFCURVE",
"100 693 OFFCURVE",
"100 536 CURVE SMOOTH",
"100 378 OFFCURVE",
"231 250 OFFCURVE",
"414 250 CURVE SMOOTH"
);
},
{
closed = 1;
nodes = (
"321 322 OFFCURVE",
"270 404 OFFCURVE",
"270 536 CURVE SMOOTH",
"270 675 OFFCURVE",
"328 749 OFFCURVE",
"414 749 CURVE SMOOTH",
"500 749 OFFCURVE",
"557 668 OFFCURVE",
"557 536 CURVE SMOOTH",
"557 415 OFFCURVE",
"514 322 OFFCURVE",
"414 322 CURVE SMOOTH"
);
},
{
closed = 1;
nodes = (
"854 621 OFFCURVE",
"892 655 OFFCURVE",
"892 715 CURVE SMOOTH",
"892 772 OFFCURVE",
"860 817 OFFCURVE",
"792 817 CURVE SMOOTH",
"723 817 OFFCURVE",
"656 759 OFFCURVE",
"616 682 CURVE",
"680 643 LINE",
"697 697 OFFCURVE",
"739 727 OFFCURVE",
"785 741 CURVE",
"806 767 LINE",
"726 743 OFFCURVE",
"719 624 OFFCURVE",
"811 622 CURVE SMOOTH"
);
}
);
width = 900;
}
);
leftKerningGroup = g;
rightKerningGroup = g;
unicode = 0067;
},
{
glyphname = h;
lastChange = "2019-05-17 22:14:23 +0000";
layers = (
{
layerId = "CA4EC710-46DE-40B5-AF89-3BCF48EEB297";
paths = (
{
closed = 1;
nodes = (
"642 74 OFFCURVE",
"609 67 OFFCURVE",
"568 66 CURVE",
"558 56 LINE",
"558 18 LINE",
"568 8 LINE",
"617 8 OFFCURVE",
"658 11 OFFCURVE",
"694 13 CURVE SMOOTH",
"718 15 OFFCURVE",
"743 16 OFFCURVE",
"759 16 CURVE SMOOTH",
"777 16 OFFCURVE",
"800 15 OFFCURVE",
"827 13 CURVE SMOOTH",
"865 11 OFFCURVE",
"910 8 OFFCURVE",
"964 8 CURVE",
"974 18 LINE",
"974 56 LINE",
"964 66 LINE",
"885 67 OFFCURVE",
"863 72 OFFCURVE",
"848 95 CURVE SMOOTH",
"837 113 OFFCURVE",
"830 146 OFFCURVE",
"830 256 CURVE SMOOTH",
"830 290 OFFCURVE",
"831 331 OFFCURVE",
"832 373 CURVE SMOOTH",
"833 414 OFFCURVE",
"835 465 OFFCURVE",
"835 502 CURVE SMOOTH",
"835 644 OFFCURVE",
"804 709 OFFCURVE",
"752 756 CURVE SMOOTH",
"718 787 OFFCURVE",
"664 807 OFFCURVE",
"596 807 CURVE SMOOTH",
"528 807 OFFCURVE",
"473 787 OFFCURVE",
"428 751 CURVE SMOOTH",
"377 711 OFFCURVE",
"330 638 OFFCURVE",
"296 548 CURVE",
"338 532 LINE",
"359 585 OFFCURVE",
"387 635 OFFCURVE",
"418 666 CURVE SMOOTH",
"451 699 OFFCURVE",
"500 723 OFFCURVE",
"549 723 CURVE SMOOTH",
"581 723 OFFCURVE",
"610 714 OFFCURVE",
"636 694 CURVE SMOOTH",
"683 656 OFFCURVE",
"696 600 OFFCURVE",
"696 467 CURVE SMOOTH",
"696 398 OFFCURVE",
"695 304 OFFCURVE",
"692 248 CURVE SMOOTH",
"687 151 OFFCURVE",
"680 112 OFFCURVE",
"661 93 CURVE SMOOTH"
);
},
{
closed = 1;
nodes = (
"338 995 OFFCURVE",
"345 1133 OFFCURVE",
"360 1267 CURVE",
"350 1278 LINE",
"250 1268 OFFCURVE",
"152 1265 OFFCURVE",
"68 1265 CURVE",
"58 1255 LINE",
"57 1220 LINE",
"67 1210 LINE",
"130 1207 OFFCURVE",
"156 1196 OFFCURVE",
"173 1173 CURVE SMOOTH",
"195 1142 OFFCURVE",
"198 1061 OFFCURVE",
"198 950 CURVE",
"198 227 LINE",
"198 134 OFFCURVE",
"189 107 OFFCURVE",
"159 87 CURVE SMOOTH",
"136 72 OFFCURVE",
"108 69 OFFCURVE",
"68 66 CURVE",
"58 56 LINE",
"58 18 LINE",
"68 8 LINE",
"122 8 OFFCURVE",
"166 11 OFFCURVE",
"202 13 CURVE SMOOTH",
"225 15 OFFCURVE",
"250 16 OFFCURVE",
"265 16 CURVE SMOOTH",
"281 16 OFFCURVE",
"307 15 OFFCURVE",
"331 13 CURVE SMOOTH",
"368 11 OFFCURVE",
"411 8 OFFCURVE",
"462 8 CURVE",
"472 18 LINE",
"472 56 LINE",
"462 66 LINE",
"390 68 OFFCURVE",
"364 69 OFFCURVE",
"349 95 CURVE SMOOTH",
"339 113 OFFCURVE",
"338 159 OFFCURVE",
"338 218 CURVE",
"338 887 LINE"
);
}
);
userData = {
com.typemytype.robofont.mark = (
0.656,
1,
0.6,
1
);
};
width = 1000;
},
{
layerId = "25879A17-30FE-49F5-8BDD-4D78448C8558";
paths = (
{
closed = 1;
nodes = (
"636 82 OFFCURVE",
"605 77 OFFCURVE",
"564 76 CURVE",
"548 60 LINE",
"548 14 LINE",
"564 -2 LINE",
"649 -2 OFFCURVE",
"718 6 OFFCURVE",
"759 6 CURVE SMOOTH",
"803 6 OFFCURVE",
"874 -2 OFFCURVE",
"968 -2 CURVE",
"984 14 LINE",
"984 60 LINE",
"968 76 LINE",
"888 77 OFFCURVE",
"868 81 OFFCURVE",
"856 100 CURVE SMOOTH",
"846 116 OFFCURVE",
"840 148 OFFCURVE",
"840 256 CURVE SMOOTH",
"840 326 OFFCURVE",
"845 425 OFFCURVE",
"845 502 CURVE SMOOTH",
"845 648 OFFCURVE",
"813 715 OFFCURVE",
"759 763 CURVE SMOOTH",
"723 796 OFFCURVE",
"667 817 OFFCURVE",
"596 817 CURVE SMOOTH",
"526 817 OFFCURVE",
"469 796 OFFCURVE",
"422 759 CURVE SMOOTH",
"368 716 OFFCURVE",
"321 640 OFFCURVE",
"285 543 CURVE",
"344 519 LINE",
"365 576 OFFCURVE",
"391 625 OFFCURVE",
"425 659 CURVE SMOOTH",
"456 690 OFFCURVE",
"503 713 OFFCURVE",
"549 713 CURVE SMOOTH",
"579 713 OFFCURVE",
"606 705 OFFCURVE",
"630 686 CURVE SMOOTH",
"674 651 OFFCURVE",
"686 596 OFFCURVE",
"686 467 CURVE SMOOTH",
"686 398 OFFCURVE",
"685 305 OFFCURVE",
"682 249 CURVE SMOOTH",
"677 151 OFFCURVE",
"671 117 OFFCURVE",
"654 100 CURVE SMOOTH"
);
},
{
closed = 1;
nodes = (
"348 996 OFFCURVE",
"355 1134 OFFCURVE",
"371 1271 CURVE",
"353 1288 LINE",
"250 1278 OFFCURVE",
"149 1275 OFFCURVE",
"64 1275 CURVE",
"48 1259 LINE",
"47 1216 LINE",
"63 1200 LINE",
"124 1197 OFFCURVE",
"150 1187 OFFCURVE",
"165 1167 CURVE SMOOTH",
"185 1139 OFFCURVE",
"188 1059 OFFCURVE",
"188 950 CURVE SMOOTH",
"188 227 LINE SMOOTH",
"188 138 OFFCURVE",
"180 113 OFFCURVE",
"153 95 CURVE SMOOTH",
"132 81 OFFCURVE",
"106 79 OFFCURVE",
"64 76 CURVE",
"48 60 LINE",
"48 14 LINE",
"64 -2 LINE",
"156 -2 OFFCURVE",
"224 6 OFFCURVE",
"265 6 CURVE SMOOTH",
"307 6 OFFCURVE",
"377 -2 OFFCURVE",
"466 -2 CURVE",
"482 14 LINE",
"482 60 LINE",
"466 76 LINE",
"396 78 OFFCURVE",
"370 79 OFFCURVE",
"358 100 CURVE SMOOTH",
"349 116 OFFCURVE",
"348 161 OFFCURVE",
"348 218 CURVE SMOOTH",
"348 887 LINE SMOOTH"
);
}
);
width = 1000;
}
);
leftKerningGroup = h;
rightKerningGroup = n;
unicode = 0068;
},
{
glyphname = i;
lastChange = "2019-05-17 22:14:23 +0000";
layers = (
{
layerId = "CA4EC710-46DE-40B5-AF89-3BCF48EEB297";
paths = (
{
closed = 1;
nodes = (
"360 554 OFFCURVE",
"367 694 OFFCURVE",
"376 792 CURVE",
"366 802 LINE",
"271 792 OFFCURVE",
"164 790 OFFCURVE",
"90 790 CURVE",
"80 780 LINE",
"79 745 LINE",
"89 735 LINE",
"148 732 OFFCURVE",
"179 721 OFFCURVE",
"195 698 CURVE SMOOTH",
"217 667 OFFCURVE",
"220 586 OFFCURVE",
"220 475 CURVE",
"220 227 LINE",
"220 134 OFFCURVE",
"211 107 OFFCURVE",
"181 87 CURVE SMOOTH",
"158 72 OFFCURVE",
"130 69 OFFCURVE",
"90 66 CURVE",
"80 56 LINE",
"80 18 LINE",
"90 8 LINE",
"144 8 OFFCURVE",
"188 11 OFFCURVE",
"224 13 CURVE SMOOTH",
"247 15 OFFCURVE",
"272 16 OFFCURVE",
"287 16 CURVE SMOOTH",
"303 16 OFFCURVE",
"328 15 OFFCURVE",
"352 13 CURVE SMOOTH",
"390 11 OFFCURVE",
"436 8 OFFCURVE",
"490 8 CURVE",
"500 18 LINE",
"500 56 LINE",
"490 66 LINE",
"417 68 OFFCURVE",
"386 69 OFFCURVE",
"371 95 CURVE SMOOTH",
"361 113 OFFCURVE",
"360 159 OFFCURVE",
"360 218 CURVE",
"360 446 LINE"
);
},
{
closed = 1;
nodes = (
"183 1059 OFFCURVE",
"223 1015 OFFCURVE",
"282 1015 CURVE SMOOTH",
"343 1015 OFFCURVE",
"381 1059 OFFCURVE",
"381 1111 CURVE SMOOTH",
"381 1163 OFFCURVE",
"341 1207 OFFCURVE",
"282 1207 CURVE SMOOTH",
"219 1207 OFFCURVE",
"183 1163 OFFCURVE",
"183 1111 CURVE SMOOTH"
);
}
);
userData = {
com.typemytype.robofont.mark = (
0.967,
0.6,
1,
1
);
};
width = 550;
},
{
layerId = "25879A17-30FE-49F5-8BDD-4D78448C8558";
paths = (
{
closed = 1;
nodes = (
"370 555 OFFCURVE",
"378 698 OFFCURVE",
"387 796 CURVE",
"369 813 LINE",
"271 802 OFFCURVE",
"161 800 OFFCURVE",
"86 800 CURVE",
"70 784 LINE",
"69 741 LINE",
"85 725 LINE",
"142 722 OFFCURVE",
"172 712 OFFCURVE",
"187 692 CURVE SMOOTH",
"207 664 OFFCURVE",
"210 584 OFFCURVE",
"210 475 CURVE SMOOTH",
"210 227 LINE SMOOTH",
"210 138 OFFCURVE",
"202 113 OFFCURVE",
"175 95 CURVE SMOOTH",
"154 81 OFFCURVE",
"128 79 OFFCURVE",
"86 76 CURVE",
"70 60 LINE",
"70 14 LINE",
"86 -2 LINE",
"178 -2 OFFCURVE",
"246 6 OFFCURVE",
"287 6 CURVE SMOOTH",
"329 6 OFFCURVE",
"400 -2 OFFCURVE",
"494 -2 CURVE",
"510 14 LINE",
"510 60 LINE",
"494 76 LINE",
"424 78 OFFCURVE",
"392 79 OFFCURVE",
"380 100 CURVE SMOOTH",
"371 116 OFFCURVE",
"370 161 OFFCURVE",
"370 218 CURVE SMOOTH",
"370 446 LINE SMOOTH"
);
},
{
closed = 1;
nodes = (
"173 1054 OFFCURVE",
"217 1005 OFFCURVE",
"282 1005 CURVE SMOOTH",
"349 1005 OFFCURVE",
"391 1054 OFFCURVE",
"391 1111 CURVE SMOOTH",
"391 1168 OFFCURVE",
"347 1217 OFFCURVE",
"282 1217 CURVE SMOOTH",
"213 1217 OFFCURVE",
"173 1168 OFFCURVE",
"173 1111 CURVE SMOOTH"
);
}
);
width = 550;
}
);
leftKerningGroup = i;
rightKerningGroup = i;
unicode = 0069;
},
{
glyphname = idotless;
lastChange = "2019-05-17 22:14:23 +0000";
layers = (
{
anchors = (
{
name = top;
position = "{282, 800}";
}
);
layerId = "CA4EC710-46DE-40B5-AF89-3BCF48EEB297";
paths = (
{
closed = 1;
nodes = (
"360 554 OFFCURVE",
"367 694 OFFCURVE",
"376 792 CURVE",
"366 802 LINE",
"271 792 OFFCURVE",
"164 790 OFFCURVE",
"90 790 CURVE",
"80 780 LINE",
"79 745 LINE",
"89 735 LINE",
"148 732 OFFCURVE",
"179 721 OFFCURVE",
"195 698 CURVE SMOOTH",
"217 667 OFFCURVE",
"220 586 OFFCURVE",
"220 475 CURVE",
"220 227 LINE",
"220 134 OFFCURVE",
"211 107 OFFCURVE",
"181 87 CURVE SMOOTH",
"158 72 OFFCURVE",
"130 69 OFFCURVE",
"90 66 CURVE",
"80 56 LINE",
"80 18 LINE",
"90 8 LINE",
"144 8 OFFCURVE",
"188 11 OFFCURVE",
"224 13 CURVE SMOOTH",
"247 15 OFFCURVE",
"272 16 OFFCURVE",
"287 16 CURVE SMOOTH",
"303 16 OFFCURVE",
"328 15 OFFCURVE",
"352 13 CURVE SMOOTH",
"390 11 OFFCURVE",
"436 8 OFFCURVE",
"490 8 CURVE",
"500 18 LINE",
"500 56 LINE",
"490 66 LINE",
"417 68 OFFCURVE",
"386 69 OFFCURVE",
"371 95 CURVE SMOOTH",
"361 113 OFFCURVE",
"360 159 OFFCURVE",
"360 218 CURVE",
"360 446 LINE"
);
}
);
userData = {
com.typemytype.robofont.mark = (
0.967,
0.6,
1,
1
);
};
width = 550;
},
{
anchors = (
{
name = top;
position = "{282, 800}";
}
);
layerId = "25879A17-30FE-49F5-8BDD-4D78448C8558";
paths = (
{
closed = 1;
nodes = (
"370 555 OFFCURVE",
"378 698 OFFCURVE",
"387 796 CURVE",
"369 813 LINE",
"271 802 OFFCURVE",
"161 800 OFFCURVE",
"86 800 CURVE",
"70 784 LINE",
"69 741 LINE",
"85 725 LINE",
"142 722 OFFCURVE",
"172 712 OFFCURVE",
"187 692 CURVE SMOOTH",
"207 664 OFFCURVE",
"210 584 OFFCURVE",
"210 475 CURVE SMOOTH",
"210 227 LINE SMOOTH",
"210 138 OFFCURVE",
"202 113 OFFCURVE",
"175 95 CURVE SMOOTH",
"154 81 OFFCURVE",
"128 79 OFFCURVE",
"86 76 CURVE",
"70 60 LINE",
"70 14 LINE",
"86 -2 LINE",
"178 -2 OFFCURVE",
"246 6 OFFCURVE",
"287 6 CURVE SMOOTH",
"329 6 OFFCURVE",
"400 -2 OFFCURVE",
"494 -2 CURVE",
"510 14 LINE",
"510 60 LINE",
"494 76 LINE",
"424 78 OFFCURVE",
"392 79 OFFCURVE",
"380 100 CURVE SMOOTH",
"371 116 OFFCURVE",
"370 161 OFFCURVE",
"370 218 CURVE SMOOTH",
"370 446 LINE SMOOTH"
);
}
);
width = 550;
}
);
leftKerningGroup = n;
rightKerningGroup = u;
unicode = 0131;
},
{
glyphname = j;
lastChange = "2019-05-17 22:14:23 +0000";
layers = (
{
layerId = "CA4EC710-46DE-40B5-AF89-3BCF48EEB297";
paths = (
{
closed = 1;
nodes = (
"226 -405 OFFCURVE",
"283 -378 OFFCURVE",
"315 -339 CURVE",
"348 -296 OFFCURVE",
"365 -230 OFFCURVE",
"365 -157 CURVE",
"365 446 LINE",
"365 554 OFFCURVE",
"372 694 OFFCURVE",
"381 792 CURVE",
"371 802 LINE",
"276 792 OFFCURVE",
"148 790 OFFCURVE",
"73 790 CURVE",
"63 780 LINE",
"62 745 LINE",
"72 735 LINE",
"146 731 OFFCURVE",
"183 721 OFFCURVE",
"200 698 CURVE SMOOTH",
"222 667 OFFCURVE",
"225 586 OFFCURVE",
"225 475 CURVE",
"225 -179 LINE",
"225 -234 OFFCURVE",
"222 -284 OFFCURVE",
"209 -313 CURVE SMOOTH",
"196 -344 OFFCURVE",
"170 -359 OFFCURVE",
"138 -359 CURVE SMOOTH",
"100 -359 OFFCURVE",
"76 -338 OFFCURVE",
"61 -320 CURVE",
"61 -338 LINE",
"101 -321 OFFCURVE",
"144 -277 OFFCURVE",
"144 -222 CURVE SMOOTH",
"144 -183 OFFCURVE",
"119 -142 OFFCURVE",
"67 -142 CURVE SMOOTH",
"8 -142 OFFCURVE",
"-27 -193 OFFCURVE",
"-27 -251 CURVE SMOOTH",
"-27 -332 OFFCURVE",
"35 -405 OFFCURVE",
"153 -405 CURVE SMOOTH"
);
},
{
closed = 1;
nodes = (
"188 1059 OFFCURVE",
"228 1015 OFFCURVE",
"287 1015 CURVE SMOOTH",
"348 1015 OFFCURVE",
"386 1059 OFFCURVE",
"386 1111 CURVE SMOOTH",
"386 1163 OFFCURVE",
"346 1207 OFFCURVE",
"287 1207 CURVE SMOOTH",
"224 1207 OFFCURVE",
"188 1163 OFFCURVE",
"188 1111 CURVE SMOOTH"
);
}
);
userData = {
com.typemytype.robofont.guides = (
{
angle = 90;
isGlobal = 0;
magnetic = 5;
x = 306;
y = 0;
}
);
com.typemytype.robofont.mark = (
0.967,
0.6,
1,
1
);
};
width = 525;
},
{
layerId = "25879A17-30FE-49F5-8BDD-4D78448C8558";
paths = (
{
closed = 1;
nodes = (
"230 -415 OFFCURVE",
"289 -387 OFFCURVE",
"323 -345 CURVE SMOOTH",
"358 -301 OFFCURVE",
"375 -234 OFFCURVE",
"375 -157 CURVE SMOOTH",
"375 446 LINE SMOOTH",
"375 555 OFFCURVE",
"383 698 OFFCURVE",
"392 796 CURVE",
"374 813 LINE",
"276 802 OFFCURVE",
"144 800 OFFCURVE",
"69 800 CURVE",
"53 784 LINE",
"52 741 LINE",
"68 725 LINE",
"140 721 OFFCURVE",
"177 712 OFFCURVE",
"192 692 CURVE SMOOTH",
"212 664 OFFCURVE",
"215 584 OFFCURVE",
"215 475 CURVE SMOOTH",
"215 -179 LINE SMOOTH",
"215 -233 OFFCURVE",
"212 -282 OFFCURVE",
"200 -309 CURVE SMOOTH",
"188 -336 OFFCURVE",
"166 -349 OFFCURVE",
"140 -349 CURVE SMOOTH",
"129 -349 OFFCURVE",
"116 -347 OFFCURVE",
"106 -342 CURVE",
"106 -320 LINE",
"134 -295 OFFCURVE",
"154 -265 OFFCURVE",
"154 -222 CURVE SMOOTH",
"154 -178 OFFCURVE",
"126 -132 OFFCURVE",
"67 -132 CURVE SMOOTH",
"2 -132 OFFCURVE",
"-37 -188 OFFCURVE",
"-37 -251 CURVE SMOOTH",
"-37 -337 OFFCURVE",
"29 -415 OFFCURVE",
"149 -415 CURVE SMOOTH"
);
},
{
closed = 1;
nodes = (
"178 1054 OFFCURVE",
"222 1005 OFFCURVE",
"287 1005 CURVE SMOOTH",
"354 1005 OFFCURVE",
"396 1054 OFFCURVE",
"396 1111 CURVE SMOOTH",
"396 1168 OFFCURVE",
"352 1217 OFFCURVE",
"287 1217 CURVE SMOOTH",
"218 1217 OFFCURVE",
"178 1168 OFFCURVE",
"178 1111 CURVE SMOOTH"
);
}
);
width = 525;
}
);
leftKerningGroup = j;
rightKerningGroup = j;
unicode = 006A;
},
{
glyphname = k;
lastChange = "2019-05-17 22:14:23 +0000";
layers = (
{
layerId = "CA4EC710-46DE-40B5-AF89-3BCF48EEB297";
paths = (
{
closed = 1;
nodes = (
"338 995 OFFCURVE",
"345 1133 OFFCURVE",
"360 1267 CURVE",
"350 1278 LINE",
"250 1268 OFFCURVE",
"143 1265 OFFCURVE",
"68 1265 CURVE",
"58 1255 LINE",
"57 1220 LINE",
"67 1210 LINE",
"126 1207 OFFCURVE",
"157 1196 OFFCURVE",
"173 1173 CURVE SMOOTH",
"195 1142 OFFCURVE",
"198 1061 OFFCURVE",
"198 950 CURVE",
"198 227 LINE",
"198 134 OFFCURVE",
"189 107 OFFCURVE",
"159 87 CURVE SMOOTH",
"136 72 OFFCURVE",
"108 69 OFFCURVE",
"68 66 CURVE",
"58 56 LINE",
"58 18 LINE",
"68 8 LINE",
"122 8 OFFCURVE",
"166 11 OFFCURVE",
"202 13 CURVE SMOOTH",
"225 15 OFFCURVE",
"250 16 OFFCURVE",
"265 16 CURVE SMOOTH",
"283 16 OFFCURVE",
"309 15 OFFCURVE",
"337 13 CURVE SMOOTH",
"374 11 OFFCURVE",
"416 8 OFFCURVE",
"458 8 CURVE",
"468 18 LINE",
"468 56 LINE",
"458 66 LINE",
"399 68 OFFCURVE",
"370 70 OFFCURVE",
"356 95 CURVE",
"338 131 OFFCURVE",
"338 186 OFFCURVE",
"338 253 CURVE",
"338 887 LINE"
);
},
{
closed = 1;
nodes = (
"585 461 OFFCURVE",
"674 547 OFFCURVE",
"746 638 CURVE SMOOTH",
"797 703 OFFCURVE",
"836 728 OFFCURVE",
"918 734 CURVE",
"928 744 LINE",
"928 782 LINE",
"918 792 LINE",
"882 792 OFFCURVE",
"852 790 OFFCURVE",
"822 788 CURVE SMOOTH",
"796 786 OFFCURVE",
"768 784 OFFCURVE",
"745 784 CURVE SMOOTH",
"718 784 OFFCURVE",
"685 786 OFFCURVE",
"652 788 CURVE SMOOTH",
"616 790 OFFCURVE",
"580 792 OFFCURVE",
"543 792 CURVE",
"533 782 LINE",
"533 744 LINE",
"543 734 LINE",
"626 734 OFFCURVE",
"659 711 OFFCURVE",
"659 675 CURVE SMOOTH",
"659 661 OFFCURVE",
"654 648 OFFCURVE",
"645 633 CURVE SMOOTH",
"606 570 OFFCURVE",
"547 505 OFFCURVE",
"438 422 CURVE",
"263 288 LINE",
"275 271 OFFCURVE",
"284 261 OFFCURVE",
"296 243 CURVE",
"476 378 LINE"
);
},
{
closed = 1;
nodes = (
"631 187 LINE SMOOTH",
"647 161 OFFCURVE",
"654 141 OFFCURVE",
"654 123 CURVE SMOOTH",
"654 81 OFFCURVE",
"617 65 OFFCURVE",
"559 62 CURVE",
"549 52 LINE",
"549 18 LINE",
"559 8 LINE",
"593 8 OFFCURVE",
"628 10 OFFCURVE",
"665 12 CURVE SMOOTH",
"697 14 OFFCURVE",
"734 16 OFFCURVE",
"758 16 CURVE SMOOTH",
"781 16 OFFCURVE",
"807 15 OFFCURVE",
"835 13 CURVE SMOOTH",
"870 11 OFFCURVE",
"908 8 OFFCURVE",
"955 8 CURVE",
"965 18 LINE",
"965 54 LINE",
"954 65 LINE",
"874 77 OFFCURVE",
"834 112 OFFCURVE",
"779 198 CURVE SMOOTH",
"590 489 LINE",
"488 414 LINE"
);
}
);
userData = {
com.typemytype.robofont.mark = (
0.656,
1,
0.6,
1
);
};
width = 1000;
},
{
layerId = "25879A17-30FE-49F5-8BDD-4D78448C8558";
paths = (
{
closed = 1;
nodes = (
"348 996 OFFCURVE",
"355 1134 OFFCURVE",
"371 1271 CURVE",
"353 1288 LINE",
"250 1278 OFFCURVE",
"139 1275 OFFCURVE",
"64 1275 CURVE",
"48 1259 LINE",
"47 1216 LINE",
"63 1200 LINE",
"120 1197 OFFCURVE",
"150 1187 OFFCURVE",
"165 1167 CURVE SMOOTH",
"185 1139 OFFCURVE",
"188 1059 OFFCURVE",
"188 950 CURVE SMOOTH",
"188 227 LINE SMOOTH",
"188 138 OFFCURVE",
"180 113 OFFCURVE",
"153 95 CURVE SMOOTH",
"132 81 OFFCURVE",
"106 79 OFFCURVE",
"64 76 CURVE",
"48 60 LINE",
"48 14 LINE",
"64 -2 LINE",
"156 -2 OFFCURVE",
"224 6 OFFCURVE",
"265 6 CURVE SMOOTH",
"307 6 OFFCURVE",
"386 -2 OFFCURVE",
"462 -2 CURVE",
"478 14 LINE",
"478 60 LINE",
"462 76 LINE",
"403 78 OFFCURVE",
"376 79 OFFCURVE",
"365 100 CURVE SMOOTH",
"348 134 OFFCURVE",
"348 188 OFFCURVE",
"348 253 CURVE SMOOTH",
"348 887 LINE SMOOTH"
);
},
{
closed = 1;
nodes = (
"599 458 OFFCURVE",
"678 536 OFFCURVE",
"754 632 CURVE SMOOTH",
"804 695 OFFCURVE",
"840 719 OFFCURVE",
"922 724 CURVE",
"938 740 LINE",
"938 786 LINE",
"922 802 LINE",
"853 802 OFFCURVE",
"797 794 OFFCURVE",
"745 794 CURVE SMOOTH",
"687 794 OFFCURVE",
"611 802 OFFCURVE",
"539 802 CURVE",
"523 786 LINE",
"523 740 LINE",
"539 724 LINE",
"646 724 OFFCURVE",
"667 688 OFFCURVE",
"636 638 CURVE SMOOTH",
"598 576 OFFCURVE",
"540 512 OFFCURVE",
"432 430 CURVE SMOOTH",
"249 291 LINE",
"293 228 LINE",
"482 370 LINE SMOOTH"
);
},
{
closed = 1;
nodes = (
"622 182 LINE SMOOTH",
"672 102 OFFCURVE",
"633 76 OFFCURVE",
"555 72 CURVE",
"539 56 LINE",
"539 14 LINE",
"555 -2 LINE",
"620 -2 OFFCURVE",
"705 6 OFFCURVE",
"758 6 CURVE SMOOTH",
"811 6 OFFCURVE",
"872 -2 OFFCURVE",
"959 -2 CURVE",
"975 14 LINE",
"975 58 LINE",
"959 74 LINE",
"879 86 OFFCURVE",
"842 118 OFFCURVE",
"787 203 CURVE SMOOTH",
"607 480 LINE",
"489 395 LINE"
);
}
);
width = 1000;
}
);
leftKerningGroup = h;
rightKerningGroup = k;
unicode = 006B;
},
{
glyphname = l;
lastChange = "2019-05-17 22:14:23 +0000";
layers = (
{
layerId = "CA4EC710-46DE-40B5-AF89-3BCF48EEB297";
paths = (
{
closed = 1;
nodes = (
"330 995 OFFCURVE",
"337 1133 OFFCURVE",
"352 1267 CURVE",
"342 1278 LINE",
"242 1268 OFFCURVE",
"135 1265 OFFCURVE",
"60 1265 CURVE",
"50 1255 LINE",
"49 1220 LINE",
"59 1210 LINE",
"118 1207 OFFCURVE",
"149 1196 OFFCURVE",
"165 1173 CURVE SMOOTH",
"187 1142 OFFCURVE",
"190 1061 OFFCURVE",
"190 950 CURVE",
"190 227 LINE",
"190 134 OFFCURVE",
"181 107 OFFCURVE",
"151 87 CURVE SMOOTH",
"128 72 OFFCURVE",
"100 69 OFFCURVE",
"60 66 CURVE",
"50 56 LINE",
"50 18 LINE",
"60 8 LINE",
"114 8 OFFCURVE",
"158 11 OFFCURVE",
"194 13 CURVE SMOOTH",
"217 15 OFFCURVE",
"242 16 OFFCURVE",
"257 16 CURVE SMOOTH",
"273 16 OFFCURVE",
"298 15 OFFCURVE",
"322 13 CURVE SMOOTH",
"360 11 OFFCURVE",
"406 8 OFFCURVE",
"460 8 CURVE",
"470 18 LINE",
"470 56 LINE",
"460 66 LINE",
"387 68 OFFCURVE",
"356 69 OFFCURVE",
"341 95 CURVE SMOOTH",
"331 113 OFFCURVE",
"330 159 OFFCURVE",
"330 218 CURVE",
"330 887 LINE"
);
}
);
userData = {
com.typemytype.robofont.mark = (
0.656,
1,
0.6,
1
);
};
width = 500;
},
{
layerId = "25879A17-30FE-49F5-8BDD-4D78448C8558";
paths = (
{
closed = 1;
nodes = (
"340 996 OFFCURVE",
"347 1134 OFFCURVE",
"363 1271 CURVE",
"345 1288 LINE",
"242 1278 OFFCURVE",
"131 1275 OFFCURVE",
"56 1275 CURVE",
"40 1259 LINE",
"39 1216 LINE",
"55 1200 LINE",
"112 1197 OFFCURVE",
"142 1187 OFFCURVE",
"157 1167 CURVE SMOOTH",
"177 1139 OFFCURVE",
"180 1059 OFFCURVE",
"180 950 CURVE SMOOTH",
"180 227 LINE SMOOTH",
"180 138 OFFCURVE",
"172 113 OFFCURVE",
"145 95 CURVE SMOOTH",
"124 81 OFFCURVE",
"98 79 OFFCURVE",
"56 76 CURVE",
"40 60 LINE",
"40 14 LINE",
"56 -2 LINE",
"148 -2 OFFCURVE",
"216 6 OFFCURVE",
"257 6 CURVE SMOOTH",
"299 6 OFFCURVE",
"370 -2 OFFCURVE",
"464 -2 CURVE",
"480 14 LINE",
"480 60 LINE",
"464 76 LINE",
"394 78 OFFCURVE",
"362 79 OFFCURVE",
"350 100 CURVE SMOOTH",
"341 116 OFFCURVE",
"340 161 OFFCURVE",
"340 218 CURVE SMOOTH",
"340 887 LINE SMOOTH"
);
}
);
width = 500;
}
);
leftKerningGroup = h;
rightKerningGroup = l;
unicode = 006C;
},
{
glyphname = m;
lastChange = "2019-05-17 22:14:23 +0000";
layers = (
{
layerId = "CA4EC710-46DE-40B5-AF89-3BCF48EEB297";
paths = (
{
closed = 1;
nodes = (
"613 76 OFFCURVE",
"594 71 OFFCURVE",
"549 66 CURVE",
"539 56 LINE",
"539 18 LINE",
"549 8 LINE",
"583 8 OFFCURVE",
"618 11 OFFCURVE",
"652 13 CURVE SMOOTH",
"680 15 OFFCURVE",
"710 16 OFFCURVE",
"729 16 CURVE SMOOTH",
"746 16 OFFCURVE",
"768 15 OFFCURVE",
"790 13 CURVE SMOOTH",
"820 11 OFFCURVE",
"856 8 OFFCURVE",
"903 8 CURVE",
"913 18 LINE",
"913 56 LINE",
"903 66 LINE",
"859 67 OFFCURVE",
"824 73 OFFCURVE",
"810 95 CURVE SMOOTH",
"798 114 OFFCURVE",
"797 146 OFFCURVE",
"797 256 CURVE",
"797 502 LINE",
"797 644 OFFCURVE",
"783 710 OFFCURVE",
"731 756 CURVE SMOOTH",
"697 787 OFFCURVE",
"643 807 OFFCURVE",
"575 807 CURVE SMOOTH",
"508 807 OFFCURVE",
"456 785 OFFCURVE",
"412 751 CURVE SMOOTH",
"361 712 OFFCURVE",
"313 638 OFFCURVE",
"280 548 CURVE",
"320 533 LINE",
"339 590 OFFCURVE",
"364 633 OFFCURVE",
"397 666 CURVE SMOOTH",
"430 699 OFFCURVE",
"481 723 OFFCURVE",
"530 723 CURVE SMOOTH",
"627 723 OFFCURVE",
"657 665 OFFCURVE",
"657 563 CURVE",
"657 249 LINE",
"657 147 OFFCURVE",
"651 109 OFFCURVE",
"633 93 CURVE SMOOTH"
);
},
{
closed = 1;
nodes = (
"322 626 LINE",
"323 681 OFFCURVE",
"320 743 OFFCURVE",
"314 791 CURVE",
"300 802 LINE",
"220 792 OFFCURVE",
"130 790 OFFCURVE",
"62 790 CURVE",
"52 780 LINE",
"51 745 LINE",
"61 735 LINE",
"115 733 OFFCURVE",
"150 721 OFFCURVE",
"167 698 CURVE SMOOTH",
"189 667 OFFCURVE",
"192 586 OFFCURVE",
"192 475 CURVE",
"192 227 LINE",
"192 134 OFFCURVE",
"183 107 OFFCURVE",
"153 87 CURVE SMOOTH",
"130 72 OFFCURVE",
"102 69 OFFCURVE",
"62 66 CURVE",
"52 56 LINE",
"52 18 LINE",
"62 8 LINE",
"116 8 OFFCURVE",
"158 11 OFFCURVE",
"193 13 CURVE SMOOTH",
"215 15 OFFCURVE",
"238 16 OFFCURVE",
"254 16 CURVE SMOOTH",
"275 16 OFFCURVE",
"301 15 OFFCURVE",
"329 13 CURVE SMOOTH",
"364 11 OFFCURVE",
"403 8 OFFCURVE",
"445 8 CURVE",
"455 18 LINE",
"455 56 LINE",
"445 66 LINE",
"388 68 OFFCURVE",
"358 70 OFFCURVE",
"343 95 CURVE SMOOTH",
"333 113 OFFCURVE",
"332 159 OFFCURVE",
"332 218 CURVE",
"332 626 LINE"
);
},
{
closed = 1;
nodes = (
"1070 73 OFFCURVE",
"1039 67 OFFCURVE",
"1007 66 CURVE",
"997 56 LINE",
"997 18 LINE",
"1007 8 LINE",
"1043 8 OFFCURVE",
"1082 11 OFFCURVE",
"1116 13 CURVE SMOOTH",
"1144 15 OFFCURVE",
"1173 16 OFFCURVE",
"1193 16 CURVE SMOOTH",
"1209 16 OFFCURVE",
"1234 15 OFFCURVE",
"1258 13 CURVE SMOOTH",
"1294 11 OFFCURVE",
"1339 8 OFFCURVE",
"1393 8 CURVE",
"1403 18 LINE",
"1403 56 LINE",
"1393 66 LINE",
"1318 67 OFFCURVE",
"1291 72 OFFCURVE",
"1277 95 CURVE SMOOTH",
"1266 113 OFFCURVE",
"1259 146 OFFCURVE",
"1259 256 CURVE SMOOTH",
"1259 290 OFFCURVE",
"1260 331 OFFCURVE",
"1261 373 CURVE SMOOTH",
"1262 414 OFFCURVE",
"1264 465 OFFCURVE",
"1264 502 CURVE SMOOTH",
"1264 645 OFFCURVE",
"1243 710 OFFCURVE",
"1191 756 CURVE SMOOTH",
"1157 787 OFFCURVE",
"1103 807 OFFCURVE",
"1050 807 CURVE SMOOTH",
"987 807 OFFCURVE",
"929 787 OFFCURVE",
"884 751 CURVE SMOOTH",
"830 709 OFFCURVE",
"790 659 OFFCURVE",
"749 567 CURVE",
"790 540 LINE",
"817 593 OFFCURVE",
"842 630 OFFCURVE",
"875 666 CURVE SMOOTH",
"907 700 OFFCURVE",
"948 721 OFFCURVE",
"996 721 CURVE SMOOTH",
"1037 721 OFFCURVE",
"1063 707 OFFCURVE",
"1083 687 CURVE SMOOTH",
"1118 652 OFFCURVE",
"1125 599 OFFCURVE",
"1125 467 CURVE SMOOTH",
"1125 398 OFFCURVE",
"1124 304 OFFCURVE",
"1121 248 CURVE SMOOTH",
"1116 151 OFFCURVE",
"1109 112 OFFCURVE",
"1090 93 CURVE SMOOTH"
);
}
);
userData = {
com.typemytype.robofont.guides = (
{
angle = 0;
isGlobal = 0;
magnetic = 5;
x = 0;
y = 564;
}
);
com.typemytype.robofont.mark = (
1,
0.779,
0.6,
1
);
};
width = 1425;
},
{
layerId = "25879A17-30FE-49F5-8BDD-4D78448C8558";
paths = (
{
closed = 1;
nodes = (
"609 86 OFFCURVE",
"589 81 OFFCURVE",
"545 76 CURVE",
"529 60 LINE",
"529 14 LINE",
"545 -2 LINE",
"610 -2 OFFCURVE",
"684 6 OFFCURVE",
"729 6 CURVE SMOOTH",
"772 6 OFFCURVE",
"823 -2 OFFCURVE",
"907 -2 CURVE",
"923 14 LINE",
"923 60 LINE",
"907 76 LINE",
"863 77 OFFCURVE",
"830 81 OFFCURVE",
"818 100 CURVE SMOOTH",
"808 116 OFFCURVE",
"807 148 OFFCURVE",
"807 256 CURVE SMOOTH",
"807 502 LINE SMOOTH",
"807 648 OFFCURVE",
"792 715 OFFCURVE",
"738 763 CURVE SMOOTH",
"702 796 OFFCURVE",
"646 817 OFFCURVE",
"575 817 CURVE SMOOTH",
"505 817 OFFCURVE",
"453 794 OFFCURVE",
"406 759 CURVE SMOOTH",
"351 718 OFFCURVE",
"304 644 OFFCURVE",
"268 543 CURVE",
"327 519 LINE",
"345 580 OFFCURVE",
"370 625 OFFCURVE",
"404 659 CURVE SMOOTH",
"435 690 OFFCURVE",
"484 713 OFFCURVE",
"530 713 CURVE SMOOTH",
"619 713 OFFCURVE",
"647 659 OFFCURVE",
"647 563 CURVE SMOOTH",
"647 249 LINE SMOOTH",
"647 151 OFFCURVE",
"642 115 OFFCURVE",
"626 101 CURVE SMOOTH"
);
},
{
closed = 1;
nodes = (
"332 636 LINE",
"333 689 OFFCURVE",
"330 750 OFFCURVE",
"323 798 CURVE",
"303 813 LINE",
"220 802 OFFCURVE",
"127 800 OFFCURVE",
"58 800 CURVE",
"42 784 LINE",
"41 741 LINE",
"57 725 LINE",
"109 723 OFFCURVE",
"144 712 OFFCURVE",
"159 692 CURVE SMOOTH",
"179 664 OFFCURVE",
"182 584 OFFCURVE",
"182 475 CURVE SMOOTH",
"182 227 LINE SMOOTH",
"182 138 OFFCURVE",
"174 113 OFFCURVE",
"147 95 CURVE SMOOTH",
"126 81 OFFCURVE",
"100 79 OFFCURVE",
"58 76 CURVE",
"42 60 LINE",
"42 14 LINE",
"58 -2 LINE",
"150 -2 OFFCURVE",
"213 6 OFFCURVE",
"254 6 CURVE SMOOTH",
"301 6 OFFCURVE",
"371 -2 OFFCURVE",
"449 -2 CURVE",
"465 14 LINE",
"465 60 LINE",
"449 76 LINE",
"393 78 OFFCURVE",
"364 79 OFFCURVE",
"352 100 CURVE SMOOTH",
"343 116 OFFCURVE",
"342 161 OFFCURVE",
"342 218 CURVE SMOOTH",
"342 636 LINE"
);
},
{
closed = 1;
nodes = (
"1065 82 OFFCURVE",
"1034 77 OFFCURVE",
"1003 76 CURVE",
"987 60 LINE",
"987 14 LINE",
"1003 -2 LINE",
"1072 -2 OFFCURVE",
"1147 6 OFFCURVE",
"1193 6 CURVE SMOOTH",
"1236 6 OFFCURVE",
"1303 -2 OFFCURVE",
"1397 -2 CURVE",
"1413 14 LINE",
"1413 60 LINE",
"1397 76 LINE",
"1323 77 OFFCURVE",
"1297 81 OFFCURVE",
"1285 100 CURVE SMOOTH",
"1275 116 OFFCURVE",
"1269 148 OFFCURVE",
"1269 256 CURVE SMOOTH",
"1269 326 OFFCURVE",
"1274 425 OFFCURVE",
"1274 502 CURVE SMOOTH",
"1274 648 OFFCURVE",
"1252 715 OFFCURVE",
"1198 763 CURVE SMOOTH",
"1162 796 OFFCURVE",
"1106 817 OFFCURVE",
"1050 817 CURVE SMOOTH",
"985 817 OFFCURVE",
"925 796 OFFCURVE",
"878 759 CURVE SMOOTH",
"822 715 OFFCURVE",
"780 661 OFFCURVE",
"737 564 CURVE",
"794 525 LINE",
"822 582 OFFCURVE",
"848 622 OFFCURVE",
"882 659 CURVE SMOOTH",
"912 691 OFFCURVE",
"951 711 OFFCURVE",
"996 711 CURVE SMOOTH",
"1034 711 OFFCURVE",
"1058 698 OFFCURVE",
"1076 680 CURVE SMOOTH",
"1108 647 OFFCURVE",
"1115 596 OFFCURVE",
"1115 467 CURVE SMOOTH",
"1115 398 OFFCURVE",
"1114 305 OFFCURVE",
"1111 249 CURVE SMOOTH",
"1106 151 OFFCURVE",
"1100 117 OFFCURVE",
"1083 100 CURVE SMOOTH"
);
}
);
width = 1425;
}
);
leftKerningGroup = n;
rightKerningGroup = n;
unicode = 006D;
},
{
glyphname = n;
lastChange = "2019-05-17 22:29:06 +0000";
layers = (
{
layerId = "CA4EC710-46DE-40B5-AF89-3BCF48EEB297";
paths = (
{
closed = 1;
nodes = (
"126 8 OFFCURVE",
"248 16 OFFCURVE",
"265 16 CURVE SMOOTH",
"286 16 OFFCURVE",
"408 8 OFFCURVE",
"462 8 CURVE",
"472 18 LINE",
"472 56 LINE",
"462 66 LINE",
"390 68 OFFCURVE",
"364 69 OFFCURVE",
"349 95 CURVE SMOOTH",
"339 113 OFFCURVE",
"338 159 OFFCURVE",
"338 218 CURVE",
"338 626 LINE",
"328 626 LINE",
"329 681 OFFCURVE",
"326 743 OFFCURVE",
"320 791 CURVE",
"306 802 LINE",
"226 792 OFFCURVE",
"136 790 OFFCURVE",
"68 790 CURVE",
"58 780 LINE",
"57 745 LINE",
"67 735 LINE",
"121 733 OFFCURVE",
"156 721 OFFCURVE",
"173 698 CURVE SMOOTH",
"195 667 OFFCURVE",
"198 586 OFFCURVE",
"198 475 CURVE",
"198 227 LINE",
"198 134 OFFCURVE",
"189 107 OFFCURVE",
"159 87 CURVE SMOOTH",
"136 72 OFFCURVE",
"108 69 OFFCURVE",
"68 66 CURVE",
"58 56 LINE",
"58 18 LINE",
"68 8 LINE"
);
},
{
closed = 1;
nodes = (
"616 8 OFFCURVE",
"738 16 OFFCURVE",
"759 16 CURVE SMOOTH",
"779 16 OFFCURVE",
"908 8 OFFCURVE",
"964 8 CURVE",
"974 18 LINE",
"974 56 LINE",
"964 66 LINE",
"885 67 OFFCURVE",
"863 72 OFFCURVE",
"848 95 CURVE SMOOTH",
"837 113 OFFCURVE",
"830 146 OFFCURVE",
"830 256 CURVE SMOOTH",
"830 290 OFFCURVE",
"835 469 OFFCURVE",
"835 502 CURVE SMOOTH",
"835 644 OFFCURVE",
"804 709 OFFCURVE",
"752 756 CURVE SMOOTH",
"718 787 OFFCURVE",
"664 807 OFFCURVE",
"596 807 CURVE SMOOTH",
"528 807 OFFCURVE",
"473 787 OFFCURVE",
"428 751 CURVE SMOOTH",
"377 711 OFFCURVE",
"330 638 OFFCURVE",
"296 548 CURVE",
"338 532 LINE",
"359 585 OFFCURVE",
"387 635 OFFCURVE",
"418 666 CURVE SMOOTH",
"451 699 OFFCURVE",
"500 723 OFFCURVE",
"549 723 CURVE SMOOTH",
"581 723 OFFCURVE",
"610 714 OFFCURVE",
"636 694 CURVE SMOOTH",
"683 656 OFFCURVE",
"696 600 OFFCURVE",
"696 467 CURVE SMOOTH",
"696 398 OFFCURVE",
"695 304 OFFCURVE",
"692 248 CURVE SMOOTH",
"687 151 OFFCURVE",
"680 112 OFFCURVE",
"661 93 CURVE SMOOTH",
"642 74 OFFCURVE",
"609 67 OFFCURVE",
"568 66 CURVE",
"558 56 LINE",
"558 18 LINE",
"568 8 LINE"
);
}
);
userData = {
com.typemytype.robofont.mark = (
0.656,
1,
0.6,
1
);
};
width = 1000;
},
{
layerId = "25879A17-30FE-49F5-8BDD-4D78448C8558";
paths = (
{
closed = 1;
nodes = (
"156 -2 OFFCURVE",
"224 6 OFFCURVE",
"265 6 CURVE SMOOTH",
"307 6 OFFCURVE",
"377 -2 OFFCURVE",
"466 -2 CURVE",
"482 14 LINE",
"482 60 LINE",
"466 76 LINE",
"396 78 OFFCURVE",
"370 79 OFFCURVE",
"358 100 CURVE SMOOTH",
"349 116 OFFCURVE",
"348 161 OFFCURVE",
"348 218 CURVE SMOOTH",
"348 636 LINE",
"338 636 LINE",
"339 689 OFFCURVE",
"336 750 OFFCURVE",
"329 798 CURVE",
"309 813 LINE",
"226 802 OFFCURVE",
"133 800 OFFCURVE",
"64 800 CURVE",
"48 784 LINE",
"47 741 LINE",
"63 725 LINE",
"115 723 OFFCURVE",
"150 712 OFFCURVE",
"165 692 CURVE SMOOTH",
"185 664 OFFCURVE",
"188 584 OFFCURVE",
"188 475 CURVE SMOOTH",
"188 227 LINE SMOOTH",
"188 138 OFFCURVE",
"180 113 OFFCURVE",
"153 95 CURVE SMOOTH",
"132 81 OFFCURVE",
"106 79 OFFCURVE",
"64 76 CURVE",
"48 60 LINE",
"48 14 LINE",
"64 -2 LINE"
);
},
{
closed = 1;
nodes = (
"649 -2 OFFCURVE",
"718 6 OFFCURVE",
"759 6 CURVE SMOOTH",
"803 6 OFFCURVE",
"874 -2 OFFCURVE",
"968 -2 CURVE",
"984 14 LINE",
"984 60 LINE",
"968 76 LINE",
"888 77 OFFCURVE",
"868 81 OFFCURVE",
"856 100 CURVE SMOOTH",
"846 116 OFFCURVE",
"840 148 OFFCURVE",
"840 256 CURVE SMOOTH",
"840 326 OFFCURVE",
"845 425 OFFCURVE",
"845 502 CURVE SMOOTH",
"845 648 OFFCURVE",
"813 715 OFFCURVE",
"759 763 CURVE SMOOTH",
"723 796 OFFCURVE",
"667 817 OFFCURVE",
"596 817 CURVE SMOOTH",
"526 817 OFFCURVE",
"469 796 OFFCURVE",
"422 759 CURVE SMOOTH",
"368 716 OFFCURVE",
"321 640 OFFCURVE",
"285 543 CURVE",
"344 519 LINE",
"365 576 OFFCURVE",
"391 625 OFFCURVE",
"425 659 CURVE SMOOTH",
"456 690 OFFCURVE",
"503 713 OFFCURVE",
"549 713 CURVE SMOOTH",
"579 713 OFFCURVE",
"606 705 OFFCURVE",
"630 686 CURVE SMOOTH",
"674 651 OFFCURVE",
"686 596 OFFCURVE",
"686 467 CURVE SMOOTH",
"686 398 OFFCURVE",
"685 305 OFFCURVE",
"682 249 CURVE SMOOTH",
"677 151 OFFCURVE",
"671 117 OFFCURVE",
"654 100 CURVE SMOOTH",
"636 82 OFFCURVE",
"605 77 OFFCURVE",
"564 76 CURVE",
"548 60 LINE",
"548 14 LINE",
"564 -2 LINE"
);
}
);
width = 1000;
}
);
leftKerningGroup = n;
rightKerningGroup = n;
unicode = 006E;
},
{
glyphname = o;
lastChange = "2019-05-17 22:14:23 +0000";
layers = (
{
anchors = (
{
name = top;
position = "{450, 800}";
}
);
layerId = "CA4EC710-46DE-40B5-AF89-3BCF48EEB297";
paths = (
{
closed = 1;
nodes = (
"76 279 OFFCURVE",
"111 188 OFFCURVE",
"176 108 CURVE SMOOTH",
"237 32 OFFCURVE",
"335 -16 OFFCURVE",
"450 -16 CURVE SMOOTH",
"566 -16 OFFCURVE",
"672 47 OFFCURVE",
"733 124 CURVE SMOOTH",
"784 189 OFFCURVE",
"824 287 OFFCURVE",
"824 391 CURVE SMOOTH",
"824 553 OFFCURVE",
"753 673 OFFCURVE",
"667 741 CURVE SMOOTH",
"604 791 OFFCURVE",
"524 816 OFFCURVE",
"450 816 CURVE SMOOTH",
"354 816 OFFCURVE",
"265 778 OFFCURVE",
"199 714 CURVE SMOOTH",
"122 639 OFFCURVE",
"76 524 OFFCURVE",
"76 400 CURVE SMOOTH"
);
},
{
closed = 1;
nodes = (
"241 540 OFFCURVE",
"259 630 OFFCURVE",
"301 689 CURVE SMOOTH",
"337 739 OFFCURVE",
"393 760 OFFCURVE",
"450 760 CURVE SMOOTH",
"570 760 OFFCURVE",
"661 645 OFFCURVE",
"661 398 CURVE SMOOTH",
"661 270 OFFCURVE",
"634 177 OFFCURVE",
"593 120 CURVE SMOOTH",
"558 71 OFFCURVE",
"504 40 OFFCURVE",
"450 40 CURVE SMOOTH",
"324 40 OFFCURVE",
"241 149 OFFCURVE",
"241 402 CURVE SMOOTH"
);
}
);
userData = {
com.typemytype.robofont.mark = (
0.656,
1,
0.6,
1
);
};
width = 900;
},
{
anchors = (
{
name = top;
position = "{450, 800}";
}
);
layerId = "25879A17-30FE-49F5-8BDD-4D78448C8558";
paths = (
{
closed = 1;
nodes = (
"66 276 OFFCURVE",
"102 183 OFFCURVE",
"168 102 CURVE SMOOTH",
"231 24 OFFCURVE",
"332 -26 OFFCURVE",
"450 -26 CURVE SMOOTH",
"572 -26 OFFCURVE",
"676 37 OFFCURVE",
"741 118 CURVE SMOOTH",
"795 186 OFFCURVE",
"834 280 OFFCURVE",
"834 391 CURVE SMOOTH",
"834 559 OFFCURVE",
"762 677 OFFCURVE",
"673 749 CURVE SMOOTH",
"606 803 OFFCURVE",
"528 826 OFFCURVE",
"450 826 CURVE SMOOTH",
"351 826 OFFCURVE",
"260 787 OFFCURVE",
"192 721 CURVE SMOOTH",
"113 644 OFFCURVE",
"66 527 OFFCURVE",
"66 400 CURVE SMOOTH"
);
},
{
closed = 1;
nodes = (
"251 542 OFFCURVE",
"267 625 OFFCURVE",
"309 683 CURVE SMOOTH",
"344 732 OFFCURVE",
"395 750 OFFCURVE",
"450 750 CURVE SMOOTH",
"564 750 OFFCURVE",
"651 638 OFFCURVE",
"651 398 CURVE SMOOTH",
"651 270 OFFCURVE",
"625 182 OFFCURVE",
"585 126 CURVE SMOOTH",
"550 76 OFFCURVE",
"504 50 OFFCURVE",
"450 50 CURVE SMOOTH",
"330 50 OFFCURVE",
"251 156 OFFCURVE",
"251 402 CURVE SMOOTH"
);
}
);
width = 900;
}
);
leftKerningGroup = o;
rightKerningGroup = o;
unicode = 006F;
},
{
glyphname = p;
lastChange = "2019-05-17 22:14:23 +0000";
layers = (
{
layerId = "CA4EC710-46DE-40B5-AF89-3BCF48EEB297";
paths = (
{
closed = 1;
nodes = (
"270 220 OFFCURVE",
"312 138 OFFCURVE",
"356 87 CURVE SMOOTH",
"397 39 OFFCURVE",
"462 -7 OFFCURVE",
"573 -7 CURVE SMOOTH",
"738 -7 OFFCURVE",
"876 124 OFFCURVE",
"876 406 CURVE SMOOTH",
"876 683 OFFCURVE",
"735 807 OFFCURVE",
"573 807 CURVE SMOOTH",
"492 807 OFFCURVE",
"413 773 OFFCURVE",
"364 713 CURVE SMOOTH",
"305 642 OFFCURVE",
"270 537 OFFCURVE",
"270 400 CURVE SMOOTH"
);
},
{
closed = 1;
nodes = (
"640 739 OFFCURVE",
"720 638 OFFCURVE",
"720 400 CURVE SMOOTH",
"720 162 OFFCURVE",
"642 61 OFFCURVE",
"532 61 CURVE SMOOTH",
"462 61 OFFCURVE",
"408 103 OFFCURVE",
"370 163 CURVE SMOOTH",
"330 227 OFFCURVE",
"309 310 OFFCURVE",
"309 410 CURVE SMOOTH",
"309 526 OFFCURVE",
"349 607 OFFCURVE",
"390 661 CURVE SMOOTH",
"432 717 OFFCURVE",
"479 739 OFFCURVE",
"532 739 CURVE SMOOTH"
);
},
{
closed = 1;
nodes = (
"299 686 OFFCURVE",
"297 744 OFFCURVE",
"291 791 CURVE",
"277 802 LINE",
"197 792 OFFCURVE",
"107 790 OFFCURVE",
"39 790 CURVE",
"29 780 LINE",
"28 745 LINE",
"38 735 LINE",
"92 733 OFFCURVE",
"127 721 OFFCURVE",
"144 698 CURVE SMOOTH",
"166 667 OFFCURVE",
"169 586 OFFCURVE",
"169 475 CURVE",
"169 -223 LINE",
"169 -316 OFFCURVE",
"160 -343 OFFCURVE",
"130 -363 CURVE SMOOTH",
"107 -378 OFFCURVE",
"79 -381 OFFCURVE",
"39 -384 CURVE",
"29 -394 LINE",
"29 -432 LINE",
"39 -442 LINE",
"91 -442 OFFCURVE",
"133 -439 OFFCURVE",
"170 -437 CURVE SMOOTH",
"197 -435 OFFCURVE",
"225 -434 OFFCURVE",
"246 -434 CURVE SMOOTH",
"271 -434 OFFCURVE",
"299 -435 OFFCURVE",
"329 -437 CURVE SMOOTH",
"366 -439 OFFCURVE",
"408 -442 OFFCURVE",
"459 -442 CURVE",
"469 -432 LINE",
"469 -394 LINE",
"459 -384 LINE",
"376 -382 OFFCURVE",
"337 -375 OFFCURVE",
"321 -346 CURVE SMOOTH",
"313 -332 OFFCURVE",
"309 -290 OFFCURVE",
"309 -232 CURVE",
"309 190 LINE",
"299 190 LINE",
"299 636 LINE"
);
}
);
userData = {
com.typemytype.robofont.guides = (
{
angle = 0;
isGlobal = 0;
magnetic = 5;
x = 0;
y = -17;
},
{
angle = 90;
isGlobal = 0;
magnetic = 5;
x = 50;
y = 0;
}
);
com.typemytype.robofont.mark = (
0.967,
0.6,
1,
1
);
};
width = 950;
},
{
layerId = "25879A17-30FE-49F5-8BDD-4D78448C8558";
paths = (
{
closed = 1;
nodes = (
"260 208 OFFCURVE",
"301 134 OFFCURVE",
"349 80 CURVE SMOOTH",
"393 31 OFFCURVE",
"458 -17 OFFCURVE",
"573 -17 CURVE SMOOTH",
"743 -17 OFFCURVE",
"886 117 OFFCURVE",
"886 406 CURVE SMOOTH",
"886 690 OFFCURVE",
"740 817 OFFCURVE",
"573 817 CURVE SMOOTH",
"483 817 OFFCURVE",
"413 781 OFFCURVE",
"360 724 CURVE SMOOTH",
"288 646 OFFCURVE",
"260 535 OFFCURVE",
"260 400 CURVE SMOOTH"
);
},
{
closed = 1;
nodes = (
"634 729 OFFCURVE",
"710 631 OFFCURVE",
"710 400 CURVE SMOOTH",
"710 169 OFFCURVE",
"636 71 OFFCURVE",
"532 71 CURVE SMOOTH",
"466 71 OFFCURVE",
"414 111 OFFCURVE",
"378 168 CURVE SMOOTH",
"339 230 OFFCURVE",
"319 311 OFFCURVE",
"319 410 CURVE SMOOTH",
"319 523 OFFCURVE",
"358 602 OFFCURVE",
"398 655 CURVE SMOOTH",
"438 708 OFFCURVE",
"482 729 OFFCURVE",
"532 729 CURVE SMOOTH"
);
},
{
closed = 1;
nodes = (
"309 689 OFFCURVE",
"307 750 OFFCURVE",
"300 798 CURVE",
"280 813 LINE",
"197 802 OFFCURVE",
"104 800 OFFCURVE",
"35 800 CURVE",
"19 784 LINE",
"18 741 LINE",
"34 725 LINE",
"86 723 OFFCURVE",
"121 712 OFFCURVE",
"136 692 CURVE SMOOTH",
"156 664 OFFCURVE",
"159 584 OFFCURVE",
"159 475 CURVE SMOOTH",
"159 -223 LINE SMOOTH",
"159 -312 OFFCURVE",
"151 -337 OFFCURVE",
"124 -355 CURVE SMOOTH",
"103 -369 OFFCURVE",
"77 -371 OFFCURVE",
"35 -374 CURVE",
"19 -390 LINE",
"19 -436 LINE",
"35 -452 LINE",
"127 -452 OFFCURVE",
"195 -444 OFFCURVE",
"246 -444 CURVE SMOOTH",
"303 -444 OFFCURVE",
"369 -452 OFFCURVE",
"463 -452 CURVE",
"479 -436 LINE",
"479 -390 LINE",
"463 -374 LINE",
"381 -372 OFFCURVE",
"344 -368 OFFCURVE",
"330 -341 CURVE SMOOTH",
"323 -328 OFFCURVE",
"319 -289 OFFCURVE",
"319 -232 CURVE SMOOTH",
"319 200 LINE",
"309 200 LINE",
"309 636 LINE SMOOTH"
);
}
);
width = 950;
}
);
leftKerningGroup = p;
rightKerningGroup = b;
unicode = 0070;
},
{
glyphname = q;
lastChange = "2019-05-17 22:14:23 +0000";
layers = (
{
layerId = "CA4EC710-46DE-40B5-AF89-3BCF48EEB297";
paths = (
{
closed = 1;
nodes = (
"782 564 OFFCURVE",
"789 691 OFFCURVE",
"799 796 CURVE",
"791 806 LINE",
"750 806 LINE",
"735 797 LINE",
"651 649 LINE",
"651 244 LINE",
"641 244 LINE",
"642 -223 LINE",
"642 -316 OFFCURVE",
"633 -343 OFFCURVE",
"603 -363 CURVE SMOOTH",
"580 -377 OFFCURVE",
"543 -383 OFFCURVE",
"492 -384 CURVE",
"482 -394 LINE",
"482 -432 LINE",
"492 -442 LINE",
"546 -442 OFFCURVE",
"597 -439 OFFCURVE",
"639 -437 CURVE SMOOTH",
"666 -435 OFFCURVE",
"694 -434 OFFCURVE",
"709 -434 CURVE SMOOTH",
"725 -434 OFFCURVE",
"750 -435 OFFCURVE",
"774 -437 CURVE SMOOTH",
"812 -439 OFFCURVE",
"858 -442 OFFCURVE",
"912 -442 CURVE",
"922 -432 LINE",
"922 -394 LINE",
"912 -384 LINE",
"839 -382 OFFCURVE",
"808 -381 OFFCURVE",
"793 -355 CURVE SMOOTH",
"783 -337 OFFCURVE",
"782 -291 OFFCURVE",
"782 -232 CURVE",
"782 462 LINE"
);
},
{
closed = 1;
nodes = (
"684 605 OFFCURVE",
"656 690 OFFCURVE",
"602 741 CURVE SMOOTH",
"564 777 OFFCURVE",
"502 807 OFFCURVE",
"424 807 CURVE SMOOTH",
"232 807 OFFCURVE",
"74 669 OFFCURVE",
"74 400 CURVE SMOOTH",
"74 110 OFFCURVE",
"228 -7 OFFCURVE",
"377 -7 CURVE SMOOTH",
"458 -7 OFFCURVE",
"535 31 OFFCURVE",
"583 83 CURVE SMOOTH",
"649 154 OFFCURVE",
"680 275 OFFCURVE",
"680 401 CURVE",
"695 534 LINE"
);
},
{
closed = 1;
nodes = (
"309 61 OFFCURVE",
"230 161 OFFCURVE",
"230 400 CURVE SMOOTH",
"230 638 OFFCURVE",
"314 749 OFFCURVE",
"443 749 CURVE SMOOTH",
"500 749 OFFCURVE",
"546 726 OFFCURVE",
"583 678 CURVE SMOOTH",
"622 629 OFFCURVE",
"641 560 OFFCURVE",
"641 443 CURVE SMOOTH",
"641 268 OFFCURVE",
"600 184 OFFCURVE",
"562 139 CURVE SMOOTH",
"518 86 OFFCURVE",
"465 61 OFFCURVE",
"411 61 CURVE SMOOTH"
);
}
);
userData = {
com.typemytype.robofont.mark = (
0.967,
0.6,
1,
1
);
};
width = 950;
},
{
layerId = "25879A17-30FE-49F5-8BDD-4D78448C8558";
paths = (
{
closed = 1;
nodes = (
"792 565 OFFCURVE",
"800 693 OFFCURVE",
"810 799 CURVE",
"795 816 LINE",
"747 816 LINE",
"727 804 LINE",
"641 652 LINE",
"641 200 LINE",
"631 200 LINE",
"632 -223 LINE SMOOTH",
"632 -312 OFFCURVE",
"624 -337 OFFCURVE",
"597 -355 CURVE SMOOTH",
"576 -369 OFFCURVE",
"540 -373 OFFCURVE",
"488 -374 CURVE",
"472 -390 LINE",
"472 -436 LINE",
"488 -452 LINE",
"580 -452 OFFCURVE",
"668 -444 OFFCURVE",
"709 -444 CURVE SMOOTH",
"751 -444 OFFCURVE",
"822 -452 OFFCURVE",
"916 -452 CURVE",
"932 -436 LINE",
"932 -390 LINE",
"916 -374 LINE",
"846 -372 OFFCURVE",
"814 -371 OFFCURVE",
"802 -350 CURVE SMOOTH",
"793 -334 OFFCURVE",
"792 -289 OFFCURVE",
"792 -232 CURVE SMOOTH",
"792 462 LINE SMOOTH"
);
},
{
closed = 1;
nodes = (
"695 612 OFFCURVE",
"668 692 OFFCURVE",
"609 748 CURVE SMOOTH",
"569 786 OFFCURVE",
"504 817 OFFCURVE",
"424 817 CURVE SMOOTH",
"227 817 OFFCURVE",
"64 676 OFFCURVE",
"64 400 CURVE SMOOTH",
"64 103 OFFCURVE",
"223 -17 OFFCURVE",
"377 -17 CURVE SMOOTH",
"467 -17 OFFCURVE",
"537 19 OFFCURVE",
"590 76 CURVE SMOOTH",
"662 154 OFFCURVE",
"690 265 OFFCURVE",
"690 400 CURVE",
"705 535 LINE"
);
},
{
closed = 1;
nodes = (
"315 71 OFFCURVE",
"240 168 OFFCURVE",
"240 400 CURVE SMOOTH",
"240 631 OFFCURVE",
"320 739 OFFCURVE",
"443 739 CURVE SMOOTH",
"497 739 OFFCURVE",
"540 717 OFFCURVE",
"575 672 CURVE SMOOTH",
"613 624 OFFCURVE",
"631 557 OFFCURVE",
"631 443 CURVE SMOOTH",
"631 269 OFFCURVE",
"591 189 OFFCURVE",
"554 145 CURVE SMOOTH",
"512 94 OFFCURVE",
"463 71 OFFCURVE",
"411 71 CURVE SMOOTH"
);
}
);
width = 950;
}
);
leftKerningGroup = e;
rightKerningGroup = q;
unicode = 0071;
},
{
glyphname = r;
lastChange = "2019-05-17 22:14:23 +0000";
layers = (
{
layerId = "CA4EC710-46DE-40B5-AF89-3BCF48EEB297";
paths = (
{
closed = 1;
nodes = (
"350 493 OFFCURVE",
"357 556 OFFCURVE",
"371 601 CURVE SMOOTH",
"398 687 OFFCURVE",
"466 760 OFFCURVE",
"580 746 CURVE",
"599 768 LINE",
"557 753 OFFCURVE",
"525 697 OFFCURVE",
"525 651 CURVE SMOOTH",
"525 606 OFFCURVE",
"556 574 OFFCURVE",
"604 574 CURVE SMOOTH",
"654 574 OFFCURVE",
"697 611 OFFCURVE",
"697 677 CURVE SMOOTH",
"697 755 OFFCURVE",
"643 809 OFFCURVE",
"554 809 CURVE SMOOTH",
"505 809 OFFCURVE",
"457 792 OFFCURVE",
"419 762 CURVE SMOOTH",
"381 732 OFFCURVE",
"353 689 OFFCURVE",
"340 643 CURVE",
"340 695 OFFCURVE",
"337 751 OFFCURVE",
"332 791 CURVE",
"318 802 LINE",
"238 792 OFFCURVE",
"156 790 OFFCURVE",
"65 790 CURVE",
"55 780 LINE",
"54 745 LINE",
"64 735 LINE",
"138 732 OFFCURVE",
"168 721 OFFCURVE",
"185 698 CURVE SMOOTH",
"207 667 OFFCURVE",
"210 586 OFFCURVE",
"210 475 CURVE SMOOTH",
"210 227 LINE SMOOTH",
"210 135 OFFCURVE",
"201 108 OFFCURVE",
"170 87 CURVE SMOOTH",
"148 72 OFFCURVE",
"110 70 OFFCURVE",
"66 67 CURVE",
"55 56 LINE",
"55 18 LINE",
"65 8 LINE",
"117 8 OFFCURVE",
"164 11 OFFCURVE",
"205 13 CURVE SMOOTH",
"234 15 OFFCURVE",
"266 16 OFFCURVE",
"286 16 CURVE SMOOTH",
"308 16 OFFCURVE",
"337 15 OFFCURVE",
"369 13 CURVE SMOOTH",
"410 11 OFFCURVE",
"458 8 OFFCURVE",
"509 8 CURVE",
"519 18 LINE",
"519 56 LINE",
"509 66 LINE",
"418 71 OFFCURVE",
"375 81 OFFCURVE",
"361 105 CURVE SMOOTH",
"354 119 OFFCURVE",
"350 161 OFFCURVE",
"350 218 CURVE SMOOTH",
"350 425 LINE SMOOTH"
);
}
);
userData = {
com.typemytype.robofont.mark = (
1,
0.779,
0.6,
1
);
};
width = 725;
},
{
layerId = "25879A17-30FE-49F5-8BDD-4D78448C8558";
paths = (
{
closed = 1;
nodes = (
"360 492 OFFCURVE",
"367 553 OFFCURVE",
"381 598 CURVE SMOOTH",
"408 684 OFFCURVE",
"465 748 OFFCURVE",
"565 748 CURVE",
"589 782 LINE",
"559 760 OFFCURVE",
"515 717 OFFCURVE",
"515 651 CURVE SMOOTH",
"515 600 OFFCURVE",
"550 564 OFFCURVE",
"604 564 CURVE SMOOTH",
"659 564 OFFCURVE",
"707 605 OFFCURVE",
"707 677 CURVE SMOOTH",
"707 761 OFFCURVE",
"640 819 OFFCURVE",
"554 819 CURVE SMOOTH",
"503 819 OFFCURVE",
"458 802 OFFCURVE",
"420 775 CURVE SMOOTH",
"359 732 OFFCURVE",
"331 665 OFFCURVE",
"321 608 CURVE",
"350 608 LINE",
"351 672 OFFCURVE",
"348 750 OFFCURVE",
"341 798 CURVE",
"321 813 LINE",
"238 802 OFFCURVE",
"154 800 OFFCURVE",
"61 800 CURVE",
"45 784 LINE",
"44 741 LINE",
"60 725 LINE",
"133 722 OFFCURVE",
"162 712 OFFCURVE",
"177 692 CURVE SMOOTH",
"197 664 OFFCURVE",
"200 584 OFFCURVE",
"200 475 CURVE SMOOTH",
"200 227 LINE SMOOTH",
"200 138 OFFCURVE",
"192 113 OFFCURVE",
"165 95 CURVE SMOOTH",
"144 81 OFFCURVE",
"103 79 OFFCURVE",
"61 76 CURVE",
"45 60 LINE",
"45 14 LINE",
"61 -2 LINE",
"153 -2 OFFCURVE",
"236 6 OFFCURVE",
"286 6 CURVE SMOOTH",
"338 6 OFFCURVE",
"420 -2 OFFCURVE",
"513 -2 CURVE",
"529 14 LINE",
"529 60 LINE",
"513 76 LINE",
"420 81 OFFCURVE",
"379 87 OFFCURVE",
"370 109 CURVE SMOOTH",
"364 122 OFFCURVE",
"360 161 OFFCURVE",
"360 218 CURVE SMOOTH",
"360 425 LINE SMOOTH"
);
},
{
closed = 1;
nodes = (
"591 716 LINE",
"591 784 LINE",
"501 784 LINE",
"544 716 LINE"
);
}
);
width = 725;
}
);
leftKerningGroup = n;
rightKerningGroup = r;
unicode = 0072;
},
{
glyphname = s;
lastChange = "2019-05-17 22:14:23 +0000";
layers = (
{
layerId = "CA4EC710-46DE-40B5-AF89-3BCF48EEB297";
paths = (
{
closed = 1;
nodes = (
"233 810 OFFCURVE",
"112 728 OFFCURVE",
"112 582 CURVE SMOOTH",
"112 473 OFFCURVE",
"188 410 OFFCURVE",
"277 379 CURVE SMOOTH",
"338 358 OFFCURVE",
"405 335 OFFCURVE",
"466 315 CURVE SMOOTH",
"547 287 OFFCURVE",
"585 233 OFFCURVE",
"585 180 CURVE SMOOTH",
"585 108 OFFCURVE",
"535 45 OFFCURVE",
"429 45 CURVE SMOOTH",
"271 45 OFFCURVE",
"199 158 OFFCURVE",
"172 304 CURVE",
"162 314 LINE",
"121 314 LINE",
"111 304 LINE",
"111 -6 LINE",
"121 -16 LINE",
"152 -16 LINE",
"165 -6 LINE",
"215 82 LINE",
"274 12 OFFCURVE",
"349 -11 OFFCURVE",
"434 -11 CURVE SMOOTH",
"590 -11 OFFCURVE",
"700 81 OFFCURVE",
"700 223 CURVE SMOOTH",
"700 309 OFFCURVE",
"658 407 OFFCURVE",
"505 455 CURVE",
"333 510 LINE",
"257 534 OFFCURVE",
"227 572 OFFCURVE",
"227 627 CURVE SMOOTH",
"227 694 OFFCURVE",
"281 754 OFFCURVE",
"375 754 CURVE SMOOTH",
"498 754 OFFCURVE",
"569 666 OFFCURVE",
"596 542 CURVE",
"607 530 LINE",
"648 530 LINE",
"658 540 LINE",
"658 801 LINE",
"648 811 LINE",
"606 811 LINE",
"593 802 LINE",
"559 742 LINE",
"511 788 OFFCURVE",
"445 810 OFFCURVE",
"368 810 CURVE SMOOTH"
);
}
);
userData = {
com.typemytype.robofont.guides = (
{
angle = 90;
isGlobal = 0;
magnetic = 5;
x = 100;
y = 0;
},
{
angle = 90;
isGlobal = 0;
magnetic = 5;
x = 709;
y = 0;
}
);
com.typemytype.robofont.mark = (
0.967,
0.6,
1,
1
);
};
width = 775;
},
{
layerId = "25879A17-30FE-49F5-8BDD-4D78448C8558";
paths = (
{
closed = 1;
nodes = (
"228 820 OFFCURVE",
"102 734 OFFCURVE",
"102 582 CURVE SMOOTH",
"102 467 OFFCURVE",
"179 402 OFFCURVE",
"274 370 CURVE SMOOTH",
"463 306 LINE SMOOTH",
"539 280 OFFCURVE",
"575 230 OFFCURVE",
"575 180 CURVE SMOOTH",
"575 113 OFFCURVE",
"528 55 OFFCURVE",
"429 55 CURVE SMOOTH",
"277 55 OFFCURVE",
"208 166 OFFCURVE",
"182 308 CURVE",
"166 324 LINE",
"117 324 LINE",
"101 308 LINE",
"101 -10 LINE",
"117 -26 LINE",
"155 -26 LINE",
"173 -13 LINE",
"235 98 LINE",
"115 263 LINE",
"180 40 OFFCURVE",
"293 -21 OFFCURVE",
"434 -21 CURVE SMOOTH",
"596 -21 OFFCURVE",
"710 75 OFFCURVE",
"710 223 CURVE SMOOTH",
"710 313 OFFCURVE",
"667 415 OFFCURVE",
"508 465 CURVE SMOOTH",
"336 520 LINE SMOOTH",
"265 543 OFFCURVE",
"237 577 OFFCURVE",
"237 627 CURVE SMOOTH",
"237 689 OFFCURVE",
"287 744 OFFCURVE",
"375 744 CURVE SMOOTH",
"493 744 OFFCURVE",
"562 658 OFFCURVE",
"587 537 CURVE",
"603 520 LINE",
"652 520 LINE",
"668 536 LINE",
"668 805 LINE",
"652 821 LINE",
"603 821 LINE",
"585 809 LINE",
"536 721 LINE",
"651 579 LINE",
"622 739 OFFCURVE",
"512 820 OFFCURVE",
"368 820 CURVE SMOOTH"
);
}
);
width = 775;
}
);
leftKerningGroup = s;
rightKerningGroup = s;
unicode = 0073;
},
{
glyphname = germandbls;
lastChange = "2019-05-17 22:14:23 +0000";
layers = (
{
layerId = "CA4EC710-46DE-40B5-AF89-3BCF48EEB297";
paths = (
{
closed = 1;
nodes = (
"180 134 OFFCURVE",
"171 107 OFFCURVE",
"141 87 CURVE SMOOTH",
"118 72 OFFCURVE",
"90 69 OFFCURVE",
"50 66 CURVE",
"40 56 LINE",
"40 18 LINE",
"50 8 LINE",
"91 8 OFFCURVE",
"126 11 OFFCURVE",
"157 13 CURVE SMOOTH",
"180 15 OFFCURVE",
"204 16 OFFCURVE",
"223 16 CURVE SMOOTH",
"246 16 OFFCURVE",
"271 15 OFFCURVE",
"298 13 CURVE SMOOTH",
"330 11 OFFCURVE",
"363 8 OFFCURVE",
"402 8 CURVE",
"412 18 LINE",
"412 54 LINE",
"401 65 LINE",
"365 70 OFFCURVE",
"345 71 OFFCURVE",
"331 95 CURVE SMOOTH",
"321 113 OFFCURVE",
"320 159 OFFCURVE",
"320 218 CURVE",
"320 874 LINE",
"320 1049 OFFCURVE",
"355 1190 OFFCURVE",
"513 1190 CURVE SMOOTH",
"633 1190 OFFCURVE",
"677 1094 OFFCURVE",
"677 964 CURVE SMOOTH",
"677 821 OFFCURVE",
"641 725 OFFCURVE",
"490 721 CURVE",
"481 710 LINE",
"481 677 LINE",
"491 667 LINE",
"664 659 OFFCURVE",
"708 567 OFFCURVE",
"708 346 CURVE SMOOTH",
"708 226 OFFCURVE",
"695 150 OFFCURVE",
"683 112 CURVE SMOOTH",
"666 62 OFFCURVE",
"637 40 OFFCURVE",
"601 40 CURVE SMOOTH",
"582 40 OFFCURVE",
"563 46 OFFCURVE",
"549 54 CURVE",
"549 88 LINE",
"575 102 OFFCURVE",
"588 128 OFFCURVE",
"588 155 CURVE SMOOTH",
"588 190 OFFCURVE",
"567 224 OFFCURVE",
"523 224 CURVE SMOOTH",
"476 224 OFFCURVE",
"441 186 OFFCURVE",
"441 128 CURVE SMOOTH",
"441 37 OFFCURVE",
"524 -6 OFFCURVE",
"606 -6 CURVE SMOOTH",
"654 -6 OFFCURVE",
"704 8 OFFCURVE",
"756 51 CURVE",
"808 96 OFFCURVE",
"867 195 OFFCURVE",
"868 351 CURVE SMOOTH",
"869 527 OFFCURVE",
"783 650 OFFCURVE",
"621 700 CURVE",
"766 747 OFFCURVE",
"822 838 OFFCURVE",
"822 964 CURVE SMOOTH",
"822 1125 OFFCURVE",
"706 1250 OFFCURVE",
"516 1250 CURVE SMOOTH",
"334 1250 OFFCURVE",
"180 1135 OFFCURVE",
"180 858 CURVE",
"180 227 LINE"
);
}
);
userData = {
com.typemytype.robofont.mark = (
0.656,
1,
0.6,
1
);
};
width = 975;
},
{
layerId = "25879A17-30FE-49F5-8BDD-4D78448C8558";
paths = (
{
closed = 1;
nodes = (
"170 138 OFFCURVE",
"162 113 OFFCURVE",
"135 95 CURVE SMOOTH",
"114 81 OFFCURVE",
"88 79 OFFCURVE",
"46 76 CURVE",
"30 60 LINE",
"30 14 LINE",
"46 -2 LINE",
"122 -2 OFFCURVE",
"179 6 OFFCURVE",
"223 6 CURVE SMOOTH",
"273 6 OFFCURVE",
"333 -2 OFFCURVE",
"406 -2 CURVE",
"422 14 LINE",
"422 58 LINE",
"406 74 LINE",
"370 78 OFFCURVE",
"352 79 OFFCURVE",
"340 100 CURVE SMOOTH",
"331 116 OFFCURVE",
"330 161 OFFCURVE",
"330 218 CURVE SMOOTH",
"330 874 LINE SMOOTH",
"330 1043 OFFCURVE",
"363 1180 OFFCURVE",
"513 1180 CURVE SMOOTH",
"626 1180 OFFCURVE",
"667 1088 OFFCURVE",
"667 964 CURVE SMOOTH",
"667 825 OFFCURVE",
"633 733 OFFCURVE",
"486 731 CURVE",
"471 714 LINE",
"471 673 LINE",
"487 657 LINE",
"656 651 OFFCURVE",
"698 563 OFFCURVE",
"698 346 CURVE SMOOTH",
"698 226 OFFCURVE",
"686 152 OFFCURVE",
"674 115 CURVE SMOOTH",
"659 70 OFFCURVE",
"633 50 OFFCURVE",
"601 50 CURVE SMOOTH",
"585 50 OFFCURVE",
"569 54 OFFCURVE",
"559 60 CURVE",
"559 82 LINE",
"619 114 OFFCURVE",
"612 234 OFFCURVE",
"523 234 CURVE SMOOTH",
"470 234 OFFCURVE",
"431 192 OFFCURVE",
"431 128 CURVE SMOOTH",
"431 30 OFFCURVE",
"519 -16 OFFCURVE",
"606 -16 CURVE SMOOTH",
"657 -16 OFFCURVE",
"706 -4 OFFCURVE",
"762 43 CURVE SMOOTH",
"816 89 OFFCURVE",
"877 190 OFFCURVE",
"878 351 CURVE SMOOTH",
"879 551 OFFCURVE",
"772 684 OFFCURVE",
"570 723 CURVE",
"570 676 LINE",
"762 718 OFFCURVE",
"832 818 OFFCURVE",
"832 964 CURVE SMOOTH",
"832 1131 OFFCURVE",
"712 1260 OFFCURVE",
"516 1260 CURVE SMOOTH",
"329 1260 OFFCURVE",
"170 1142 OFFCURVE",
"170 858 CURVE SMOOTH",
"170 227 LINE"
);
}
);
width = 975;
}
);
leftKerningGroup = germandbls;
unicode = 00DF;
},
{
glyphname = t;
lastChange = "2019-05-17 22:14:23 +0000";
layers = (
{
layerId = "CA4EC710-46DE-40B5-AF89-3BCF48EEB297";
paths = (
{
closed = 1;
nodes = (
"55 724 LINE",
"193 724 LINE",
"284 719 LINE",
"517 719 LINE",
"527 729 LINE",
"527 769 LINE",
"517 779 LINE",
"313 779 LINE",
"314 856 OFFCURVE",
"320 992 OFFCURVE",
"329 1073 CURVE",
"321 1083 LINE",
"275 1083 LINE",
"263 1073 LINE",
"232 885 OFFCURVE",
"186 814 OFFCURVE",
"54 769 CURVE",
"45 758 LINE",
"45 734 LINE"
);
},
{
closed = 1;
nodes = (
"170 210 LINE",
"170 140 OFFCURVE",
"182 86 OFFCURVE",
"212 50 CURVE SMOOTH",
"240 15 OFFCURVE",
"285 -3 OFFCURVE",
"340 -3 CURVE SMOOTH",
"486 -3 OFFCURVE",
"547 104 OFFCURVE",
"547 255 CURVE SMOOTH",
"547 274 OFFCURVE",
"546 299 OFFCURVE",
"544 320 CURVE",
"532 330 LINE",
"501 330 LINE",
"491 320 LINE",
"492 307 OFFCURVE",
"493 292 OFFCURVE",
"493 280 CURVE SMOOTH",
"493 143 OFFCURVE",
"439 88 OFFCURVE",
"383 88 CURVE SMOOTH",
"359 88 OFFCURVE",
"339 97 OFFCURVE",
"327 116 CURVE SMOOTH",
"315 137 OFFCURVE",
"310 164 OFFCURVE",
"310 201 CURVE",
"310 731 LINE",
"170 738 LINE"
);
}
);
userData = {
com.typemytype.robofont.mark = (
0.967,
0.6,
1,
1
);
};
width = 600;
},
{
layerId = "25879A17-30FE-49F5-8BDD-4D78448C8558";
paths = (
{
closed = 1;
nodes = (
"51 714 LINE",
"193 714 LINE",
"284 709 LINE",
"521 709 LINE",
"537 725 LINE",
"537 773 LINE",
"521 789 LINE",
"285 789 LINE",
"323 756 LINE",
"323 827 OFFCURVE",
"330 988 OFFCURVE",
"340 1076 CURVE",
"325 1093 LINE",
"272 1093 LINE",
"254 1079 LINE",
"224 890 OFFCURVE",
"182 822 OFFCURVE",
"50 779 CURVE",
"35 762 LINE",
"35 730 LINE"
);
},
{
closed = 1;
nodes = (
"160 210 LINE SMOOTH",
"160 138 OFFCURVE",
"173 82 OFFCURVE",
"204 44 CURVE SMOOTH",
"234 6 OFFCURVE",
"282 -13 OFFCURVE",
"340 -13 CURVE SMOOTH",
"515 -13 OFFCURVE",
"574 133 OFFCURVE",
"553 326 CURVE",
"535 340 LINE",
"497 340 LINE",
"481 324 LINE",
"493 162 OFFCURVE",
"439 98 OFFCURVE",
"383 98 CURVE SMOOTH",
"361 98 OFFCURVE",
"345 105 OFFCURVE",
"335 121 CURVE SMOOTH",
"323 140 OFFCURVE",
"320 164 OFFCURVE",
"320 201 CURVE SMOOTH",
"320 740 LINE",
"160 749 LINE"
);
}
);
width = 600;
}
);
leftKerningGroup = u;
rightKerningGroup = t;
unicode = 0074;
},
{
glyphname = u;
lastChange = "2019-05-17 22:14:23 +0000";
layers = (
{
anchors = (
{
name = top;
position = "{475, 800}";
}
);
layerId = "CA4EC710-46DE-40B5-AF89-3BCF48EEB297";
paths = (
{
closed = 1;
nodes = (
"753 8 OFFCURVE",
"836 10 OFFCURVE",
"914 10 CURVE",
"925 19 LINE",
"928 59 LINE",
"917 69 LINE",
"856 67 OFFCURVE",
"829 77 OFFCURVE",
"809 100 CURVE SMOOTH",
"786 127 OFFCURVE",
"787 175 OFFCURVE",
"787 245 CURVE",
"787 446 LINE",
"787 554 OFFCURVE",
"794 694 OFFCURVE",
"803 792 CURVE",
"793 802 LINE",
"698 792 OFFCURVE",
"593 790 OFFCURVE",
"502 790 CURVE",
"492 780 LINE",
"491 745 LINE",
"501 735 LINE",
"573 732 OFFCURVE",
"607 722 OFFCURVE",
"624 699 CURVE SMOOTH",
"646 668 OFFCURVE",
"647 586 OFFCURVE",
"647 475 CURVE",
"647 215 LINE",
"657 215 LINE",
"657 192 LINE",
"657 138 OFFCURVE",
"659 65 OFFCURVE",
"666 7 CURVE",
"680 -2 LINE"
);
},
{
closed = 1;
nodes = (
"222 792 OFFCURVE",
"136 792 OFFCURVE",
"48 790 CURVE",
"38 780 LINE",
"37 747 LINE",
"47 737 LINE",
"162 725 OFFCURVE",
"169 676 OFFCURVE",
"169 573 CURVE SMOOTH",
"169 548 OFFCURVE",
"168 503 OFFCURVE",
"167 453 CURVE SMOOTH",
"166 394 OFFCURVE",
"165 314 OFFCURVE",
"165 268 CURVE SMOOTH",
"165 162 OFFCURVE",
"182 85 OFFCURVE",
"231 43 CURVE SMOOTH",
"267 12 OFFCURVE",
"315 -7 OFFCURVE",
"378 -7 CURVE SMOOTH",
"541 -7 OFFCURVE",
"648 122 OFFCURVE",
"693 293 CURVE",
"650 320 LINE",
"636 256 OFFCURVE",
"612 195 OFFCURVE",
"580 156 CURVE SMOOTH",
"540 107 OFFCURVE",
"490 77 OFFCURVE",
"436 77 CURVE SMOOTH",
"404 77 OFFCURVE",
"370 88 OFFCURVE",
"347 107 CURVE",
"314 139 OFFCURVE",
"305 193 OFFCURVE",
"305 268 CURVE SMOOTH",
"305 425 OFFCURVE",
"311 563 OFFCURVE",
"324 791 CURVE",
"314 802 LINE"
);
}
);
userData = {
com.typemytype.robofont.mark = (
0.656,
1,
0.6,
1
);
};
width = 975;
},
{
anchors = (
{
name = top;
position = "{475, 800}";
}
);
layerId = "25879A17-30FE-49F5-8BDD-4D78448C8558";
paths = (
{
closed = 1;
nodes = (
"752 -3 OFFCURVE",
"839 0 OFFCURVE",
"918 0 CURVE",
"935 15 LINE",
"938 63 LINE",
"921 79 LINE",
"862 77 OFFCURVE",
"835 86 OFFCURVE",
"817 107 CURVE SMOOTH",
"796 132 OFFCURVE",
"797 178 OFFCURVE",
"797 245 CURVE SMOOTH",
"797 446 LINE SMOOTH",
"797 555 OFFCURVE",
"805 698 OFFCURVE",
"814 796 CURVE",
"796 813 LINE",
"698 802 OFFCURVE",
"591 800 OFFCURVE",
"498 800 CURVE",
"482 784 LINE",
"481 741 LINE",
"497 725 LINE",
"568 722 OFFCURVE",
"601 713 OFFCURVE",
"616 693 CURVE SMOOTH",
"636 665 OFFCURVE",
"637 584 OFFCURVE",
"637 475 CURVE SMOOTH",
"637 205 LINE",
"647 205 LINE",
"647 192 LINE SMOOTH",
"647 136 OFFCURVE",
"650 60 OFFCURVE",
"657 2 CURVE",
"677 -13 LINE"
);
},
{
closed = 1;
nodes = (
"228 803 OFFCURVE",
"137 802 OFFCURVE",
"44 800 CURVE",
"28 784 LINE",
"27 743 LINE",
"43 727 LINE",
"152 716 OFFCURVE",
"159 671 OFFCURVE",
"159 573 CURVE SMOOTH",
"159 517 OFFCURVE",
"155 357 OFFCURVE",
"155 268 CURVE SMOOTH",
"155 159 OFFCURVE",
"173 79 OFFCURVE",
"224 35 CURVE SMOOTH",
"261 3 OFFCURVE",
"311 -17 OFFCURVE",
"378 -17 CURVE SMOOTH",
"549 -17 OFFCURVE",
"661 117 OFFCURVE",
"705 298 CURVE",
"643 336 LINE",
"630 267 OFFCURVE",
"605 203 OFFCURVE",
"572 162 CURVE SMOOTH",
"534 115 OFFCURVE",
"487 87 OFFCURVE",
"436 87 CURVE SMOOTH",
"405 87 OFFCURVE",
"374 95 OFFCURVE",
"354 114 CURVE SMOOTH",
"322 144 OFFCURVE",
"315 195 OFFCURVE",
"315 268 CURVE SMOOTH",
"315 425 OFFCURVE",
"321 568 OFFCURVE",
"334 796 CURVE",
"316 813 LINE"
);
}
);
width = 975;
}
);
leftKerningGroup = u;
rightKerningGroup = u;
unicode = 0075;
},
{
glyphname = v;
lastChange = "2019-05-17 22:14:23 +0000";
layers = (
{
layerId = "CA4EC710-46DE-40B5-AF89-3BCF48EEB297";
paths = (
{
closed = 1;
nodes = (
"389 792 OFFCURVE",
"353 790 OFFCURVE",
"315 788 CURVE SMOOTH",
"269 786 OFFCURVE",
"220 784 OFFCURVE",
"187 784 CURVE SMOOTH",
"157 784 OFFCURVE",
"126 786 OFFCURVE",
"95 788 CURVE SMOOTH",
"66 790 OFFCURVE",
"42 792 OFFCURVE",
"16 792 CURVE",
"6 782 LINE",
"6 750 LINE",
"16 740 LINE",
"101 726 OFFCURVE",
"135 690 OFFCURVE",
"166 607 CURVE SMOOTH",
"335 157 LINE SMOOTH",
"366 75 OFFCURVE",
"379 27 OFFCURVE",
"392 -21 CURVE",
"403 -32 LINE",
"486 -32 LINE",
"497 -21 LINE",
"508 33 OFFCURVE",
"536 132 OFFCURVE",
"559 189 CURVE SMOOTH",
"731 614 LINE SMOOTH",
"761 688 OFFCURVE",
"784 723 OFFCURVE",
"835 735 CURVE",
"846 746 LINE",
"846 782 LINE",
"836 792 LINE",
"821 792 OFFCURVE",
"798 790 OFFCURVE",
"777 788 CURVE SMOOTH",
"755 786 OFFCURVE",
"732 784 OFFCURVE",
"718 784 CURVE SMOOTH",
"697 784 OFFCURVE",
"667 786 OFFCURVE",
"637 788 CURVE SMOOTH",
"605 790 OFFCURVE",
"578 792 OFFCURVE",
"553 792 CURVE",
"543 782 LINE",
"543 744 LINE",
"553 734 LINE",
"617 731 OFFCURVE",
"656 707 OFFCURVE",
"656 657 CURVE SMOOTH",
"656 643 OFFCURVE",
"653 626 OFFCURVE",
"645 607 CURVE SMOOTH",
"590 463 OFFCURVE",
"533 320 OFFCURVE",
"477 176 CURVE",
"324 610 LINE SMOOTH",
"318 628 OFFCURVE",
"314 645 OFFCURVE",
"314 657 CURVE SMOOTH",
"314 705 OFFCURVE",
"346 731 OFFCURVE",
"411 734 CURVE",
"421 744 LINE",
"421 782 LINE",
"411 792 LINE"
);
}
);
width = 900;
},
{
layerId = "25879A17-30FE-49F5-8BDD-4D78448C8558";
paths = (
{
closed = 1;
nodes = (
"367 802 OFFCURVE",
"249 794 OFFCURVE",
"187 794 CURVE SMOOTH",
"129 794 OFFCURVE",
"65 802 OFFCURVE",
"12 802 CURVE",
"-4 786 LINE",
"-4 746 LINE",
"12 730 LINE",
"95 717 OFFCURVE",
"127 684 OFFCURVE",
"157 604 CURVE SMOOTH",
"326 154 LINE SMOOTH",
"355 77 OFFCURVE",
"369 25 OFFCURVE",
"383 -26 CURVE",
"399 -42 LINE",
"490 -42 LINE",
"506 -26 LINE",
"516 28 OFFCURVE",
"545 128 OFFCURVE",
"568 185 CURVE SMOOTH",
"740 610 LINE SMOOTH",
"768 681 OFFCURVE",
"792 715 OFFCURVE",
"840 726 CURVE",
"856 742 LINE",
"856 786 LINE",
"840 802 LINE",
"809 802 OFFCURVE",
"746 794 OFFCURVE",
"718 794 CURVE SMOOTH",
"675 794 OFFCURVE",
"597 802 OFFCURVE",
"549 802 CURVE",
"533 786 LINE",
"533 740 LINE",
"549 724 LINE",
"625 722 OFFCURVE",
"666 689 OFFCURVE",
"636 611 CURVE SMOOTH",
"451 134 LINE",
"502 134 LINE",
"333 613 LINE SMOOTH",
"308 684 OFFCURVE",
"337 722 OFFCURVE",
"415 724 CURVE",
"431 740 LINE",
"431 786 LINE",
"415 802 LINE"
);
}
);
width = 900;
}
);
leftKerningGroup = w;
rightKerningGroup = w;
unicode = 0076;
},
{
glyphname = w;
lastChange = "2019-05-17 22:14:23 +0000";
layers = (
{
layerId = "CA4EC710-46DE-40B5-AF89-3BCF48EEB297";
paths = (
{
closed = 1;
nodes = (
"439 210 LINE",
"303 610 LINE",
"295 635 OFFCURVE",
"290 657 OFFCURVE",
"290 675 CURVE SMOOTH",
"290 712 OFFCURVE",
"311 732 OFFCURVE",
"359 734 CURVE",
"369 744 LINE",
"369 782 LINE",
"359 792 LINE",
"337 792 OFFCURVE",
"314 790 OFFCURVE",
"286 788 CURVE SMOOTH",
"254 786 OFFCURVE",
"218 784 OFFCURVE",
"186 784 CURVE SMOOTH",
"158 784 OFFCURVE",
"130 786 OFFCURVE",
"104 788 CURVE SMOOTH",
"78 790 OFFCURVE",
"58 792 OFFCURVE",
"32 792 CURVE",
"22 782 LINE",
"22 748 LINE",
"33 737 LINE",
"107 726 OFFCURVE",
"130 690 OFFCURVE",
"160 607 CURVE",
"300 216 LINE",
"330 132 OFFCURVE",
"350 49 OFFCURVE",
"360 1 CURVE",
"370 -10 LINE",
"434 -10 LINE",
"444 0 LINE",
"454 58 OFFCURVE",
"474 137 OFFCURVE",
"508 221 CURVE SMOOTH",
"568 371 OFFCURVE",
"631 521 OFFCURVE",
"691 671 CURVE",
"623 671 LINE"
);
},
{
closed = 1;
nodes = (
"726 627 OFFCURVE",
"724 642 OFFCURVE",
"724 657 CURVE SMOOTH",
"724 709 OFFCURVE",
"757 732 OFFCURVE",
"816 736 CURVE",
"826 746 LINE",
"826 782 LINE",
"816 792 LINE",
"788 792 OFFCURVE",
"758 790 OFFCURVE",
"730 788 CURVE SMOOTH",
"699 786 OFFCURVE",
"668 784 OFFCURVE",
"637 784 CURVE SMOOTH",
"605 784 OFFCURVE",
"572 786 OFFCURVE",
"541 788 CURVE SMOOTH",
"512 790 OFFCURVE",
"489 792 OFFCURVE",
"463 792 CURVE",
"453 782 LINE",
"453 746 LINE",
"463 736 LINE",
"532 730 OFFCURVE",
"569 679 OFFCURVE",
"600 587 CURVE",
"711 241 LINE",
"740 150 OFFCURVE",
"761 79 OFFCURVE",
"779 1 CURVE",
"789 -10 LINE",
"853 -10 LINE",
"863 0 LINE",
"878 62 OFFCURVE",
"906 146 OFFCURVE",
"931 215 CURVE",
"1082 614 LINE",
"1108 683 OFFCURVE",
"1131 724 OFFCURVE",
"1182 737 CURVE",
"1193 748 LINE",
"1193 782 LINE",
"1183 792 LINE",
"1166 792 OFFCURVE",
"1149 790 OFFCURVE",
"1129 789 CURVE SMOOTH",
"1106 787 OFFCURVE",
"1077 786 OFFCURVE",
"1050 786 CURVE SMOOTH",
"1030 786 OFFCURVE",
"1008 788 OFFCURVE",
"987 789 CURVE SMOOTH",
"966 791 OFFCURVE",
"942 792 OFFCURVE",
"920 792 CURVE",
"910 782 LINE",
"910 746 LINE",
"920 736 LINE",
"982 734 OFFCURVE",
"1015 711 OFFCURVE",
"1015 661 CURVE SMOOTH",
"1015 648 OFFCURVE",
"1011 627 OFFCURVE",
"1004 608 CURVE SMOOTH",
"954 469 OFFCURVE",
"904 335 OFFCURVE",
"854 197 CURVE",
"731 610 LINE"
);
}
);
width = 1250;
},
{
layerId = "25879A17-30FE-49F5-8BDD-4D78448C8558";
paths = (
{
closed = 1;
nodes = (
"399 134 LINE",
"475 134 LINE",
"313 613 LINE SMOOTH",
"289 685 OFFCURVE",
"294 722 OFFCURVE",
"363 724 CURVE",
"379 740 LINE",
"379 786 LINE",
"363 802 LINE",
"315 802 OFFCURVE",
"247 794 OFFCURVE",
"186 794 CURVE SMOOTH",
"130 794 OFFCURVE",
"81 802 OFFCURVE",
"28 802 CURVE",
"12 786 LINE",
"12 744 LINE",
"28 728 LINE",
"101 719 OFFCURVE",
"122 685 OFFCURVE",
"151 604 CURVE SMOOTH",
"291 213 LINE SMOOTH",
"321 129 OFFCURVE",
"340 47 OFFCURVE",
"350 -4 CURVE",
"366 -20 LINE",
"438 -20 LINE",
"454 -4 LINE",
"464 56 OFFCURVE",
"483 133 OFFCURVE",
"517 217 CURVE SMOOTH",
"705 681 LINE",
"616 681 LINE"
);
},
{
closed = 1;
nodes = (
"718 690 OFFCURVE",
"750 722 OFFCURVE",
"820 726 CURVE",
"836 742 LINE",
"836 786 LINE",
"820 802 LINE",
"760 802 OFFCURVE",
"698 794 OFFCURVE",
"637 794 CURVE SMOOTH",
"576 794 OFFCURVE",
"512 802 OFFCURVE",
"459 802 CURVE",
"443 786 LINE",
"443 742 LINE",
"459 726 LINE",
"530 722 OFFCURVE",
"558 685 OFFCURVE",
"590 584 CURVE SMOOTH",
"701 238 LINE SMOOTH",
"731 145 OFFCURVE",
"752 73 OFFCURVE",
"769 -4 CURVE",
"785 -20 LINE",
"857 -20 LINE",
"873 -4 LINE",
"889 64 OFFCURVE",
"913 139 OFFCURVE",
"940 211 CURVE SMOOTH",
"1091 610 LINE SMOOTH",
"1118 681 OFFCURVE",
"1137 717 OFFCURVE",
"1187 728 CURVE",
"1203 744 LINE",
"1203 786 LINE",
"1187 802 LINE",
"1148 802 OFFCURVE",
"1101 796 OFFCURVE",
"1050 796 CURVE SMOOTH",
"1009 796 OFFCURVE",
"964 802 OFFCURVE",
"916 802 CURVE",
"900 786 LINE",
"900 742 LINE",
"916 726 LINE",
"992 724 OFFCURVE",
"1023 690 OFFCURVE",
"995 611 CURVE SMOOTH",
"822 134 LINE",
"884 134 LINE",
"741 613 LINE SMOOTH"
);
}
);
width = 1250;
}
);
leftKerningGroup = w;
rightKerningGroup = w;
unicode = 0077;
},
{
glyphname = x;
lastChange = "2019-05-17 22:14:23 +0000";
layers = (
{
layerId = "CA4EC710-46DE-40B5-AF89-3BCF48EEB297";
paths = (
{
closed = 1;
nodes = (
"139 130 OFFCURVE",
"90 80 OFFCURVE",
"22 66 CURVE",
"12 56 LINE",
"12 18 LINE",
"22 8 LINE",
"38 8 OFFCURVE",
"65 10 OFFCURVE",
"90 12 CURVE SMOOTH",
"117 14 OFFCURVE",
"144 16 OFFCURVE",
"158 16 CURVE SMOOTH",
"179 16 OFFCURVE",
"214 14 OFFCURVE",
"248 12 CURVE SMOOTH",
"284 10 OFFCURVE",
"316 8 OFFCURVE",
"341 8 CURVE",
"351 18 LINE",
"351 52 LINE",
"341 62 LINE",
"279 64 OFFCURVE",
"248 89 OFFCURVE",
"248 127 CURVE SMOOTH",
"248 149 OFFCURVE",
"260 173 OFFCURVE",
"283 198 CURVE",
"659 602 LINE",
"733 681 OFFCURVE",
"773 721 OFFCURVE",
"841 734 CURVE",
"851 744 LINE",
"851 782 LINE",
"841 792 LINE",
"829 792 OFFCURVE",
"814 791 OFFCURVE",
"794 789 CURVE SMOOTH",
"767 787 OFFCURVE",
"734 784 OFFCURVE",
"703 784 CURVE SMOOTH",
"674 784 OFFCURVE",
"643 786 OFFCURVE",
"614 788 CURVE SMOOTH",
"587 790 OFFCURVE",
"567 792 OFFCURVE",
"544 792 CURVE",
"534 782 LINE",
"534 748 LINE",
"544 738 LINE",
"591 733 OFFCURVE",
"615 711 OFFCURVE",
"615 677 CURVE SMOOTH",
"615 655 OFFCURVE",
"603 631 OFFCURVE",
"579 605 CURVE",
"192 188 LINE"
);
},
{
closed = 1;
nodes = (
"541 172 OFFCURVE",
"551 150 OFFCURVE",
"551 130 CURVE SMOOTH",
"551 90 OFFCURVE",
"520 66 OFFCURVE",
"464 62 CURVE",
"454 52 LINE",
"454 18 LINE",
"464 8 LINE",
"487 8 OFFCURVE",
"525 10 OFFCURVE",
"564 12 CURVE SMOOTH",
"607 14 OFFCURVE",
"652 16 OFFCURVE",
"680 16 CURVE SMOOTH",
"715 16 OFFCURVE",
"750 14 OFFCURVE",
"782 12 CURVE SMOOTH",
"811 10 OFFCURVE",
"834 8 OFFCURVE",
"859 8 CURVE",
"869 18 LINE",
"869 54 LINE",
"858 65 LINE",
"772 85 OFFCURVE",
"727 141 OFFCURVE",
"685 198 CURVE",
"381 609 LINE",
"361 637 OFFCURVE",
"352 659 OFFCURVE",
"352 678 CURVE SMOOTH",
"352 716 OFFCURVE",
"388 736 OFFCURVE",
"440 738 CURVE",
"450 748 LINE",
"450 782 LINE",
"440 792 LINE",
"418 792 OFFCURVE",
"389 790 OFFCURVE",
"355 788 CURVE SMOOTH",
"315 786 OFFCURVE",
"271 784 OFFCURVE",
"237 784 CURVE SMOOTH",
"194 784 OFFCURVE",
"153 787 OFFCURVE",
"117 789 CURVE SMOOTH",
"88 791 OFFCURVE",
"66 792 OFFCURVE",
"42 792 CURVE",
"32 782 LINE",
"32 744 LINE",
"43 733 LINE",
"122 720 OFFCURVE",
"177 672 OFFCURVE",
"230 599 CURVE",
"523 198 LINE"
);
}
);
width = 900;
},
{
layerId = "25879A17-30FE-49F5-8BDD-4D78448C8558";
paths = (
{
closed = 1;
nodes = (
"131 136 OFFCURVE",
"86 89 OFFCURVE",
"18 76 CURVE",
"2 60 LINE",
"2 14 LINE",
"18 -2 LINE",
"49 -2 OFFCURVE",
"130 6 OFFCURVE",
"158 6 CURVE SMOOTH",
"201 6 OFFCURVE",
"297 -2 OFFCURVE",
"345 -2 CURVE",
"361 14 LINE",
"361 56 LINE",
"345 72 LINE",
"255 74 OFFCURVE",
"232 129 OFFCURVE",
"290 191 CURVE SMOOTH",
"666 595 LINE SMOOTH",
"745 680 OFFCURVE",
"775 710 OFFCURVE",
"845 724 CURVE",
"861 740 LINE",
"861 786 LINE",
"845 802 LINE",
"814 802 OFFCURVE",
"757 794 OFFCURVE",
"703 794 CURVE SMOOTH",
"647 794 OFFCURVE",
"588 802 OFFCURVE",
"540 802 CURVE",
"524 786 LINE",
"524 744 LINE",
"540 728 LINE",
"610 721 OFFCURVE",
"627 671 OFFCURVE",
"572 612 CURVE SMOOTH",
"185 195 LINE SMOOTH"
);
},
{
closed = 1;
nodes = (
"566 123 OFFCURVE",
"537 76 OFFCURVE",
"460 72 CURVE",
"444 56 LINE",
"444 14 LINE",
"460 -2 LINE",
"508 -2 OFFCURVE",
"626 6 OFFCURVE",
"680 6 CURVE SMOOTH",
"746 6 OFFCURVE",
"810 -2 OFFCURVE",
"863 -2 CURVE",
"879 14 LINE",
"879 58 LINE",
"863 74 LINE",
"780 93 OFFCURVE",
"734 149 OFFCURVE",
"693 204 CURVE SMOOTH",
"389 615 LINE SMOOTH",
"333 691 OFFCURVE",
"369 726 OFFCURVE",
"444 728 CURVE",
"460 744 LINE",
"460 786 LINE",
"444 802 LINE",
"396 802 OFFCURVE",
"301 794 OFFCURVE",
"237 794 CURVE SMOOTH",
"158 794 OFFCURVE",
"91 802 OFFCURVE",
"38 802 CURVE",
"22 786 LINE",
"22 740 LINE",
"38 724 LINE",
"114 713 OFFCURVE",
"169 665 OFFCURVE",
"222 593 CURVE SMOOTH",
"515 192 LINE SMOOTH"
);
}
);
width = 900;
}
);
leftKerningGroup = x;
rightKerningGroup = k;
unicode = 0078;
},
{
glyphname = y;
lastChange = "2019-05-17 22:14:23 +0000";
layers = (
{
anchors = (
{
name = top;
position = "{510, 800}";
}
);
layerId = "CA4EC710-46DE-40B5-AF89-3BCF48EEB297";
paths = (
{
closed = 1;
nodes = (
"473 37 LINE",
"473 38 LINE",
"358 -244 LINE",
"312 -355 OFFCURVE",
"260 -409 OFFCURVE",
"201 -409 CURVE SMOOTH",
"166 -409 OFFCURVE",
"139 -393 OFFCURVE",
"128 -370 CURVE",
"123 -380 LINE",
"183 -363 OFFCURVE",
"221 -323 OFFCURVE",
"221 -273 CURVE SMOOTH",
"221 -224 OFFCURVE",
"185 -178 OFFCURVE",
"129 -178 CURVE SMOOTH",
"68 -178 OFFCURVE",
"24 -230 OFFCURVE",
"25 -300 CURVE SMOOTH",
"26 -394 OFFCURVE",
"97 -457 OFFCURVE",
"200 -457 CURVE SMOOTH",
"280 -457 OFFCURVE",
"374 -418 OFFCURVE",
"436 -265 CURVE",
"794 614 LINE",
"823 683 OFFCURVE",
"858 723 OFFCURVE",
"917 735 CURVE",
"928 746 LINE",
"928 782 LINE",
"918 792 LINE",
"905 792 OFFCURVE",
"888 791 OFFCURVE",
"863 789 CURVE SMOOTH",
"825 787 OFFCURVE",
"778 784 OFFCURVE",
"739 784 CURVE SMOOTH",
"712 784 OFFCURVE",
"685 786 OFFCURVE",
"659 788 CURVE SMOOTH",
"632 790 OFFCURVE",
"610 792 OFFCURVE",
"582 792 CURVE",
"572 782 LINE",
"572 744 LINE",
"582 734 LINE",
"659 731 OFFCURVE",
"710 703 OFFCURVE",
"710 648 CURVE SMOOTH",
"710 636 OFFCURVE",
"707 623 OFFCURVE",
"701 607 CURVE",
"519 123 LINE"
);
},
{
closed = 1;
nodes = (
"337 626 OFFCURVE",
"334 640 OFFCURVE",
"334 653 CURVE SMOOTH",
"334 705 OFFCURVE",
"379 731 OFFCURVE",
"456 734 CURVE",
"466 744 LINE",
"466 782 LINE",
"456 792 LINE",
"419 792 OFFCURVE",
"382 790 OFFCURVE",
"344 788 CURVE SMOOTH",
"308 786 OFFCURVE",
"266 784 OFFCURVE",
"234 784 CURVE SMOOTH",
"199 784 OFFCURVE",
"161 786 OFFCURVE",
"124 788 CURVE SMOOTH",
"86 790 OFFCURVE",
"53 792 OFFCURVE",
"16 792 CURVE",
"6 782 LINE",
"6 750 LINE",
"16 739 LINE",
"108 729 OFFCURVE",
"152 690 OFFCURVE",
"186 608 CURVE",
"459 -57 LINE",
"486 11 OFFCURVE",
"507 66 OFFCURVE",
"535 134 CURVE",
"344 609 LINE"
);
}
);
userData = {
com.typemytype.robofont.mark = (
0.967,
0.6,
1,
1
);
};
width = 950;
},
{
anchors = (
{
name = top;
position = "{510, 800}";
}
);
layerId = "25879A17-30FE-49F5-8BDD-4D78448C8558";
paths = (
{
closed = 1;
nodes = (
"464 42 LINE",
"349 -240 LINE SMOOTH",
"305 -347 OFFCURVE",
"256 -399 OFFCURVE",
"203 -399 CURVE SMOOTH",
"190 -399 OFFCURVE",
"177 -397 OFFCURVE",
"167 -392 CURVE",
"167 -373 LINE",
"276 -315 OFFCURVE",
"234 -168 OFFCURVE",
"129 -168 CURVE SMOOTH",
"62 -168 OFFCURVE",
"14 -224 OFFCURVE",
"15 -300 CURVE SMOOTH",
"16 -400 OFFCURVE",
"91 -467 OFFCURVE",
"200 -467 CURVE SMOOTH",
"284 -467 OFFCURVE",
"381 -427 OFFCURVE",
"445 -269 CURVE SMOOTH",
"803 610 LINE SMOOTH",
"832 681 OFFCURVE",
"864 716 OFFCURVE",
"922 726 CURVE",
"938 742 LINE",
"938 786 LINE",
"922 802 LINE",
"891 802 OFFCURVE",
"805 794 OFFCURVE",
"739 794 CURVE SMOOTH",
"685 794 OFFCURVE",
"634 802 OFFCURVE",
"578 802 CURVE",
"562 786 LINE",
"562 740 LINE",
"578 724 LINE",
"668 722 OFFCURVE",
"720 686 OFFCURVE",
"692 611 CURVE SMOOTH",
"511 131 LINE"
);
},
{
closed = 1;
nodes = (
"325 684 OFFCURVE",
"367 722 OFFCURVE",
"460 724 CURVE",
"476 740 LINE",
"476 786 LINE",
"460 802 LINE",
"386 802 OFFCURVE",
"303 794 OFFCURVE",
"234 794 CURVE SMOOTH",
"163 794 OFFCURVE",
"86 802 OFFCURVE",
"12 802 CURVE",
"-4 786 LINE",
"-4 746 LINE",
"12 730 LINE",
"100 720 OFFCURVE",
"144 683 OFFCURVE",
"177 604 CURVE SMOOTH",
"459 -83 LINE",
"546 134 LINE",
"353 613 LINE SMOOTH"
);
}
);
width = 950;
}
);
leftKerningGroup = y;
rightKerningGroup = w;
unicode = 0079;
},
{
glyphname = z;
lastChange = "2019-05-17 22:14:23 +0000";
layers = (
{
layerId = "CA4EC710-46DE-40B5-AF89-3BCF48EEB297";
paths = (
{
closed = 1;
nodes = (
"105 527 LINE",
"115 517 LINE",
"145 517 LINE",
"156 528 LINE",
"202 708 OFFCURVE",
"235 738 OFFCURVE",
"394 738 CURVE",
"546 738 LINE",
"218 260 LINE SMOOTH",
"171 191 OFFCURVE",
"113 111 OFFCURVE",
"57 39 CURVE",
"70 10 LINE",
"397 10 LINE",
"503 10 OFFCURVE",
"604 7 OFFCURVE",
"710 2 CURVE",
"720 12 LINE",
"720 320 LINE",
"710 330 LINE",
"678 330 LINE",
"668 320 LINE",
"631 115 OFFCURVE",
"595 62 OFFCURVE",
"381 62 CURVE",
"239 62 LINE",
"569 543 LINE",
"619 616 OFFCURVE",
"660 672 OFFCURVE",
"726 760 CURVE",
"714 790 LINE",
"426 790 LINE",
"314 790 OFFCURVE",
"220 792 OFFCURVE",
"116 799 CURVE",
"105 790 LINE"
);
}
);
userData = {
com.typemytype.robofont.mark = (
0.656,
1,
0.6,
1
);
};
width = 800;
},
{
layerId = "25879A17-30FE-49F5-8BDD-4D78448C8558";
paths = (
{
closed = 1;
nodes = (
"95 523 LINE",
"111 507 LINE",
"149 507 LINE",
"165 523 LINE",
"209 698 OFFCURVE",
"242 728 OFFCURVE",
"394 728 CURVE SMOOTH",
"648 728 LINE",
"549 761 LINE",
"210 266 LINE SMOOTH",
"162 196 OFFCURVE",
"102 114 OFFCURVE",
"45 40 CURVE",
"64 0 LINE",
"397 0 LINE SMOOTH",
"503 0 OFFCURVE",
"608 -3 OFFCURVE",
"714 -8 CURVE",
"730 8 LINE",
"730 324 LINE",
"714 340 LINE",
"674 340 LINE",
"658 324 LINE",
"623 124 OFFCURVE",
"589 72 OFFCURVE",
"381 72 CURVE SMOOTH",
"162 72 LINE",
"236 40 LINE",
"577 537 LINE SMOOTH",
"627 610 OFFCURVE",
"672 671 OFFCURVE",
"738 759 CURVE",
"720 800 LINE",
"426 800 LINE SMOOTH",
"314 800 OFFCURVE",
"217 803 OFFCURVE",
"113 810 CURVE",
"95 795 LINE"
);
}
);
width = 800;
}
);
leftKerningGroup = z;
rightKerningGroup = z;
unicode = 007A;
},
{
export = 0;
glyphname = g.pt09;
lastChange = "2020-03-21 15:58:42 +0000";
layers = (
{
color = 1;
layerId = "CA4EC710-46DE-40B5-AF89-3BCF48EEB297";
width = 600;
},
{
layerId = "25879A17-30FE-49F5-8BDD-4D78448C8558";
paths = (
{
closed = 1;
nodes = (
"184 336 OFFCURVE",
"98 245 OFFCURVE",
"98 149 CURVE SMOOTH",
"98 49 OFFCURVE",
"170 -14 OFFCURVE",
"280 -14 CURVE SMOOTH",
"355 -14 OFFCURVE",
"437 -5 OFFCURVE",
"511 -5 CURVE SMOOTH",
"643 -5 OFFCURVE",
"710 -58 OFFCURVE",
"710 -139 CURVE SMOOTH",
"710 -241 OFFCURVE",
"612 -323 OFFCURVE",
"425 -320 CURVE SMOOTH",
"268 -317 OFFCURVE",
"195 -251 OFFCURVE",
"195 -157 CURVE SMOOTH",
"195 -101 OFFCURVE",
"229 -46 OFFCURVE",
"316 -10 CURVE",
"220 14 LINE",
"135 -16 OFFCURVE",
"57 -79 OFFCURVE",
"57 -165 CURVE SMOOTH",
"57 -297 OFFCURVE",
"185 -394 OFFCURVE",
"424 -394 CURVE SMOOTH",
"679 -394 OFFCURVE",
"829 -270 OFFCURVE",
"829 -85 CURVE SMOOTH",
"829 44 OFFCURVE",
"751 155 OFFCURVE",
"569 155 CURVE SMOOTH",
"466 155 OFFCURVE",
"382 144 OFFCURVE",
"279 144 CURVE SMOOTH",
"238 144 OFFCURVE",
"209 155 OFFCURVE",
"209 186 CURVE SMOOTH",
"209 221 OFFCURVE",
"233 270 OFFCURVE",
"374 252 CURVE",
"381 310 LINE"
);
},
{
closed = 1;
nodes = (
"727 686 OFFCURVE",
"596 821 OFFCURVE",
"414 821 CURVE SMOOTH",
"231 821 OFFCURVE",
"100 693 OFFCURVE",
"100 536 CURVE SMOOTH",
"100 378 OFFCURVE",
"231 250 OFFCURVE",
"414 250 CURVE SMOOTH",
"604 250 OFFCURVE",
"727 378 OFFCURVE",
"727 536 CURVE SMOOTH"
);
},
{
closed = 1;
nodes = (
"557 415 OFFCURVE",
"514 322 OFFCURVE",
"414 322 CURVE SMOOTH",
"321 322 OFFCURVE",
"270 404 OFFCURVE",
"270 536 CURVE SMOOTH",
"270 675 OFFCURVE",
"328 749 OFFCURVE",
"414 749 CURVE SMOOTH",
"500 749 OFFCURVE",
"557 668 OFFCURVE",
"557 536 CURVE SMOOTH"
);
},
{
closed = 1;
nodes = (
"697 697 OFFCURVE",
"739 727 OFFCURVE",
"785 741 CURVE",
"806 767 LINE",
"726 743 OFFCURVE",
"719 624 OFFCURVE",
"811 622 CURVE SMOOTH",
"854 621 OFFCURVE",
"892 655 OFFCURVE",
"892 715 CURVE SMOOTH",
"892 772 OFFCURVE",
"860 817 OFFCURVE",
"792 817 CURVE SMOOTH",
"723 817 OFFCURVE",
"656 759 OFFCURVE",
"616 682 CURVE",
"680 643 LINE"
);
}
);
width = 900;
}
);
leftKerningGroup = g;
rightKerningGroup = g;
},
{
export = 0;
glyphname = j.pt09;
lastChange = "2020-03-21 15:58:42 +0000";
layers = (
{
color = 1;
layerId = "CA4EC710-46DE-40B5-AF89-3BCF48EEB297";
width = 600;
},
{
layerId = "25879A17-30FE-49F5-8BDD-4D78448C8558";
paths = (
{
closed = 1;
nodes = (
"230 -400 OFFCURVE",
"289 -372 OFFCURVE",
"323 -330 CURVE SMOOTH",
"358 -286 OFFCURVE",
"375 -219 OFFCURVE",
"375 -142 CURVE SMOOTH",
"375 446 LINE SMOOTH",
"375 555 OFFCURVE",
"383 698 OFFCURVE",
"392 796 CURVE",
"374 813 LINE",
"276 802 OFFCURVE",
"144 800 OFFCURVE",
"69 800 CURVE",
"53 784 LINE",
"52 741 LINE",
"68 725 LINE",
"140 721 OFFCURVE",
"177 712 OFFCURVE",
"192 692 CURVE SMOOTH",
"212 664 OFFCURVE",
"215 584 OFFCURVE",
"215 475 CURVE SMOOTH",
"215 -164 LINE SMOOTH",
"215 -218 OFFCURVE",
"212 -267 OFFCURVE",
"200 -294 CURVE SMOOTH",
"188 -321 OFFCURVE",
"166 -334 OFFCURVE",
"140 -334 CURVE SMOOTH",
"129 -334 OFFCURVE",
"116 -332 OFFCURVE",
"106 -327 CURVE",
"106 -305 LINE",
"134 -280 OFFCURVE",
"154 -250 OFFCURVE",
"154 -207 CURVE SMOOTH",
"154 -163 OFFCURVE",
"126 -117 OFFCURVE",
"67 -117 CURVE SMOOTH",
"2 -117 OFFCURVE",
"-37 -173 OFFCURVE",
"-37 -236 CURVE SMOOTH",
"-37 -322 OFFCURVE",
"29 -400 OFFCURVE",
"149 -400 CURVE SMOOTH"
);
},
{
closed = 1;
nodes = (
"178 1054 OFFCURVE",
"222 1005 OFFCURVE",
"287 1005 CURVE SMOOTH",
"354 1005 OFFCURVE",
"396 1054 OFFCURVE",
"396 1111 CURVE SMOOTH",
"396 1168 OFFCURVE",
"352 1217 OFFCURVE",
"287 1217 CURVE SMOOTH",
"218 1217 OFFCURVE",
"178 1168 OFFCURVE",
"178 1111 CURVE SMOOTH"
);
}
);
width = 525;
}
);
leftKerningGroup = j;
rightKerningGroup = j;
},
{
export = 0;
glyphname = p.pt09;
lastChange = "2020-03-21 15:58:42 +0000";
layers = (
{
color = 1;
layerId = "CA4EC710-46DE-40B5-AF89-3BCF48EEB297";
width = 600;
},
{
layerId = "25879A17-30FE-49F5-8BDD-4D78448C8558";
paths = (
{
closed = 1;
nodes = (
"260 208 OFFCURVE",
"301 134 OFFCURVE",
"349 80 CURVE SMOOTH",
"393 31 OFFCURVE",
"458 -17 OFFCURVE",
"573 -17 CURVE SMOOTH",
"743 -17 OFFCURVE",
"886 117 OFFCURVE",
"886 406 CURVE SMOOTH",
"886 690 OFFCURVE",
"740 817 OFFCURVE",
"573 817 CURVE SMOOTH",
"483 817 OFFCURVE",
"413 781 OFFCURVE",
"360 724 CURVE SMOOTH",
"288 646 OFFCURVE",
"260 535 OFFCURVE",
"260 400 CURVE SMOOTH"
);
},
{
closed = 1;
nodes = (
"634 729 OFFCURVE",
"710 631 OFFCURVE",
"710 400 CURVE SMOOTH",
"710 169 OFFCURVE",
"636 71 OFFCURVE",
"532 71 CURVE SMOOTH",
"466 71 OFFCURVE",
"414 111 OFFCURVE",
"378 168 CURVE SMOOTH",
"339 230 OFFCURVE",
"319 311 OFFCURVE",
"319 410 CURVE SMOOTH",
"319 523 OFFCURVE",
"358 602 OFFCURVE",
"398 655 CURVE SMOOTH",
"438 708 OFFCURVE",
"482 729 OFFCURVE",
"532 729 CURVE SMOOTH"
);
},
{
closed = 1;
nodes = (
"309 689 OFFCURVE",
"307 750 OFFCURVE",
"300 798 CURVE",
"280 813 LINE",
"197 802 OFFCURVE",
"104 800 OFFCURVE",
"35 800 CURVE",
"19 784 LINE",
"18 741 LINE",
"34 725 LINE",
"86 723 OFFCURVE",
"121 712 OFFCURVE",
"136 692 CURVE SMOOTH",
"156 664 OFFCURVE",
"159 584 OFFCURVE",
"159 475 CURVE SMOOTH",
"159 -173 LINE SMOOTH",
"159 -262 OFFCURVE",
"151 -287 OFFCURVE",
"124 -305 CURVE SMOOTH",
"103 -319 OFFCURVE",
"77 -321 OFFCURVE",
"35 -324 CURVE",
"19 -340 LINE",
"19 -386 LINE",
"35 -402 LINE",
"127 -402 OFFCURVE",
"195 -394 OFFCURVE",
"246 -394 CURVE SMOOTH",
"303 -394 OFFCURVE",
"369 -402 OFFCURVE",
"463 -402 CURVE",
"479 -386 LINE",
"479 -340 LINE",
"463 -324 LINE",
"381 -322 OFFCURVE",
"344 -318 OFFCURVE",
"330 -291 CURVE SMOOTH",
"323 -278 OFFCURVE",
"319 -239 OFFCURVE",
"319 -182 CURVE SMOOTH",
"319 200 LINE",
"309 200 LINE",
"309 636 LINE SMOOTH"
);
}
);
width = 950;
}
);
leftKerningGroup = p;
rightKerningGroup = b;
},
{
export = 0;
glyphname = q.pt09;
lastChange = "2020-03-21 15:58:42 +0000";
layers = (
{
color = 1;
layerId = "CA4EC710-46DE-40B5-AF89-3BCF48EEB297";
width = 600;
},
{
layerId = "25879A17-30FE-49F5-8BDD-4D78448C8558";
paths = (
{
closed = 1;
nodes = (
"792 565 OFFCURVE",
"800 693 OFFCURVE",
"810 799 CURVE",
"795 816 LINE",
"747 816 LINE",
"727 804 LINE",
"641 652 LINE",
"641 200 LINE",
"631 200 LINE",
"632 -173 LINE SMOOTH",
"632 -262 OFFCURVE",
"624 -287 OFFCURVE",
"597 -305 CURVE SMOOTH",
"576 -319 OFFCURVE",
"540 -323 OFFCURVE",
"488 -324 CURVE",
"472 -340 LINE",
"472 -386 LINE",
"488 -402 LINE",
"580 -402 OFFCURVE",
"668 -394 OFFCURVE",
"709 -394 CURVE SMOOTH",
"751 -394 OFFCURVE",
"822 -402 OFFCURVE",
"916 -402 CURVE",
"932 -386 LINE",
"932 -340 LINE",
"916 -324 LINE",
"846 -322 OFFCURVE",
"814 -321 OFFCURVE",
"802 -300 CURVE SMOOTH",
"793 -284 OFFCURVE",
"792 -239 OFFCURVE",
"792 -182 CURVE SMOOTH",
"792 462 LINE SMOOTH"
);
},
{
closed = 1;
nodes = (
"695 612 OFFCURVE",
"668 692 OFFCURVE",
"609 748 CURVE SMOOTH",
"569 786 OFFCURVE",
"504 817 OFFCURVE",
"424 817 CURVE SMOOTH",
"227 817 OFFCURVE",
"64 676 OFFCURVE",
"64 400 CURVE SMOOTH",
"64 103 OFFCURVE",
"223 -17 OFFCURVE",
"377 -17 CURVE SMOOTH",
"467 -17 OFFCURVE",
"537 19 OFFCURVE",
"590 76 CURVE SMOOTH",
"662 154 OFFCURVE",
"690 265 OFFCURVE",
"690 400 CURVE",
"705 535 LINE"
);
},
{
closed = 1;
nodes = (
"315 71 OFFCURVE",
"240 168 OFFCURVE",
"240 400 CURVE SMOOTH",
"240 631 OFFCURVE",
"320 739 OFFCURVE",
"443 739 CURVE SMOOTH",
"497 739 OFFCURVE",
"540 717 OFFCURVE",
"575 672 CURVE SMOOTH",
"613 624 OFFCURVE",
"631 557 OFFCURVE",
"631 443 CURVE SMOOTH",
"631 269 OFFCURVE",
"591 189 OFFCURVE",
"554 145 CURVE SMOOTH",
"512 94 OFFCURVE",
"463 71 OFFCURVE",
"411 71 CURVE SMOOTH"
);
}
);
width = 950;
}
);
leftKerningGroup = e;
rightKerningGroup = q;
},
{
export = 0;
glyphname = y.pt09;
lastChange = "2020-03-21 15:58:42 +0000";
layers = (
{
color = 1;
layerId = "CA4EC710-46DE-40B5-AF89-3BCF48EEB297";
width = 600;
},
{
layerId = "25879A17-30FE-49F5-8BDD-4D78448C8558";
paths = (
{
closed = 1;
nodes = (
"464 42 LINE",
"377 -173 LINE SMOOTH",
"333 -280 OFFCURVE",
"284 -332 OFFCURVE",
"231 -332 CURVE SMOOTH",
"218 -332 OFFCURVE",
"205 -330 OFFCURVE",
"195 -325 CURVE",
"195 -306 LINE",
"304 -248 OFFCURVE",
"262 -101 OFFCURVE",
"157 -101 CURVE SMOOTH",
"90 -101 OFFCURVE",
"42 -157 OFFCURVE",
"43 -233 CURVE SMOOTH",
"44 -333 OFFCURVE",
"119 -400 OFFCURVE",
"228 -400 CURVE SMOOTH",
"312 -400 OFFCURVE",
"409 -360 OFFCURVE",
"473 -202 CURVE SMOOTH",
"803 610 LINE SMOOTH",
"832 681 OFFCURVE",
"864 716 OFFCURVE",
"922 726 CURVE",
"938 742 LINE",
"938 786 LINE",
"922 802 LINE",
"891 802 OFFCURVE",
"805 794 OFFCURVE",
"739 794 CURVE SMOOTH",
"685 794 OFFCURVE",
"634 802 OFFCURVE",
"578 802 CURVE",
"562 786 LINE",
"562 740 LINE",
"578 724 LINE",
"668 722 OFFCURVE",
"720 686 OFFCURVE",
"692 611 CURVE SMOOTH",
"511 131 LINE"
);
},
{
closed = 1;
nodes = (
"325 684 OFFCURVE",
"367 722 OFFCURVE",
"460 724 CURVE",
"476 740 LINE",
"476 786 LINE",
"460 802 LINE",
"386 802 OFFCURVE",
"303 794 OFFCURVE",
"234 794 CURVE SMOOTH",
"163 794 OFFCURVE",
"86 802 OFFCURVE",
"12 802 CURVE",
"-4 786 LINE",
"-4 746 LINE",
"12 730 LINE",
"100 720 OFFCURVE",
"144 683 OFFCURVE",
"177 604 CURVE SMOOTH",
"459 -83 LINE",
"546 134 LINE",
"353 613 LINE SMOOTH"
);
}
);
width = 950;
}
);
leftKerningGroup = y;
rightKerningGroup = w;
},
